SplineFontDB: 3.0
FontName: TAM-ThiruValluvarBoldItalic
FullName: TAM-ThiruValluvarBoldItalic
FamilyName: TAM ThiruValluvar
Weight: Regular
Copyright: Copyright (c) 2009-2015, NLCI (http://www.nlci.in/fonts/)
Version: 
ItalicAngle: 0
UnderlinePosition: -492
UnderlineWidth: 40
Ascent: 1638
Descent: 410
InvalidEm: 0
LayerCount: 2
Layer: 0 0 "Back" 1
Layer: 1 0 "Fore" 0
XUID: [1021 406 472118173 9773527]
FSType: 0
OS2Version: 3
OS2_WeightWidthSlopeOnly: 0
OS2_UseTypoMetrics: 1
CreationTime: 1403226349
ModificationTime: 1403226838
PfmFamily: 81
TTFWeight: 400
TTFWidth: 5
LineGap: 0
VLineGap: 0
Panose: 2 0 0 0 0 0 0 0 0 0
OS2TypoAscent: 304
OS2TypoAOffset: 1
OS2TypoDescent: -325
OS2TypoDOffset: 1
OS2TypoLinegap: 0
OS2WinAscent: -210
OS2WinAOffset: 1
OS2WinDescent: 17
OS2WinDOffset: 1
HheadAscent: -210
HheadAOffset: 1
HheadDescent: -17
HheadDOffset: 1
OS2SubXSize: 1434
OS2SubYSize: 1331
OS2SubXOff: 0
OS2SubYOff: 293
OS2SupXSize: 1434
OS2SupYSize: 1331
OS2SupXOff: 0
OS2SupYOff: 928
OS2StrikeYSize: 102
OS2StrikeYPos: 530
OS2Vendor: 'Alts'
OS2CodePages: 00000000.00000000
OS2UnicodeRanges: 00100001.00000000.00000000.00000000
Lookup: 4 0 0 "akhnAkhandinTamillookup9" { "akhnAkhandinTamillookup9 subtable"  } ['akhn' ('taml' <'TAM ' 'TAO ' 'dflt' > ) ]
Lookup: 4 0 0 "akhnligs" { "akhnligs subtable"  } ['akhn' ('taml' <'TAM ' 'TAO ' 'dflt' > ) ]
Lookup: 4 0 0 "sub_ligature_pststaml_0" { "sub_ligature_pststaml_0 subtable"  } ['psts' ('taml' <'TAM ' 'TAO ' 'dflt' > ) ]
Lookup: 4 0 0 "sub_ligature_pststaml_2" { "sub_ligature_pststaml_2 subtable"  } ['psts' ('taml' <'TAM ' 'TAO ' 'dflt' > ) ]
Lookup: 4 0 0 "sub_ligature_pststaml_4" { "sub_ligature_pststaml_4 subtable"  } ['psts' ('taml' <'TAM ' 'TAO ' 'dflt' > ) ]
Lookup: 4 0 0 "sub_ligature_pststaml_6" { "sub_ligature_pststaml_6 subtable"  } ['psts' ('taml' <'TAM ' 'TAO ' 'dflt' > ) ]
Lookup: 4 0 0 "sub_ligature_pststaml_8" { "sub_ligature_pststaml_8 subtable"  } ['psts' ('taml' <'TAM ' 'TAO ' 'dflt' > ) ]

StartChar: .notdef
Encoding: 0 -1 0
Width: 950
Flags: W
HStem: -25 114<160 828> 1447 114<449 1117>
LayerCount: 2
Fore
SplineSet
30 -25 m 1
 367 1561 l 1
 1247 1561 l 1
 910 -25 l 1
 30 -25 l 1
828 89 m 1
 1117 1447 l 1
 449 1447 l 1
 160 89 l 1
 828 89 l 1
EndSplineSet
EndChar

StartChar: exclam
Encoding: 4 33 4
Width: 635
GlyphClass: 1
Flags: HW
LayerCount: 2
Fore
SplineSet
481 102 m 0
 464 23 387 -50 307 -50 c 0
 236 -50 181 12 200 102 c 0
 219 192 297 252 371 252 c 0
 445 252 500 192 481 102 c 0
728 1274 m 0
 727 1268 722 1247 715 1224 c 2
 460 346 l 1
 325 346 l 1
 407 972 l 2
 414 1026 421 1073 427 1116 c 2
 441 1224 l 2
 444 1248 448 1267 449 1274 c 0
 472 1380 535 1432 622 1432 c 0
 709 1432 751 1380 728 1274 c 0
EndSplineSet
EndChar

StartChar: quotedbl
Encoding: 5 34 5
Width: 631
GlyphClass: 1
Flags: HW
LayerCount: 2
Fore
SplineSet
478 1487 m 0
 542 1487 573 1445 555 1362 c 2
 555 1360 l 1
 376 837 l 1
 305 837 l 1
 346 1360 l 1
 347 1362 l 2
 368 1462 433 1487 478 1487 c 0
785 1487 m 0
 830 1487 885 1462 864 1362 c 2
 864 1360 l 1
 682 837 l 1
 611 837 l 1
 655 1360 l 1
 656 1362 l 2
 672 1437 717 1487 785 1487 c 0
EndSplineSet
EndChar

StartChar: numbersign
Encoding: 6 35 6
Width: 1411
GlyphClass: 1
Flags: HW
LayerCount: 2
Fore
SplineSet
810 837 m 1
 680 594 l 1
 907 594 l 1
 1037 837 l 1
 810 837 l 1
1065 594 m 1
 1363 594 l 1
 1331 442 l 1
 983 442 l 1
 710 -78 l 1
 582 -30 l 1
 827 442 l 1
 600 442 l 1
 325 -79 l 1
 199 -27 l 1
 448 442 l 1
 187 442 l 1
 219 594 l 1
 527 594 l 1
 656 837 l 1
 356 837 l 1
 389 992 l 1
 737 992 l 1
 996 1481 l 1
 1127 1433 l 1
 889 992 l 1
 1117 992 l 1
 1374 1481 l 1
 1510 1433 l 1
 1274 992 l 1
 1531 992 l 1
 1498 837 l 1
 1191 837 l 1
 1065 594 l 1
EndSplineSet
EndChar

StartChar: dollar
Encoding: 7 36 7
Width: 1160
GlyphClass: 1
Flags: HW
LayerCount: 2
Fore
SplineSet
777 559 m 1x86
 688 140 l 1
 754 156 876 204 907 350 c 0
 932 470 873 521 777 559 c 1x86
693 850 m 1
 774 1233 l 1
 715 1215 613 1167 584 1032 c 0xcc
 563 932 622 883 693 850 c 1
348 982 m 0
 410 1271 699 1349 803 1368 c 1xcc
 835 1522 l 1
 983 1522 l 1
 953 1380 l 1
 1051 1378 1156 1363 1265 1335 c 2
 1282 1331 l 1
 1207 979 l 1
 1064 979 l 1xad
 1084 1209 l 1
 1065 1229 1018 1246 925 1249 c 1
 832 808 l 1
 903 786 l 1
 1064 731 1187 632 1138 401 c 0
 1088 167 839 21 657 -2 c 1
 613 -211 l 1
 464 -211 l 1
 508 -5 l 1
 312 6 202 26 135 47 c 2
 119 51 l 1
 200 432 l 1
 338 432 l 1xb6
 324 197 l 1
 347 168 433 143 539 140 c 1
 636 600 l 1
 448 647 300 758 348 982 c 0
EndSplineSet
EndChar

StartChar: percent
Encoding: 8 37 8
Width: 1728
GlyphClass: 1
Flags: HW
LayerCount: 2
Fore
SplineSet
454 964 m 0
 421 811 412 650 518 650 c 0
 594 650 663 734 712 964 c 0
 761 1194 728 1279 652 1279 c 0
 546 1279 486 1116 454 964 c 0
1305 409 m 0
 1274 261 1265 93 1370 93 c 0
 1446 93 1514 178 1563 409 c 0
 1612 639 1580 725 1504 725 c 0
 1399 725 1337 559 1305 409 c 0
265 964 m 0
 303 1145 422 1407 679 1407 c 0
 941 1407 952 1147 913 964 c 0
 874 781 753 522 491 522 c 0
 234 522 226 781 265 964 c 0
515 -25 m 1
 333 -25 l 1
 1509 1399 l 1
 1689 1399 l 1
 515 -25 l 1
1108 410 m 0
 1146 591 1267 852 1531 852 c 0
 1770 852 1801 622 1756 410 c 0
 1718 230 1599 -33 1343 -33 c 0
 1079 -33 1070 230 1108 410 c 0
EndSplineSet
EndChar

StartChar: ampersand
Encoding: 9 38 9
Width: 1330
GlyphClass: 1
Flags: HW
LayerCount: 2
Fore
SplineSet
1121 1092 m 0xb6
 1078 888 916 788 779 725 c 1
 989 401 l 1
 1028 446 1093 530 1118 603 c 0
 1118 603 1113 615 1107 616 c 2
 989 635 l 1
 1017 768 l 1
 1454 768 l 1
 1426 635 l 1
 1279 613 l 1
 1232 518 1173 428 1104 344 c 1
 1059 291 l 1
 1159 122 l 1
 1340 112 l 1
 1310 -25 l 1
 913 -25 l 1x76
 927 39 l 1
 879 118 l 1
 808 68 l 1
 692 -11 575 -50 459 -50 c 0
 233 -50 76 124 131 381 c 0xba
 162 526 253 660 447 749 c 1
 433 770 l 2
 344 897 362 1020 369 1055 c 0
 416 1278 613 1426 833 1426 c 0
 1031 1426 1164 1292 1121 1092 c 0xb6
782 1275 m 0
 692 1275 619 1204 599 1108 c 0
 584 1035 603 960 663 880 c 2
 698 833 l 1
 834 902 877 991 896 1079 c 0
 918 1184 891 1275 782 1275 c 0
380 428 m 0xba
 342 247 436 134 571 134 c 0
 617 134 683 136 809 226 c 1
 537 649 l 1
 451 589 399 516 380 428 c 0xba
EndSplineSet
EndChar

StartChar: quotesingle
Encoding: 10 39 10
Width: 322
GlyphClass: 1
Flags: HW
LayerCount: 2
Fore
SplineSet
477 1487 m 0
 522 1487 576 1462 555 1362 c 2
 555 1360 l 1
 376 837 l 1
 305 837 l 1
 346 1360 l 1
 347 1362 l 2
 363 1437 409 1487 477 1487 c 0
EndSplineSet
EndChar

StartChar: parenleft
Encoding: 11 40 11
Width: 713
GlyphClass: 1
Flags: HW
LayerCount: 2
Fore
SplineSet
436 590 m 0
 358 225 341 -126 617 -176 c 2
 636 -180 l 1
 606 -319 l 1
 581 -316 l 2
 203 -269 107 92 213 590 c 0
 319 1087 566 1445 966 1493 c 2
 992 1496 l 1
 963 1357 l 1
 942 1353 l 2
 645 1303 514 955 436 590 c 0
EndSplineSet
EndChar

StartChar: parenright
Encoding: 12 41 12
Width: 713
GlyphClass: 1
Flags: HW
LayerCount: 2
Fore
SplineSet
348 1353 m 2
 329 1357 l 1
 359 1496 l 1
 384 1493 l 2
 762 1446 859 1090 753 590 c 0
 648 94 400 -268 -0 -316 c 2
 -27 -319 l 1
 3 -180 l 1
 23 -176 l 2
 206 -144 402 -1 528 590 c 0
 653 1178 517 1321 348 1353 c 2
EndSplineSet
EndChar

StartChar: asterisk
Encoding: 13 42 13
Width: 949
GlyphClass: 1
Flags: HW
LayerCount: 2
Fore
SplineSet
548 724 m 1
 359 654 l 1
 407 854 l 1
 624 1012 l 1
 392 1027 l 1
 311 1180 l 1
 502 1237 l 1
 668 1099 l 1
 657 1345 l 1
 796 1510 l 1
 866 1346 l 1
 750 1100 l 1
 974 1237 l 1
 1140 1180 l 1
 994 1027 l 1
 757 1012 l 1
 906 854 l 1
 869 654 l 1
 709 724 l 1
 677 950 l 1
 548 724 l 1
712 1060 m 1
 689 1060 l 1
 673 1028 l 1
 690 1011 l 1
 715 1029 l 1
 712 1060 l 1
EndSplineSet
EndChar

StartChar: plus
Encoding: 14 43 14
Width: 1889
GlyphClass: 1
Flags: HW
LayerCount: 2
Fore
SplineSet
1138 526 m 1
 1021 -25 l 1
 857 -25 l 1
 975 526 l 1
 462 526 l 1
 500 703 l 1
 1012 703 l 1
 1129 1254 l 1
 1293 1254 l 1
 1176 703 l 1
 1688 703 l 1
 1651 526 l 1
 1138 526 l 1
EndSplineSet
EndChar

StartChar: comma
Encoding: 15 44 15
Width: 529
GlyphClass: 1
Flags: HW
LayerCount: 2
Fore
SplineSet
292 275 m 0
 437 275 442 130 419 20 c 0
 369 -216 156 -358 -17 -373 c 2
 -42 -375 l 1
 -17 -254 l 1
 2 -250 l 2
 126 -222 208 -162 244 -11 c 1
 138 -11 l 1
 133 -4 l 2
 125 8 101 41 115 109 c 0
 132 191 207 275 292 275 c 0
EndSplineSet
EndChar

StartChar: hyphen
Encoding: 16 45 16
Width: 606
GlyphClass: 1
Flags: HW
LayerCount: 2
Fore
SplineSet
142 391 m 1
 185 594 l 1
 674 594 l 1
 631 391 l 1
 142 391 l 1
EndSplineSet
EndChar

StartChar: period
Encoding: 17 46 17
Width: 527
GlyphClass: 1
Flags: HW
LayerCount: 2
Fore
SplineSet
300 275 m 0
 376 275 439 211 418 113 c 0
 396 12 305 -50 231 -50 c 0
 153 -50 94 15 115 113 c 0
 135 208 222 275 300 275 c 0
EndSplineSet
EndChar

StartChar: slash
Encoding: 18 47 18
Width: 935
GlyphClass: 1
Flags: HW
LayerCount: 2
Fore
SplineSet
91 -215 m 1
 -84 -215 l 1
 1096 1399 l 1
 1272 1399 l 1
 91 -215 l 1
EndSplineSet
EndChar

StartChar: zero
Encoding: 19 48 19
Width: 1162
GlyphClass: 1
Flags: HW
LayerCount: 2
Fore
SplineSet
469 686 m 0
 363 189 510 120 605 120 c 0
 811 120 927 422 983 686 c 0
 1024 880 1075 1255 846 1255 c 0
 641 1255 525 950 469 686 c 0
572 -33 m 0
 314 -33 109 165 220 686 c 0
 266 903 346 1077 461 1208 c 0
 577 1341 720 1407 879 1407 c 0
 1039 1407 1154 1341 1214 1208 c 0
 1273 1077 1279 903 1233 686 c 0
 1139 243 886 -33 572 -33 c 0
EndSplineSet
EndChar

StartChar: one
Encoding: 20 49 20
Width: 1157
GlyphClass: 1
Flags: HW
LayerCount: 2
Fore
SplineSet
457 150 m 2
 466 150 480 155 483 169 c 2
 700 1187 l 1
 383 1134 l 1
 412 1269 l 1
 904 1407 l 1
 1018 1407 l 1
 754 169 l 2
 751 155 761 150 769 150 c 2
 969 141 l 1
 939 0 l 1
 202 0 l 1
 232 141 l 1
 457 150 l 2
EndSplineSet
EndChar

StartChar: two
Encoding: 21 50 21
Width: 1161
GlyphClass: 1
Flags: HW
LayerCount: 2
Fore
SplineSet
343 1077 m 0xf0
 382 1258 610 1407 878 1407 c 0
 1159 1407 1316 1248 1263 1000 c 0xf0
 1221 804 1027 630 867 511 c 2
 783 451 l 1
 719 406 651 361 580 316 c 2
 433 222 l 1
 952 222 l 1
 1023 398 l 1
 1159 398 l 1
 1074 0 l 1xe8
 87 0 l 1
 123 167 l 1
 453 402 l 2
 731 588 958 771 1001 973 c 0
 1035 1134 952 1246 786 1246 c 0
 732 1246 676 1226 643 1210 c 2
 629 1203 l 1
 582 980 l 1
 571 972 l 2
 530 942 488 931 450 931 c 0
 367 931 325 991 343 1077 c 0xf0
EndSplineSet
EndChar

StartChar: three
Encoding: 22 51 22
Width: 1161
GlyphClass: 1
Flags: HW
LayerCount: 2
Fore
SplineSet
1246 1041 m 0xf8
 1212 879 1083 784 955 732 c 1
 1095 695 1198 587 1159 401 c 0
 1104 141 827 -33 516 -33 c 0
 215 -33 114 127 137 234 c 0
 151 298 209 369 302 369 c 0
 318 369 355 369 376 351 c 2
 381 346 l 1
 404 165 l 1
 454 135 505 120 555 120 c 0
 733 120 883 253 915 402 c 0xf4
 954 584 784 624 675 624 c 0
 634 624 593 621 549 616 c 2
 520 613 l 1
 558 793 l 1
 584 793 l 2
 589 793 615 791 637 791 c 0
 761 791 956 838 996 1026 c 0
 1026 1168 924 1244 794 1244 c 0
 731 1244 665 1224 623 1203 c 1
 582 1013 l 1
 533 994 l 2
 526 991 503 981 462 981 c 0
 375 981 341 1040 356 1112 c 0
 391 1274 617 1407 887 1407 c 0
 1149 1407 1293 1261 1246 1041 c 0xf8
EndSplineSet
EndChar

StartChar: four
Encoding: 23 52 23
Width: 1162
GlyphClass: 1
Flags: HW
LayerCount: 2
Fore
SplineSet
808 572 m 1
 914 1072 l 1
 417 572 l 1
 808 572 l 1
1169 383 m 1
 1007 383 l 1
 919 -33 l 1
 679 -33 l 1
 767 383 l 1
 156 383 l 1
 193 558 l 1
 1048 1407 l 1
 1225 1407 l 1
 1047 572 l 1
 1209 572 l 1
 1169 383 l 1
EndSplineSet
EndChar

StartChar: five
Encoding: 24 53 24
Width: 1161
GlyphClass: 1
Flags: HW
LayerCount: 2
Fore
SplineSet
524 846 m 1
 595 867 690 889 790 889 c 0
 1002 889 1246 800 1173 456 c 0
 1128 244 941 -33 477 -33 c 0
 253 -33 107 111 133 234 c 0
 153 327 226 374 306 374 c 0
 326 374 346 371 363 364 c 2
 372 360 l 1
 411 167 l 1
 430 148 492 118 540 118 c 0
 757 118 897 296 921 408 c 0
 962 601 857 708 653 708 c 0
 574 708 461 685 327 640 c 2
 294 629 l 1
 452 1374 l 1
 1281 1374 l 1
 1233 1150 l 1
 589 1150 l 1
 524 846 l 1
EndSplineSet
EndChar

StartChar: six
Encoding: 25 54 25
Width: 1162
GlyphClass: 1
Flags: HW
LayerCount: 2
Fore
SplineSet
942 454 m 0
 968 577 951 737 734 737 c 0
 636 737 529 690 460 649 c 1
 453 624 444 592 436 554 c 0
 395 360 392 124 604 124 c 0
 818 124 913 316 942 454 c 0
570 -33 m 0
 361 -33 88 62 200 591 c 0
 325 1180 781 1407 1205 1407 c 2
 1228 1407 l 1
 1191 1229 l 1
 1100 1232 l 2
 1096 1232 1092 1232 1088 1232 c 0
 857 1232 629 1079 515 825 c 1
 615 885 726 920 846 920 c 0
 1115 920 1244 734 1190 481 c 0
 1125 176 865 -33 570 -33 c 0
EndSplineSet
EndChar

StartChar: seven
Encoding: 26 55 26
Width: 1161
GlyphClass: 1
Flags: HW
LayerCount: 2
Fore
SplineSet
1346 1234 m 1
 433 51 l 1
 415 -33 l 1
 141 -33 l 1
 1064 1150 l 1
 493 1150 l 1
 423 964 l 1
 283 964 l 1
 370 1374 l 1
 1376 1374 l 1
 1346 1234 l 1
EndSplineSet
EndChar

StartChar: eight
Encoding: 27 56 27
Width: 1161
GlyphClass: 1
Flags: HW
LayerCount: 2
Fore
SplineSet
385 410 m 0xe4
 350 246 420 128 607 128 c 0
 800 128 902 265 923 365 c 0
 951 498 844 556 752 598 c 1
 602 663 l 1
 525 625 416 558 385 410 c 0xe4
846 1253 m 0
 715 1253 611 1152 588 1044 c 0
 564 933 633 849 840 765 c 1
 941 832 1002 913 1023 1011 c 0xd8
 1053 1153 983 1253 846 1253 c 0
1256 1043 m 0
 1220 876 1076 773 985 725 c 1
 1092 672 1207 574 1167 384 c 0
 1114 134 865 -33 573 -33 c 0
 264 -33 102 132 155 380 c 0xe4
 183 510 274 629 466 712 c 1
 394 759 307 852 341 1011 c 0
 391 1247 590 1407 879 1407 c 0
 1135 1407 1302 1262 1256 1043 c 0
EndSplineSet
EndChar

StartChar: nine
Encoding: 28 57 28
Width: 1162
GlyphClass: 1
Flags: HW
LayerCount: 2
Fore
SplineSet
848 1250 m 0
 634 1250 540 1062 510 920 c 0
 484 797 501 637 718 637 c 0
 816 637 923 684 992 725 c 1
 999 750 1008 782 1016 820 c 0
 1057 1014 1060 1250 848 1250 c 0
264 892 m 0
 326 1185 572 1407 882 1407 c 0
 1092 1407 1366 1312 1254 783 c 0
 1151 297 785 -33 247 -33 c 2
 224 -33 l 1
 262 145 l 1
 351 142 l 2
 356 142 360 142 365 142 c 0
 609 142 831 307 939 548 c 1
 830 483 719 454 608 454 c 0
 336 454 210 639 264 892 c 0
EndSplineSet
EndChar

StartChar: colon
Encoding: 29 58 29
Width: 527
GlyphClass: 1
Flags: HW
LayerCount: 2
Fore
SplineSet
300 275 m 0
 376 275 439 211 418 113 c 0
 396 12 305 -50 231 -50 c 0
 153 -50 94 15 115 113 c 0
 135 208 222 275 300 275 c 0
462 1037 m 0
 538 1037 601 972 580 874 c 0
 559 775 468 712 393 712 c 0
 315 712 257 779 277 874 c 0
 298 972 384 1037 462 1037 c 0
EndSplineSet
EndChar

StartChar: semicolon
Encoding: 30 59 30
Width: 529
GlyphClass: 1
Flags: HW
LayerCount: 2
Fore
SplineSet
465 1037 m 0xe0
 542 1037 600 972 579 874 c 0
 558 775 469 712 394 712 c 0
 316 712 258 779 278 874 c 0
 297 962 379 1037 465 1037 c 0xe0
292 275 m 0
 437 275 442 130 419 20 c 0
 369 -216 156 -358 -17 -373 c 2
 -42 -375 l 1
 -17 -254 l 1
 2 -250 l 2
 126 -222 208 -162 244 -11 c 1xd0
 138 -11 l 1
 133 -4 l 2
 125 8 101 41 115 109 c 0
 132 191 207 275 292 275 c 0
EndSplineSet
EndChar

StartChar: less
Encoding: 31 60 31
Width: 1889
GlyphClass: 1
Flags: HW
LayerCount: 2
Fore
SplineSet
464 534 m 1
 498 695 l 1
 1791 1185 l 1
 1752 1005 l 1
 693 614 l 1
 1587 224 l 1
 1548 44 l 1
 464 534 l 1
EndSplineSet
EndChar

StartChar: equal
Encoding: 32 61 32
Width: 1889
GlyphClass: 1
Flags: HW
LayerCount: 2
Fore
SplineSet
423 340 m 1
 460 517 l 1
 1649 517 l 1
 1611 340 l 1
 423 340 l 1
502 712 m 1
 539 889 l 1
 1728 889 l 1
 1690 712 l 1
 502 712 l 1
EndSplineSet
EndChar

StartChar: greater
Encoding: 33 62 33
Width: 1889
GlyphClass: 1
Flags: HW
LayerCount: 2
Fore
SplineSet
360 44 m 1
 398 224 l 1
 1458 614 l 1
 564 1005 l 1
 602 1185 l 1
 1687 695 l 1
 1652 534 l 1
 360 44 l 1
EndSplineSet
EndChar

StartChar: question
Encoding: 34 63 34
Width: 921
GlyphClass: 1
Flags: HW
LayerCount: 2
Fore
SplineSet
701 1432 m 0xd8
 946 1432 1087 1275 1037 1040 c 0
 998 858 861 706 632 603 c 1
 577 580 l 1
 527 344 l 1
 374 344 l 1
 446 684 l 1
 463 690 l 2
 562 722 752 823 795 1024 c 0
 823 1154 801 1276 616 1282 c 1
 495 1076 l 1
 482 1073 l 2
 476 1072 471 1072 466 1072 c 0
 464 1072 460 1071 452 1071 c 2
 446 1071 l 2
 380 1071 303 1100 326 1206 c 0
 355 1342 510 1432 701 1432 c 0xd8
433 252 m 0
 519 252 558 175 542 100 c 0
 524 14 444 -50 369 -50 c 0
 285 -50 245 24 262 102 c 0xe8
 281 192 359 252 433 252 c 0
EndSplineSet
EndChar

StartChar: at
Encoding: 35 64 35
Width: 1777
GlyphClass: 1
Flags: HW
LayerCount: 2
Fore
SplineSet
1188 897 m 0xbf
 1018 897 866 717 813 469 c 0
 782 321 822 273 897 273 c 0
 966 273 1039 334 1095 392 c 1
 1259 810 l 2
 1259 811 1260 813 1260 814 c 0
 1266 840 1240 897 1188 897 c 0xbf
1298 1440 m 0
 1679 1440 1922 1207 1828 764 c 0
 1735 329 1400 90 1198 90 c 0xdf
 1085 90 1054 151 1059 230 c 1
 979 165 871 92 773 92 c 0xbf
 616 92 542 236 588 451 c 0
 658 781 960 1033 1209 1033 c 0
 1267 1033 1324 1015 1379 983 c 1
 1418 1024 l 1
 1565 1024 l 1
 1535 958 l 1
 1292 385 l 2
 1282 364 1276 344 1272 326 c 0
 1261 272 1276 256 1313 256 c 0xdf
 1410 256 1621 447 1688 762 c 0
 1765 1124 1556 1300 1293 1300 c 0
 853 1300 499 948 409 526 c 0
 325 130 488 -186 901 -186 c 0
 982 -186 1144 -185 1424 -37 c 2
 1450 -23 l 1
 1468 -145 l 1
 1448 -155 l 2
 1094 -337 908 -338 823 -338 c 0
 408 -338 108 -29 218 489 c 0
 344 1084 833 1440 1298 1440 c 0
EndSplineSet
EndChar

StartChar: A
Encoding: 36 65 36
Width: 1375
GlyphClass: 1
Flags: HW
LayerCount: 2
Fore
SplineSet
1367 0 m 1
 867 0 l 1
 895 129 l 1
 1026 140 l 1
 1027 141 1028 144 1028 145 c 2
 975 483 l 1
 521 483 l 1
 330 150 l 1
 330 147 332 141 335 140 c 1
 466 129 l 1
 439 0 l 1
 9 0 l 1
 36 129 l 1
 158 154 l 1
 886 1407 l 1
 1082 1407 l 1
 1276 170 l 1
 1277 154 1276 152 1294 148 c 2
 1394 129 l 1
 1367 0 l 1
949 631 m 1
 871 1071 l 1
 607 631 l 1
 949 631 l 1
EndSplineSet
EndChar

StartChar: B
Encoding: 37 66 37
Width: 1242
GlyphClass: 1
Flags: HW
LayerCount: 2
Fore
SplineSet
1258 416 m 0x7a
 1187 83 872 0 620 0 c 2xba
 60 0 l 1
 79 88 l 1
 203 98 l 2
 221 99 225 114 226 118 c 2
 457 1208 l 2
 460 1220 454 1226 442 1228 c 2
 333 1286 l 1
 352 1374 l 1
 885 1374 l 2
 1257 1374 1355 1237 1311 1031 c 0x7c
 1283 899 1197 802 1051 741 c 1
 1186 713 1303 626 1258 416 c 0x7a
720 634 m 0
 680 634 613 626 570 623 c 1
 470 154 l 1
 506 151 537 150 564 150 c 0
 800 150 954 200 997 401 c 0
 1027 541 970 634 720 634 c 0
785 1230 m 0
 754 1230 722 1227 698 1225 c 1
 603 780 l 1
 606 780 l 1
 608 780 l 1
 609 780 l 2
 614 779 621 779 628 779 c 2
 649 779 l 2
 918 779 1010 874 1040 1017 c 0x3c
 1067 1145 1008 1230 785 1230 c 0
EndSplineSet
EndChar

StartChar: C
Encoding: 38 67 38
Width: 1283
GlyphClass: 1
Flags: HW
LayerCount: 2
Fore
SplineSet
1071 1242 m 0
 885 1242 581 1132 487 690 c 0
 436 451 465 130 861 130 c 0
 921 130 976 142 1023 163 c 1
 1036 168 1046 176 1051 187 c 2
 1150 429 l 1
 1302 429 l 1
 1223 57 l 1
 1209 50 l 2
 1157 24 952 -33 788 -33 c 0
 315 -33 139 315 219 690 c 0
 307 1102 644 1407 1096 1407 c 0
 1185 1407 1280 1391 1376 1360 c 1
 1492 1321 l 1
 1414 956 l 1
 1257 956 l 1
 1270 1163 l 2
 1270 1167 1270 1168 1269 1171 c 0
 1259 1202 1168 1242 1071 1242 c 0
EndSplineSet
EndChar

StartChar: D
Encoding: 39 68 39
Width: 1415
GlyphClass: 1
Flags: HW
LayerCount: 2
Fore
SplineSet
1219 661 m 0
 1284 966 1236 1226 824 1226 c 2
 702 1226 l 1
 462 98 l 1
 594 100 l 1
 901 103 1132 252 1219 661 c 0
1490 690 m 0
 1427 393 1202 0 616 0 c 2
 60 0 l 1
 79 88 l 1
 203 98 l 2
 224 100 227 117 227 118 c 2
 459 1208 l 2
 459 1209 463 1226 443 1228 c 2
 333 1286 l 1
 352 1374 l 1
 866 1374 l 2
 1329 1374 1588 1150 1490 690 c 0
EndSplineSet
EndChar

StartChar: E
Encoding: 40 69 40
Width: 1200
GlyphClass: 1
Flags: HW
LayerCount: 2
Fore
SplineSet
905 791 m 2x3480
 911 791 919 801 919 801 c 1
 920 803 l 1x36
 979 967 l 1
 1130 967 l 1
 1022 460 l 1
 871 460 l 1x35
 882 625 l 1
 882 627 l 2
 882 628 876 639 873 639 c 2
 589 639 l 1
 486 150 l 1
 978 150 l 2xb6
 980 150 984 155 986 157 c 0
 990 162 993 168 994 169 c 2
 1079 392 l 1
 1224 392 l 1
 1141 0 l 1x6640
 60 0 l 1
 88 131 l 1
 210 141 l 2
 232 143 235 159 235 160 c 2
 458 1214 l 2
 458 1215 462 1231 442 1233 c 2
 324 1243 l 1
 352 1374 l 1
 1370 1374 l 1x6c80
 1295 1019 l 1
 1138 1019 l 1
 1144 1208 l 2
 1145 1217 1139 1226 1135 1226 c 2
 714 1226 l 1
 622 791 l 1
 905 791 l 2x3480
EndSplineSet
EndChar

StartChar: F
Encoding: 41 70 41
Width: 1121
GlyphClass: 1
Flags: HW
LayerCount: 2
Fore
SplineSet
1122 999 m 1xed
 1137 1208 l 2
 1137 1225 1135 1224 1131 1224 c 2
 717 1224 l 1
 620 766 l 1
 912 766 l 2
 916 767 922 774 924 777 c 0
 925 778 927 781 928 782 c 2
 985 947 l 1
 1127 947 l 1
 1019 436 l 1
 876 436 l 1xf6
 889 600 l 2
 889 602 888 602 887 605 c 0
 886 608 883 616 880 616 c 2
 588 616 l 1
 482 119 l 2
 480 109 483 100 498 98 c 2
 658 88 l 1
 639 0 l 1
 62 0 l 1
 81 88 l 1
 205 98 l 2
 223 100 227 115 228 119 c 2
 469 1255 l 2
 472 1268 467 1274 455 1276 c 2
 320 1286 l 1
 338 1374 l 1
 1358 1374 l 1
 1278 999 l 1
 1122 999 l 1xed
EndSplineSet
EndChar

StartChar: G
Encoding: 42 71 42
Width: 1413
GlyphClass: 1
Flags: HW
LayerCount: 2
Fore
SplineSet
487 699 m 0xf4
 421 388 515 132 858 132 c 0
 915 132 992 150 1007 154 c 2
 1016 156 l 1
 1094 524 l 2
 1096 534 1096 539 1078 541 c 2
 923 552 l 1
 952 689 l 1
 1514 689 l 1
 1485 552 l 1
 1365 541 l 2
 1347 539 1344 533 1342 523 c 2
 1242 53 l 1xf8
 1226 47 l 2
 1072 -7 921 -33 781 -33 c 0
 321 -33 137 302 219 690 c 0
 317 1152 682 1407 1113 1407 c 0
 1205 1407 1306 1391 1413 1361 c 2
 1512 1331 l 1
 1432 956 l 1
 1271 956 l 1
 1278 1161 l 2
 1279 1176 1272 1185 1259 1191 c 2
 1227 1206 l 2
 1174 1230 1122 1242 1070 1242 c 0
 855 1242 575 1115 487 699 c 0xf4
EndSplineSet
EndChar

StartChar: H
Encoding: 43 72 43
Width: 1505
GlyphClass: 1
Flags: HW
LayerCount: 2
Fore
SplineSet
1446 0 m 1
 918 0 l 1
 945 131 l 1
 1078 140 l 2
 1089 141 1098 149 1100 160 c 2
 1203 645 l 1
 577 645 l 1
 473 160 l 2
 471 150 474 142 488 140 c 2
 616 131 l 1
 588 0 l 1
 60 0 l 1
 89 136 l 1
 211 146 l 2
 233 148 236 165 236 166 c 2
 468 1258 l 2
 470 1265 468 1275 451 1276 c 2
 333 1286 l 1
 352 1374 l 1
 880 1374 l 1
 862 1286 l 1
 729 1276 l 2
 713 1275 709 1265 707 1257 c 2
 609 797 l 1
 1236 797 l 1
 1333 1257 l 2
 1335 1267 1330 1275 1319 1276 c 2
 1191 1286 l 1
 1210 1374 l 1
 1738 1374 l 1
 1719 1286 l 1
 1597 1276 l 2
 1578 1274 1574 1261 1573 1258 c 2
 1341 166 l 2
 1341 165 1337 148 1357 146 c 2
 1475 136 l 1
 1446 0 l 1
EndSplineSet
EndChar

StartChar: I
Encoding: 44 73 44
Width: 672
GlyphClass: 1
Flags: W
HStem: 0 88<81 218 494 611> 1286 88<354 468 744 884>
LayerCount: 2
Fore
SplineSet
62 0 m 1
 81 88 l 1
 218 98 l 2
 236 100 240 115 241 119 c 2
 483 1257 l 2
 486 1272 474 1275 468 1276 c 2
 335 1286 l 1
 354 1374 l 1
 903 1374 l 1
 884 1286 l 1
 744 1276 l 2
 725 1274 722 1259 722 1257 c 2
 480 119 l 2
 479 115 477 100 494 98 c 2
 629 88 l 1
 611 0 l 1
 62 0 l 1
EndSplineSet
EndChar

StartChar: J
Encoding: 45 74 45
Width: 1014
GlyphClass: 1
Flags: HW
LayerCount: 2
Fore
SplineSet
326 -33 m 0
 222 -33 95 10 65 28 c 2
 54 35 l 1
 137 425 l 1
 294 425 l 1
 282 155 l 2
 281 128 311 122 344 122 c 0
 535 122 620 286 671 528 c 2
 826 1257 l 2
 829 1269 822 1275 809 1277 c 2
 654 1286 l 1
 673 1374 l 1
 1258 1374 l 1
 1240 1286 l 1
 1105 1276 l 2
 1094 1275 1086 1268 1083 1256 c 2
 931 542 l 2
 866 235 719 -33 326 -33 c 0
EndSplineSet
EndChar

StartChar: K
Encoding: 46 75 46
Width: 1307
GlyphClass: 1
Flags: HW
LayerCount: 2
Fore
SplineSet
927 0 m 1xb0
 943 77 l 1
 661 585 l 1
 564 585 l 1
 473 159 l 2
 473 158 470 142 490 140 c 2
 618 131 l 1
 590 0 l 1
 60 0 l 1
 88 131 l 1
 212 141 l 2
 230 142 234 156 235 160 c 2
 458 1214 l 2
 460 1226 456 1231 444 1233 c 2
 324 1243 l 1
 352 1374 l 1
 882 1374 l 1
 854 1243 l 1
 722 1233 l 2
 701 1231 698 1215 698 1214 c 2
 593 721 l 1
 627 721 l 1
 1186 1232 l 1
 1075 1243 l 1
 1103 1374 l 1xd0
 1553 1374 l 1
 1534 1287 l 1
 1513 1286 l 2
 1490 1284 1469 1282 1452 1279 c 2
 1407 1274 l 1
 1391 1272 l 1
 901 793 l 1
 1190 147 l 1
 1336 136 l 1
 1307 0 l 1
 927 0 l 1xb0
1193 1254 m 1
 1193 1258 1192 1256 1192 1254 c 1
 1193 1254 l 1
EndSplineSet
EndChar

StartChar: L
Encoding: 47 76 47
Width: 1102
GlyphClass: 1
Flags: HW
LayerCount: 2
Fore
SplineSet
50 0 m 1x78
 69 88 l 1x78
 203 98 l 2
 221 100 225 115 226 119 c 2
 468 1255 l 2
 471 1268 465 1274 453 1276 c 2
 323 1286 l 1
 342 1374 l 1
 875 1374 l 1
 856 1286 l 1
 731 1276 l 2
 710 1274 707 1257 707 1256 c 2
 472 150 l 1
 895 150 l 2xb8
 899 150 900 151 904 153 c 0
 907 154 907 156 908 156 c 0
 912 159 916 162 917 164 c 2
 1007 431 l 1
 1161 431 l 1
 1069 0 l 1
 50 0 l 1x78
EndSplineSet
EndChar

StartChar: M
Encoding: 48 77 48
Width: 1805
GlyphClass: 1
Flags: HW
LayerCount: 2
Fore
SplineSet
1748 0 m 1xe8
 1221 0 l 1
 1250 136 l 1
 1375 146 l 2
 1397 148 1399 165 1399 166 c 2xe8
 1563 1156 l 1
 919 0 l 1
 792 0 l 1
 603 1134 l 1
 397 166 l 2
 397 165 393 148 413 146 c 2
 541 136 l 1
 512 0 l 1
 54 0 l 1
 82 132 l 1
 214 141 l 2
 232 142 236 156 237 160 c 2
 460 1214 l 2
 462 1226 458 1231 446 1233 c 2
 318 1242 l 1
 346 1374 l 1
 819 1374 l 1
 803 1298 l 1
 972 360 l 1
 1492 1292 l 1
 1509 1374 l 1
 1994 1374 l 1
 1966 1243 l 1
 1839 1233 l 2
 1817 1231 1815 1215 1815 1214 c 2xf0
 1637 160 l 2
 1637 159 1633 143 1653 141 c 2
 1776 131 l 1
 1748 0 l 1xe8
EndSplineSet
EndChar

StartChar: N
Encoding: 49 78 49
Width: 1464
GlyphClass: 1
Flags: HW
LayerCount: 2
Fore
SplineSet
1554 1276 m 2
 1536 1275 1532 1260 1531 1256 c 2
 1264 0 l 1
 1079 0 l 1
 581 1041 l 1
 385 118 l 2
 383 108 385 100 399 98 c 2
 527 88 l 1
 509 0 l 1
 50 0 l 1
 69 88 l 1
 201 98 l 2
 222 100 226 118 226 119 c 2
 468 1255 l 2
 468 1256 472 1274 452 1276 c 2
 320 1286 l 1
 338 1374 l 1
 763 1374 l 1
 753 1330 l 1
 1190 399 l 1
 1372 1256 l 2
 1373 1260 1374 1274 1357 1276 c 2
 1229 1286 l 1
 1248 1374 l 1
 1702 1374 l 1
 1683 1286 l 1
 1554 1276 l 2
EndSplineSet
EndChar

StartChar: O
Encoding: 50 79 50
Width: 1482
GlyphClass: 1
Flags: W
HStem: -33 163<604.015 953.493> 1240 167<819.33 1169.61>
LayerCount: 2
Fore
SplineSet
486 688 m 0
 421 382 497 130 765 130 c 0
 1061 130 1230 419 1286 684 c 0
 1342 945 1300 1240 1006 1240 c 0
 709 1240 543 956 486 688 c 0
219 688 m 0
 306 1098 632 1407 1040 1407 c 0
 1448 1407 1640 1085 1555 686 c 0
 1471 290 1142 -33 735 -33 c 0
 327 -33 131 272 219 688 c 0
EndSplineSet
EndChar

StartChar: P
Encoding: 51 80 51
Width: 1193
GlyphClass: 1
Flags: HW
LayerCount: 2
Fore
SplineSet
1323 951 m 0xec
 1257 639 984 496 672 496 c 0
 669 496 666 496 663 496 c 0
 634 496 605 498 575 500 c 2
 548 501 l 1
 476 160 l 2
 474 150 476 143 490 141 c 2
 647 132 l 1
 619 0 l 1
 60 0 l 1
 88 131 l 1
 212 141 l 2
 234 143 237 159 237 160 c 2
 461 1214 l 2
 461 1215 465 1231 445 1233 c 2
 310 1242 l 1
 338 1374 l 1xdc
 817 1374 l 2
 1188 1374 1395 1289 1323 951 c 0xec
701 1222 m 1
 574 625 l 1
 595 622 622 616 656 616 c 2
 656 616 662 616 665 616 c 0
 883 616 1027 721 1072 933 c 0
 1121 1166 975 1224 775 1224 c 0xec
 752 1224 740 1223 715 1223 c 0
 711 1223 707 1222 701 1222 c 1
EndSplineSet
EndChar

StartChar: Q
Encoding: 52 81 52
Width: 1496
GlyphClass: 1
Flags: HW
LayerCount: 2
Fore
SplineSet
219 686 m 0
 305 1092 635 1407 1045 1407 c 0
 1459 1407 1659 1101 1571 686 c 0
 1489 302 1220 44 880 -18 c 1
 866 -127 906 -220 1089 -220 c 0
 1165 -220 1226 -213 1273 -199 c 2
 1305 -190 l 1
 1274 -336 l 1
 1253 -336 l 1
 1242 -338 1112 -371 952 -371 c 0
 657 -371 578 -227 614 -23 c 1
 283 35 140 314 219 686 c 0
1012 1242 m 0
 714 1242 548 962 490 690 c 0
 418 349 534 130 776 130 c 0
 1072 130 1241 422 1297 686 c 0
 1354 953 1309 1242 1012 1242 c 0
EndSplineSet
EndChar

StartChar: R
Encoding: 53 82 53
Width: 1327
GlyphClass: 1
Flags: HW
LayerCount: 2
Fore
SplineSet
1329 1000 m 0x36
 1288 808 1140 718 980 670 c 1
 1067 632 1134 560 1136 402 c 1
 1138 317 l 2
 1142 183 1196 136 1333 136 c 2
 1357 136 l 1xb6
 1327 -3 l 1x66
 1306 -6 l 2
 1287 -9 1233 -33 1172 -33 c 0
 1011 -33 907 28 888 243 c 2
 879 346 l 2
 864 526 783 587 627 587 c 0
 597 587 578 586 564 585 c 1
 473 159 l 2
 471 149 474 142 488 140 c 2
 608 131 l 1
 580 0 l 1
 60 0 l 1
 88 131 l 1
 210 141 l 2
 232 143 235 159 235 160 c 2
 458 1214 l 2
 458 1215 462 1231 442 1233 c 2
 324 1243 l 1
 352 1374 l 1xae
 872 1374 l 2
 1164 1374 1393 1299 1329 1000 c 0x36
596 737 m 1
 612 737 l 2
 635 737 652 736 668 736 c 0
 932 736 1017 837 1049 988 c 0
 1079 1130 1021 1224 764 1224 c 2
 700 1224 l 1
 596 737 l 1
EndSplineSet
EndChar

StartChar: S
Encoding: 54 83 54
Width: 1082
GlyphClass: 1
Flags: HW
LayerCount: 2
Fore
SplineSet
852 1246 m 0xd4
 689 1246 584 1152 560 1038 c 0xd4
 534 917 637 861 784 801 c 1
 890 756 l 1
 1100 655 1120 518 1093 393 c 0
 1055 214 884 -33 442 -33 c 0
 286 -33 179 -3 96 45 c 2
 84 52 l 1
 170 456 l 1
 334 456 l 1
 307 202 l 1
 304 161 417 132 511 132 c 0
 689 132 813 216 840 341 c 0xe8
 857 419 803 495 654 566 c 1
 543 620 l 2
 413 686 256 769 305 997 c 0
 357 1243 587 1407 883 1407 c 0
 981 1407 1078 1391 1167 1359 c 1
 1245 1330 l 1
 1168 968 l 1
 1016 968 l 1
 1030 1185 l 2
 1030 1188 1029 1188 1028 1190 c 0
 1017 1215 946 1246 852 1246 c 0xd4
EndSplineSet
EndChar

StartChar: T
Encoding: 55 84 55
Width: 1232
GlyphClass: 1
Flags: HW
LayerCount: 2
Fore
SplineSet
1259 997 m 1xdc
 1274 1209 l 2
 1274 1223 1272 1224 1269 1224 c 2
 1004 1224 l 1
 769 117 l 2
 767 107 770 99 785 97 c 2
 936 88 l 1
 917 0 l 1
 316 0 l 1
 334 88 l 1
 490 97 l 2
 509 98 513 113 514 117 c 2
 749 1224 l 1
 483 1224 l 2xbc
 479 1224 474 1222 470 1211 c 2
 396 997 l 1
 242 997 l 1
 322 1374 l 1
 1495 1374 l 1
 1415 997 l 1
 1259 997 l 1xdc
EndSplineSet
EndChar

StartChar: U
Encoding: 56 85 56
Width: 1446
GlyphClass: 1
Flags: HW
LayerCount: 2
Fore
SplineSet
553 532 m 2
 498 272 544 154 794 154 c 0
 999 154 1137 234 1200 532 c 2
 1354 1256 l 2
 1354 1257 1358 1274 1338 1276 c 2
 1210 1286 l 1
 1228 1374 l 1
 1689 1374 l 1
 1670 1286 l 1
 1536 1276 l 2
 1518 1275 1514 1260 1513 1256 c 2
 1348 479 l 2
 1292 216 1136 -33 695 -33 c 0
 353 -33 230 145 301 479 c 2
 466 1256 l 2
 469 1268 463 1274 451 1276 c 2
 331 1286 l 1
 349 1374 l 1
 880 1374 l 1
 862 1286 l 1
 729 1276 l 2
 711 1275 708 1260 707 1256 c 2
 553 532 l 2
EndSplineSet
EndChar

StartChar: V
Encoding: 57 86 57
Width: 1360
GlyphClass: 1
Flags: HW
LayerCount: 2
Fore
SplineSet
1606 1245 m 1
 1486 1222 l 1
 775 -33 l 1
 574 -33 l 1
 397 1224 l 1
 283 1244 l 1
 310 1374 l 1
 812 1374 l 1
 784 1238 l 1
 652 1227 l 1
 651 1226 650 1223 650 1222 c 2
 786 278 l 1
 1307 1217 l 2
 1307 1219 1304 1225 1302 1226 c 2
 1180 1238 l 1
 1209 1374 l 1
 1634 1374 l 1
 1606 1245 l 1
EndSplineSet
EndChar

StartChar: W
Encoding: 58 87 58
Width: 1912
GlyphClass: 1
Flags: HW
LayerCount: 2
Fore
SplineSet
2158 1245 m 1
 2032 1221 l 1
 1474 -33 l 1
 1277 -33 l 1
 1180 1040 l 1
 626 -33 l 1
 438 -33 l 1
 393 1221 l 1
 283 1245 l 1
 310 1374 l 1
 793 1374 l 1
 764 1238 l 1
 628 1224 l 1
 627 1223 627 1221 626 1218 c 0
 626 1216 625 1216 625 1214 c 2
 662 376 l 1
 1191 1374 l 1
 1373 1374 l 1
 1482 347 l 1
 1863 1213 l 2
 1864 1214 l 0
 1864 1214 1864 1214 1864 1215 c 0
 1865 1222 1860 1224 1858 1224 c 2
 1721 1238 l 1
 1750 1374 l 1
 2185 1374 l 1
 2158 1245 l 1
EndSplineSet
EndChar

StartChar: X
Encoding: 59 88 59
Width: 1299
GlyphClass: 1
Flags: HW
LayerCount: 2
Fore
SplineSet
1281 0 m 1
 729 0 l 1
 758 136 l 1
 908 150 l 2
 909 150 914 151 915 153 c 0
 915 154 l 2
 915 154 917 150 915 155 c 2
 726 552 l 1
 360 149 l 1
 361 149 363 148 365 148 c 2
 498 136 l 1
 469 0 l 1
 18 0 l 1
 46 129 l 1
 175 155 l 1
 655 679 l 1
 437 1220 l 1
 308 1245 l 1
 335 1374 l 1
 860 1374 l 1
 831 1238 l 1
 711 1226 l 2
 707 1225 705 1224 704 1224 c 1
 863 869 l 1
 1199 1217 l 2
 1200 1218 1201 1219 1201 1220 c 0
 1201 1220 1200 1222 1197 1222 c 2
 1082 1239 l 1
 1111 1374 l 1
 1556 1374 l 1
 1529 1244 l 1
 1392 1223 l 1
 945 740 l 1
 1187 155 l 1
 1309 129 l 1
 1281 0 l 1
EndSplineSet
EndChar

StartChar: Y
Encoding: 60 89 60
Width: 1284
GlyphClass: 1
Flags: HW
LayerCount: 2
Fore
SplineSet
1414 1224 m 1
 894 581 l 1
 805 160 l 2
 804 156 803 143 823 141 c 2
 970 132 l 1
 942 0 l 1
 334 0 l 1
 362 132 l 1
 504 141 l 2
 525 143 528 159 528 160 c 2
 612 551 l 1
 396 1220 l 1
 283 1245 l 1
 310 1374 l 1
 809 1374 l 1
 780 1238 l 1
 661 1226 l 2
 659 1225 657 1225 655 1224 c 0
 655 1222 l 2
 821 726 l 1
 1224 1217 l 2
 1224 1217 1225 1218 1225 1219 c 0
 1225 1220 1223 1222 1220 1222 c 2
 1096 1239 l 1
 1125 1374 l 1
 1558 1374 l 1
 1531 1245 l 1
 1414 1224 l 1
EndSplineSet
EndChar

StartChar: Z
Encoding: 61 90 61
Width: 1185
GlyphClass: 1
Flags: HW
LayerCount: 2
Fore
SplineSet
73 0 m 1
 98 118 l 1
 1062 1222 l 1
 569 1222 l 2
 566 1222 562 1221 556 1207 c 1
 480 997 l 1
 325 997 l 1
 405 1374 l 1
 1394 1374 l 1
 1369 1253 l 1
 404 154 l 1
 944 154 l 2
 948 154 951 153 958 170 c 2
 1048 429 l 1
 1204 429 l 1
 1113 0 l 1
 73 0 l 1
EndSplineSet
EndChar

StartChar: bracketleft
Encoding: 62 91 62
Width: 798
GlyphClass: 1
Flags: HW
LayerCount: 2
Fore
SplineSet
168 -295 m 1
 545 1475 l 1
 1053 1475 l 1
 1023 1333 l 1
 727 1333 l 1
 411 -151 l 1
 708 -151 l 1
 677 -295 l 1
 168 -295 l 1
EndSplineSet
EndChar

StartChar: backslash
Encoding: 63 92 63
Width: 932
GlyphClass: 1
Flags: HW
LayerCount: 2
Fore
SplineSet
751 -215 m 1
 259 1399 l 1
 434 1399 l 1
 926 -215 l 1
 751 -215 l 1
EndSplineSet
EndChar

StartChar: bracketright
Encoding: 64 93 64
Width: 799
GlyphClass: 1
Flags: HW
LayerCount: 2
Fore
SplineSet
-4 -295 m 1
 27 -151 l 1
 327 -151 l 1
 642 1333 l 1
 342 1333 l 1
 373 1475 l 1
 884 1475 l 1
 508 -295 l 1
 -4 -295 l 1
EndSplineSet
EndChar

StartChar: asciicircum
Encoding: 65 94 65
Width: 625
GlyphClass: 1
Flags: HW
LayerCount: 2
Fore
SplineSet
589 1296 m 1
 359 1103 l 1
 189 1103 l 1
 548 1500 l 1
 715 1500 l 1
 905 1103 l 1
 735 1103 l 1
 589 1296 l 1
EndSplineSet
EndChar

StartChar: underscore
Encoding: 66 95 66
Width: 638
GlyphClass: 1
Flags: HW
LayerCount: 2
Fore
SplineSet
-93 -330 m 1
 -55 -150 l 1
 630 -150 l 1
 592 -330 l 1
 -93 -330 l 1
EndSplineSet
EndChar

StartChar: grave
Encoding: 67 96 67
Width: 663
GlyphClass: 1
Flags: HW
LayerCount: 2
Fore
SplineSet
412 1526 m 0
 489 1526 507 1478 516 1462 c 2
 727 1103 l 1
 561 1103 l 1
 309 1306 l 2
 267 1340 272 1386 277 1409 c 0
 288 1459 328 1526 412 1526 c 0
EndSplineSet
EndChar

StartChar: a
Encoding: 68 97 68
Width: 1002
GlyphClass: 1
Flags: HW
LayerCount: 2
Fore
SplineSet
345 280 m 0xba
 331 215 357 146 439 146 c 0
 519 146 630 203 671 225 c 1
 731 509 l 1
 424 433 364 372 345 280 c 0xba
253 708 m 0xb6
 285 861 470 963 724 963 c 0
 950 963 1031 867 988 666 c 2
 879 153 l 2
 877 146 878 137 893 135 c 1
 996 129 l 1
 968 0 l 1
 655 0 l 1x76
 654 103 l 1
 578 55 434 -25 313 -25 c 0
 182 -25 73 61 113 247 c 0xba
 144 392 234 498 751 602 c 1
 764 661 l 2
 790 784 731 816 640 816 c 0
 599 816 560 810 524 799 c 1
 487 628 l 1
 326 628 l 2
 309 629 288 630 271 642 c 0
 268 645 252 656 251 684 c 0
 251 692 251 700 253 708 c 0xb6
EndSplineSet
EndChar

StartChar: b
Encoding: 69 98 69
Width: 1080
GlyphClass: 1
Flags: HW
LayerCount: 2
Fore
SplineSet
1125 513 m 0
 1074 274 900 0 437 0 c 2
 158 0 l 1
 432 1292 l 1
 300 1292 l 1
 326 1415 l 1
 597 1509 l 1
 704 1509 l 1
 575 900 l 1
 587 905 l 2
 680 946 761 963 830 963 c 0
 1097 963 1174 744 1125 513 c 0
886 474 m 0
 919 628 900 792 686 792 c 0
 658 792 614 787 547 769 c 1
 403 147 l 1
 406 147 410 147 413 147 c 0
 418 147 424 146 439 146 c 2
 467 146 l 2
 745 146 845 284 886 474 c 0
EndSplineSet
EndChar

StartChar: c
Encoding: 70 99 70
Width: 927
GlyphClass: 1
Flags: HW
LayerCount: 2
Fore
SplineSet
397 489 m 0
 369 357 387 154 635 154 c 0
 728 154 812 193 877 233 c 2
 916 257 l 1
 880 85 l 1
 795 43 l 2
 705 -1 612 -25 517 -25 c 0
 230 -25 98 175 159 463 c 0
 226 780 470 963 751 963 c 0
 948 963 1044 875 1016 743 c 0
 998 659 930 603 857 603 c 0
 823 603 792 616 759 639 c 2
 748 646 l 1
 783 811 l 1
 763 822 744 827 727 827 c 0
 572 827 441 695 397 489 c 0
EndSplineSet
EndChar

StartChar: d
Encoding: 71 100 71
Width: 1096
GlyphClass: 1
Flags: HW
LayerCount: 2
Fore
SplineSet
387 479 m 0xbe
 345 283 423 165 573 165 c 0
 622 165 683 182 757 217 c 1
 879 793 l 1
 830 807 785 814 745 814 c 0
 573 814 432 689 387 479 c 0xbe
155 445 m 0
 213 716 428 963 762 963 c 0
 811 963 860 956 911 944 c 1
 987 1301 l 1
 843 1301 l 1
 867 1413 l 1
 1157 1509 l 1
 1255 1509 l 1
 967 155 l 2
 965 144 964 138 980 136 c 2
 1073 128 l 1
 1046 0 l 1
 710 0 l 1x7e
 728 85 l 1
 581 -9 487 -25 430 -25 c 0
 162 -25 108 225 155 445 c 0
EndSplineSet
EndChar

StartChar: e
Encoding: 72 101 72
Width: 968
GlyphClass: 1
Flags: HW
LayerCount: 2
Fore
SplineSet
384 479 m 1
 357 326 385 150 621 150 c 0
 681 150 775 171 925 262 c 2
 963 286 l 1
 926 113 l 1
 915 106 l 2
 776 19 646 -25 518 -25 c 0
 252 -25 92 148 158 459 c 0
 221 755 441 963 732 963 c 0
 1032 963 1057 729 1020 555 c 2
 1015 530 l 2
 1013 519 1010 508 1007 500 c 2
 1000 479 l 1
 384 479 l 1
810 637 m 2
 826 713 815 812 681 812 c 0
 559 812 466 731 426 621 c 1
 807 621 l 1
 810 637 l 2
EndSplineSet
EndChar

StartChar: f
Encoding: 73 102 73
Width: 646
GlyphClass: 1
Flags: W
HStem: -446 21G<-169 -30.5> 816 155<612 819> 816 116<257 303.883> 1489 20G<833.5 972>
DStem2: 168 -14 426 94 0.208918 0.977933<-107.447 848.663 1056.02 1272.11>
LayerCount: 2
Fore
SplineSet
378 969 m 1xb0
 469 1366 747 1509 920 1509 c 0
 1024 1509 1082 1450 1063 1361 c 0
 1045 1275 974 1233 936 1226 c 2
 924 1224 l 1
 918 1233 l 2
 917 1234 912 1241 910 1243 c 2
 790 1352 l 1
 788 1354 l 1
 707 1306 661 1201 635 1077 c 2
 612 971 l 1
 852 971 l 1
 819 816 l 1xd0
 579 816 l 1
 426 94 l 2
 335 -303 56 -446 -117 -446 c 0
 -221 -446 -279 -387 -260 -298 c 0
 -242 -212 -170 -170 -132 -163 c 2
 -121 -161 l 1
 -115 -170 l 2
 -114 -171 -108 -178 -106 -180 c 2
 13 -289 l 1
 15 -291 l 1
 96 -243 142 -138 168 -14 c 2
 345 816 l 1
 233 816 l 1
 257 932 l 1
 378 969 l 1xb0
EndSplineSet
EndChar

StartChar: g
Encoding: 74 103 74
Width: 1033
GlyphClass: 1
Flags: HW
LayerCount: 2
Fore
SplineSet
378 316 m 1xe9
 281 354 196 448 231 615 c 0
 278 834 463 963 705 963 c 0xd4
 768 963 830 948 889 919 c 2
 924 901 l 1
 1190 901 l 1
 1159 758 l 1
 995 758 l 1
 1007 711 1009 663 998 613 c 0xe6
 958 425 764 291 532 291 c 0
 523 291 514 292 505 292 c 1
 496 277 486 255 480 226 c 0
 479 220 478 215 477 211 c 1
 559 203 l 2
 841 174 971 87 937 -73 c 0
 896 -267 640 -469 334 -469 c 0
 93 -469 -11 -340 26 -164 c 0
 63 8 197 64 263 82 c 1
 260 102 261 125 267 151 c 0
 280 214 329 272 378 316 c 1xe9
659 829 m 0
 562 829 482 747 453 611 c 0
 427 487 464 395 566 395 c 0
 665 395 741 489 767 613 c 0xd6
 792 733 755 829 659 829 c 0
402 36 m 1
 304 2 256 -60 243 -122 c 0
 228 -193 261 -325 429 -325 c 0
 606 -325 706 -201 723 -122 c 0xc9
 734 -71 713 -10 542 15 c 2
 462 26 l 2
 435 29 416 33 402 36 c 1
EndSplineSet
EndChar

StartChar: h
Encoding: 75 104 75
Width: 1106
GlyphClass: 1
Flags: HW
LayerCount: 2
Fore
SplineSet
554 854 m 1x7c
 623 893 787 963 892 963 c 0
 1006 963 1141 897 1091 663 c 2
 1005 261 l 2
 998 230 989 159 988 143 c 1
 989 127 1005 112 1021 112 c 0
 1047 112 1085 146 1126 208 c 1
 1171 274 l 1
 1210 247 l 1
 1088 43 1017 -21 906 -21 c 0xbc
 748 -21 770 137 795 253 c 2
 870 607 l 2
 897 732 839 763 731 763 c 0
 638 763 577 744 525 720 c 1
 372 0 l 1
 158 0 l 1
 432 1292 l 1
 302 1292 l 1
 328 1415 l 1
 594 1509 l 1
 693 1509 l 1
 554 854 l 1x7c
EndSplineSet
EndChar

StartChar: i
Encoding: 76 105 76
Width: 580
GlyphClass: 1
Flags: W
HStem: -21 133<269 475.962> 826 133<303.038 509> 1148 302<505.331 650.067>
VStem: 443 268<1211.18 1387.24>
DStem2: 236 254 452 261 0.194132 0.980975<-69.4709 550.694>
LayerCount: 2
Fore
SplineSet
452 261 m 2
 445 230 436 159 435 143 c 1
 436 127 452 112 468 112 c 0
 494 112 533 146 574 208 c 1
 619 275 l 1
 658 248 l 1
 535 43 462 -21 349 -21 c 0
 189 -21 211 138 236 254 c 2
 326 676 l 1
 333 707 342 779 343 795 c 1
 342 811 327 826 311 826 c 0
 285 826 246 791 205 729 c 1
 160 663 l 1
 121 689 l 1
 244 894 316 959 429 959 c 0
 589 959 567 800 542 684 c 0
 452 261 l 2
443 1300 m 0
 459 1377 529 1450 610 1450 c 0
 690 1450 728 1380 711 1300 c 0
 692 1209 615 1148 546 1148 c 0
 466 1148 426 1221 443 1300 c 0
EndSplineSet
EndChar

StartChar: j
Encoding: 77 106 77
Width: 564
GlyphClass: 1
Flags: HW
LayerCount: 2
Fore
SplineSet
-82 -469 m 0xd0
 -145 -469 -234 -442 -211 -336 c 0
 -194 -254 -135 -216 -93 -200 c 2
 -82 -196 l 1
 58 -325 l 1
 102 -291 147 -205 183 -35 c 2
 334 673 l 1
 341 704 350 777 351 793 c 1
 350 809 334 825 318 825 c 0
 292 825 253 789 211 725 c 1
 166 658 l 1
 127 685 l 1
 251 893 324 959 437 959 c 0
 598 959 573 794 548 674 c 1
 429 115 l 2
 378 -125 309 -276 168 -379 c 0
 83 -443 -10 -469 -82 -469 c 0xd0
432 1300 m 0xe0
 451 1390 530 1450 599 1450 c 0
 679 1450 718 1380 701 1300 c 0
 682 1209 604 1148 535 1148 c 0
 468 1148 412 1207 432 1300 c 0xe0
EndSplineSet
EndChar

StartChar: k
Encoding: 78 107 78
Width: 1031
GlyphClass: 1
Flags: W
HStem: 0 121<938 1012> 816 122<1009 1135> 856 82<748 840> 1489 20G<536.191 693>
DStem2: 158 0 372 0 0.208068 0.978114<44.5266 472.875 577.22 1321.92>
LayerCount: 2
Fore
SplineSet
688 0 m 1xd0
 708 92 l 1
 526 419 l 1
 461 419 l 1
 372 0 l 1
 158 0 l 1
 433 1293 l 1
 300 1293 l 1
 326 1415 l 1
 593 1509 l 1
 693 1509 l 1
 483 521 l 1
 487 521 l 1
 840 850 l 1
 731 856 l 1
 748 938 l 1
 1160 938 l 1xb0
 1135 816 l 1
 1009 803 l 1
 726 565 l 1
 938 133 l 1
 1037 121 l 1
 1012 0 l 1
 688 0 l 1xd0
EndSplineSet
EndChar

StartChar: l
Encoding: 79 108 79
Width: 581
GlyphClass: 1
Flags: W
HStem: 0 136<75 212.001 424.536 529> 1312 112<348 392.695> 1489 20G<550.647 714>
VStem: 48 666
DStem2: 212 153 415 103 0.208009 0.978127<0 1184.82>
LayerCount: 2
Fore
SplineSet
191 136 m 2
 193 136 195 137 198 139 c 0
 202 141 206 145 209 148 c 0
 213 153 212 153 212 153 c 2
 458 1312 l 1
 325 1312 l 1
 348 1424 l 1
 613 1509 l 1
 714 1509 l 1
 415 103 l 2
 415 99 416 96 418 93 c 0
 419 91 421 89 423 88 c 0
 440 147 437 136 438 136 c 2
 557 129 l 1
 529 0 l 1
 48 0 l 1
 75 129 l 1
 191 136 l 2
EndSplineSet
EndChar

StartChar: m
Encoding: 80 109 80
Width: 1640
GlyphClass: 1
Flags: W
HStem: -22 133<1361 1561.48> 0 21G<158 376.25 714 932.244> 754 104<219 264.158> 763 200<690.499 919.093 1247.98 1516.06> 918 20G<408 572>
DStem2: 158 0 372 0 0.208532 0.978016<44.6259 770.789> 714 0 928 0 0.207583 0.978217<44.4227 743.921> 1329 253 1538 261 0.206506 0.978445<-68.3801 477.957>
LayerCount: 2
Fore
SplineSet
888 963 m 0x10
 999 963 1045 884 1063 830 c 1
 1116 862 l 2
 1116 862 1313 963 1436 963 c 0
 1634 963 1652 799 1622 659 c 2
 1538 261 l 2
 1531 230 1521 158 1520 142 c 1
 1521 127 1537 111 1553 111 c 0
 1578 111 1618 145 1658 206 c 1
 1703 272 l 1
 1742 246 l 1
 1621 43 1549 -22 1439 -22 c 0x90
 1283 -22 1304 136 1329 253 c 2
 1403 601 l 2
 1430 728 1383 763 1288 763 c 0
 1206 763 1146 749 1081 721 c 1
 928 0 l 1
 714 0 l 1
 844 613 l 2
 868 727 823 763 731 763 c 0x50
 637 763 567 739 525 720 c 1
 372 0 l 1
 158 0 l 1
 318 754 l 1
 197 754 l 1
 219 858 l 1
 471 938 l 1
 572 938 l 1x68
 554 855 l 1
 672 924 815 963 888 963 c 0x10
EndSplineSet
EndChar

StartChar: n
Encoding: 81 110 81
Width: 1092
GlyphClass: 1
Flags: HW
LayerCount: 2
Fore
SplineSet
868 611 m 2xac
 888 703 871 763 735 763 c 0xac
 657 763 593 749 525 720 c 1
 372 0 l 1
 158 0 l 1
 318 754 l 1
 196 754 l 1
 218 858 l 1
 471 938 l 1
 572 938 l 1x5c
 553 853 l 1
 603 880 l 1
 715 934 830 963 892 963 c 0
 1096 963 1117 802 1086 657 c 2
 1002 261 l 2
 995 230 986 159 985 143 c 1
 986 127 1001 112 1017 112 c 0
 1043 112 1082 146 1123 208 c 1
 1168 274 l 1
 1207 247 l 1
 1085 43 1013 -21 902 -21 c 0
 744 -21 767 137 792 253 c 2
 868 611 l 2xac
EndSplineSet
EndChar

StartChar: o
Encoding: 82 111 82
Width: 1063
GlyphClass: 1
Flags: W
HStem: -25 143<444.178 689.517> 821 142<569.256 814.905>
LayerCount: 2
Fore
SplineSet
398 469 m 0
 353 258 415 118 554 118 c 0
 740 118 834 335 862 469 c 0
 908 685 844 821 705 821 c 0
 519 821 428 609 398 469 c 0
160 467 m 0
 221 755 446 963 737 963 c 0
 1023 963 1159 759 1097 467 c 0
 1036 180 811 -25 522 -25 c 0
 235 -25 97 173 160 467 c 0
EndSplineSet
EndChar

StartChar: p
Encoding: 83 112 83
Width: 1132
GlyphClass: 1
Flags: HW
LayerCount: 2
Fore
SplineSet
935 453 m 0xd3
 960 569 953 769 755 769 c 0
 704 769 642 754 570 723 c 1xd5
 423 141 l 1
 469 127 514 120 560 120 c 0
 773 120 899 285 935 453 c 0xd3
600 860 m 1
 678 908 789 963 895 963 c 0xd5
 1128 963 1226 749 1169 482 c 0
 1102 169 880 -25 547 -25 c 0
 497 -25 445 -20 391 -11 c 1
 298 -446 l 1
 63 -446 l 1
 317 750 l 1xe3
 197 750 l 1
 219 856 l 1
 519 938 l 1
 616 938 l 1xed
 600 860 l 1
EndSplineSet
EndChar

StartChar: q
Encoding: 84 113 84
Width: 1076
GlyphClass: 1
Flags: HW
LayerCount: 2
Fore
SplineSet
391 478 m 0
 362 341 373 146 585 146 c 0
 625 146 674 153 730 167 c 1
 875 850 l 1
 852 841 l 2
 815 827 795 819 760 819 c 0
 554 819 432 672 391 478 c 0
156 447 m 0
 227 783 486 963 832 963 c 0
 922 963 1012 951 1098 929 c 2
 1114 925 l 1
 823 -446 l 1
 599 -446 l 1
 703 41 l 1
 634 12 525 -25 442 -25 c 0
 204 -25 98 174 156 447 c 0
EndSplineSet
EndChar

StartChar: r
Encoding: 85 114 85
Width: 826
GlyphClass: 1
Flags: HW
LayerCount: 2
Fore
SplineSet
882 963 m 0xc8
 921 963 959 952 992 929 c 2
 1002 922 l 1
 951 683 l 1
 852 683 l 1
 847 691 l 2
 831 718 809 735 778 735 c 0xc8
 731 735 657 707 561 639 c 1
 458 152 l 2
 456 142 456 137 477 135 c 1
 648 129 l 1
 620 0 l 1
 44 0 l 1
 71 126 l 1
 178 135 l 1
 196 138 199 149 200 152 c 2
 327 753 l 1
 201 753 l 1
 223 858 l 1
 524 938 l 1
 625 938 l 1xb8
 594 796 l 1
 607 806 l 2
 721 899 821 963 882 963 c 0xc8
EndSplineSet
EndChar

StartChar: s
Encoding: 86 115 86
Width: 806
GlyphClass: 1
Flags: HW
LayerCount: 2
Fore
SplineSet
653 963 m 0xd8
 762 963 858 936 895 913 c 2
 906 906 l 1
 849 636 l 1
 711 636 l 1
 727 780 l 1
 710 794 668 814 604 814 c 0
 477 814 444 754 435 714 c 0xd4
 397 535 859 560 801 285 c 0
 755 67 566 -25 338 -25 c 0
 233 -25 151 -7 80 29 c 2
 68 35 l 1
 132 334 l 1
 266 334 l 1xe8
 253 162 l 1
 292 132 340 118 397 118 c 0
 515 118 575 183 586 236 c 0
 598 292 574 329 481 372 c 2
 382 418 l 1
 231 500 194 570 216 673 c 0
 259 874 432 963 653 963 c 0xd8
EndSplineSet
EndChar

StartChar: t
Encoding: 87 116 87
Width: 693
GlyphClass: 1
Flags: HW
LayerCount: 2
Fore
SplineSet
471 312 m 2
 442 173 495 140 567 140 c 0
 611 140 651 153 684 170 c 2
 719 188 l 1
 690 52 l 1
 676 46 l 2
 584 0 496 -25 398 -25 c 0
 221 -25 170 46 203 202 c 2
 327 786 l 1
 215 786 l 1
 237 894 l 1
 378 967 l 1
 520 1235 l 1
 667 1235 l 1
 604 938 l 1
 864 938 l 1
 832 786 l 1
 571 786 l 1
 471 312 l 2
EndSplineSet
EndChar

StartChar: u
Encoding: 88 117 88
Width: 1097
GlyphClass: 1
Flags: HW
LayerCount: 2
Fore
SplineSet
452 348 m 2xac
 422 205 478 165 575 165 c 0xac
 630 165 694 179 769 210 c 1
 923 938 l 1
 1146 938 l 1
 979 153 l 2
 979 151 976 140 990 136 c 0
 991 136 991 135 994 135 c 2
 1089 128 l 1
 1062 0 l 1
 724 0 l 1x5c
 744 92 l 1
 592 -7 494 -25 435 -25 c 0
 266 -25 173 66 222 297 c 2
 302 674 l 1
 308 703 317 774 317 789 c 1
 316 805 301 820 285 820 c 0
 258 820 218 783 174 717 c 1
 133 658 l 1
 92 685 l 1
 218 894 291 959 406 959 c 0
 574 959 546 794 523 685 c 0
 452 348 l 2xac
EndSplineSet
EndChar

StartChar: v
Encoding: 89 118 89
Width: 1002
GlyphClass: 1
Flags: HW
LayerCount: 2
Fore
SplineSet
919 799 m 2xc0
 976 893 l 0
 1004 939 1042 963 1084 963 c 0
 1162 963 1200 899 1222 728 c 1
 1193 706 l 1
 1162 825 l 2
 1154 852 1130 869 1116 869 c 0xa0
 1103 869 1091 849 1083 836 c 0
 1066 808 l 1
 572 0 l 1
 402 0 l 1
 290 806 l 1
 291 799 l 0
 289 814 277 829 262 829 c 0
 237 829 199 795 159 735 c 1
 112 665 l 1
 74 691 l 1
 194 894 263 959 371 959 c 0
 452 959 491 917 496 857 c 0
 504 798 l 2
 582 246 l 1
 919 799 l 2xc0
EndSplineSet
EndChar

StartChar: w
Encoding: 90 119 90
Width: 1490
GlyphClass: 1
Flags: HW
LayerCount: 2
Fore
SplineSet
1407 797 m 2x90
 1456 882 l 0
 1485 934 1528 962 1574 962 c 0
 1653 962 1694 899 1717 726 c 1
 1686 704 l 1
 1656 820 l 2
 1648 849 1623 867 1608 867 c 0xa0
 1594 867 1583 848 1575 834 c 0
 1557 802 l 1
 1103 0 l 1
 948 0 l 1
 899 672 l 1
 498 0 l 1
 342 0 l 1
 288 800 l 1
 288 806 l 0
 287 821 274 838 259 838 c 0
 237 838 200 808 165 755 c 2
 109 674 l 1
 76 700 l 1
 190 896 260 960 361 960 c 0xc0
 440 960 475 913 479 846 c 0
 517 264 l 1
 911 938 l 1
 1067 938 l 1
 1110 265 l 1
 1407 797 l 2x90
EndSplineSet
EndChar

StartChar: x
Encoding: 91 120 91
Width: 975
GlyphClass: 1
Flags: W
HStem: -24 107<57.7558 147.442> 0 121<889.471 960> 0 88<559 639> 799 139<542.001 626> 817 121<225 291.076 560.692 626 778 824.367 1018.77 1109>
VStem: -11 37<189.759 231.912>
LayerCount: 2
Fore
SplineSet
960 0 m 1x4c
 541 0 l 1
 559 81 l 1
 638 88 l 1
 639 88 l 2
 638 88 l 2x24
 529 306 l 1
 244 16 l 1
 218 -12 182 -24 144 -24 c 0
 56 -24 15 41 -11 223 c 1
 26 246 l 1
 52 144 l 2
 62 105 86 83 104 83 c 0
 115 83 122 100 132 110 c 1
 459 455 l 1
 308 800 l 1
 200 817 l 1
 225 938 l 1
 653 938 l 1x8c
 626 811 l 1
 544 799 l 2x14
 543 799 542 798 542 798 c 2
 643 613 l 1
 838 800 l 1
 751 811 l 1
 778 938 l 1
 1135 938 l 1
 1109 817 l 1
 1002 800 l 1
 720 508 l 1
 885 136 l 1
 986 121 l 1
 960 0 l 1x4c
547 822 m 2
 547 822 l 2
EndSplineSet
EndChar

StartChar: y
Encoding: 92 121 92
Width: 1008
GlyphClass: 1
Flags: HW
LayerCount: 2
Fore
SplineSet
93 -469 m 0x80
 -27 -469 -38 -378 -28 -332 c 0
 -16 -277 18 -232 65 -195 c 2
 78 -186 l 1
 222 -269 l 1
 292 -200 376 -65 409 -3 c 1
 290 803 l 1
 291 792 l 0
 289 807 277 823 262 823 c 0
 236 823 196 787 153 720 c 1
 110 655 l 1
 70 682 l 1
 194 893 266 959 378 959 c 0x40
 463 959 501 915 510 855 c 0
 595 266 l 1
 917 792 l 2
 918 793 919 794 919 795 c 2
 919 795 918 792 919 796 c 0
 919 797 920 801 913 802 c 2
 812 809 l 1
 840 938 l 1
 1195 938 l 1
 1169 816 l 1
 1068 804 l 1
 487 -128 l 1
 275 -457 156 -469 93 -469 c 0x80
EndSplineSet
EndChar

StartChar: z
Encoding: 93 122 93
Width: 912
GlyphClass: 1
Flags: HW
LayerCount: 2
Fore
SplineSet
61 0 m 1
 89 134 l 1
 710 792 l 1
 415 792 l 2
 413 792 409 788 407 786 c 0
 404 783 399 778 396 771 c 2
 343 611 l 1
 207 611 l 1
 277 938 l 1
 1021 938 l 1
 997 827 l 1
 350 148 l 1
 700 148 l 2
 700 148 718 159 723 173 c 2
 780 344 l 1
 920 344 l 1
 847 0 l 1
 61 0 l 1
EndSplineSet
EndChar

StartChar: braceleft
Encoding: 94 123 94
Width: 924
GlyphClass: 1
Flags: HW
CounterMasks: 1 e0
LayerCount: 2
Fore
SplineSet
510 596 m 1
 676 523 659 374 621 197 c 0
 565 -67 554 -143 766 -143 c 2
 789 -143 l 1
 760 -277 l 1
 737 -277 l 2
 453 -277 321 -201 385 102 c 2
 423 278 l 2
 471 506 398 524 224 524 c 2
 201 524 l 1
 231 666 l 1
 254 666 l 2
 427 666 509 685 557 912 c 2
 595 1087 l 2
 660 1391 821 1467 1108 1467 c 2
 1131 1467 l 1
 1103 1333 l 1
 1079 1333 l 2
 872 1333 844 1247 803 1052 c 0
 799 1033 794 1013 790 993 c 0
 748 797 698 664 510 596 c 1
EndSplineSet
EndChar

StartChar: bar
Encoding: 95 124 95
Width: 662
GlyphClass: 1
Flags: HW
LayerCount: 2
Fore
SplineSet
133 -553 m 1
 602 1655 l 1
 764 1655 l 1
 295 -553 l 1
 133 -553 l 1
EndSplineSet
EndChar

StartChar: braceright
Encoding: 96 125 96
Width: 924
GlyphClass: 1
Flags: HW
CounterMasks: 1 e0
LayerCount: 2
Fore
SplineSet
793 1087 m 2
 756 912 l 2
 711 699 758 666 955 666 c 2
 978 666 l 1
 948 524 l 1
 925 524 l 2
 728 524 666 491 621 278 c 2
 584 102 l 2
 520 -201 356 -277 70 -277 c 2
 47 -277 l 1
 75 -143 l 1
 98 -143 l 2
 302 -143 334 -53 372 124 c 0
 377 147 382 172 387 197 c 0
 427 386 479 525 669 596 c 1
 516 661 513 788 557 993 c 0
 563 1022 569 1050 575 1076 c 0
 611 1244 613 1333 412 1333 c 2
 389 1333 l 1
 417 1467 l 1
 441 1467 l 2
 729 1467 858 1391 793 1087 c 2
EndSplineSet
EndChar

StartChar: asciitilde
Encoding: 97 126 97
Width: 1580
GlyphClass: 1
Flags: HW
LayerCount: 2
Fore
SplineSet
1197 627 m 0x80
 1266 627 1380 651 1572 780 c 2
 1615 809 l 1
 1574 614 l 1
 1562 606 l 2
 1438 526 1309 458 1159 458 c 0x80
 968 458 832 596 638 596 c 0
 548 596 427 548 268 441 c 2
 225 412 l 1
 266 607 l 1
 278 614 l 2
 428 713 564 764 685 764 c 0x40
 874 764 1038 627 1197 627 c 0x80
EndSplineSet
EndChar

StartChar: quoteleft
Encoding: 98 8216 98
Width: 467
GlyphClass: 1
Flags: HW
LayerCount: 2
Fore
SplineSet
413 856 m 0xc0
 298 856 250 940 278 1071 c 0xc0
 308 1210 406 1331 516 1419 c 1
 590 1479 l 1
 708 1454 l 1
 609 1360 l 2
 522 1277 473 1199 458 1126 c 0xa0
 457 1120 456 1116 455 1112 c 1
 565 1112 l 1
 570 1102 l 2
 585 1070 590 1038 583 1006 c 0
 565 923 497 856 413 856 c 0xc0
EndSplineSet
EndChar

StartChar: quoteright
Encoding: 99 8217 99
Width: 467
GlyphClass: 1
Flags: HW
LayerCount: 2
Fore
SplineSet
551 1477 m 0xc0
 664 1477 714 1392 686 1262 c 0xc0
 654 1111 544 990 448 913 c 2
 374 854 l 1
 255 882 l 1
 293 915 l 2
 463 1064 493 1146 505 1201 c 0xa0
 505 1203 506 1206 506 1208 c 0
 507 1213 508 1217 508 1220 c 1
 400 1220 l 1
 395 1228 l 2
 390 1235 368 1268 381 1327 c 0
 394 1388 445 1477 551 1477 c 0xc0
EndSplineSet
EndChar

StartChar: quotedblleft
Encoding: 100 8220 100
Width: 860
GlyphClass: 1
Flags: HW
LayerCount: 2
Fore
SplineSet
413 856 m 0xc0
 299 856 251 942 278 1071 c 0xc0
 308 1210 403 1330 515 1419 c 1
 590 1479 l 1
 710 1454 l 1
 672 1420 l 2
 499 1268 470 1184 458 1126 c 0xa0
 457 1121 456 1116 455 1112 c 1
 564 1112 l 1
 569 1104 l 2
 587 1075 590 1040 583 1006 c 0
 565 923 497 856 413 856 c 0xc0
806 856 m 0
 690 856 643 944 671 1075 c 0x90
 703 1225 813 1345 908 1420 c 2
 982 1479 l 1
 1099 1455 l 1
 1005 1363 l 1
 916 1279 866 1200 851 1128 c 0x88
 850 1122 849 1117 848 1112 c 1
 958 1112 l 1
 962 1102 l 2
 977 1070 983 1039 976 1008 c 0x90
 958 922 887 856 806 856 c 0
EndSplineSet
EndChar

StartChar: quotedblright
Encoding: 101 8221 101
Width: 860
GlyphClass: 1
Flags: HW
LayerCount: 2
Fore
SplineSet
552 1477 m 0xc0
 667 1477 713 1389 686 1260 c 0xc0
 657 1121 558 1001 448 913 c 2
 374 854 l 1
 258 881 l 1
 336 957 l 1
 472 1087 494 1155 505 1204 c 0xa0
 506 1210 507 1215 508 1220 c 1
 399 1220 l 1
 394 1229 l 2
 377 1258 374 1292 381 1327 c 0
 399 1413 470 1477 552 1477 c 0xc0
943 1477 m 0
 1056 1477 1107 1392 1079 1262 c 0x90
 1047 1111 936 990 840 913 c 2
 766 854 l 1
 648 882 l 1
 685 915 l 2
 861 1069 889 1151 901 1208 c 0x88
 902 1213 902 1217 902 1220 c 1
 792 1220 l 1
 787 1228 l 2
 782 1235 761 1268 774 1329 c 0x90
 792 1416 860 1477 943 1477 c 0
EndSplineSet
EndChar

StartChar: u0B83
Encoding: 102 2947 102
Width: 1355
GlyphClass: 1
Flags: HW
LayerCount: 2
Fore
SplineSet
16 180 m 0
 37 280 135 368 230 369 c 1
 326 369 386 284 364 181 c 0
 344 87 253 -6 150 -6 c 0
 37 -6 -2 97 16 180 c 0
806 179 m 0
 827 279 925 367 1020 368 c 1
 1117 368 1177 282 1155 180 c 0
 1135 86 1041 -7 940 -7 c 0
 827 -7 788 96 806 179 c 0
611 1108 m 0
 632 1207 728 1296 825 1296 c 0
 922 1296 982 1210 960 1108 c 0
 940 1013 847 922 745 922 c 0
 632 922 593 1025 611 1108 c 0
EndSplineSet
EndChar

StartChar: u0B85
Encoding: 103 2949 103
Width: 2182
GlyphClass: 1
Flags: HW
LayerCount: 2
Fore
SplineSet
217 353 m 0
 215 343 217 353 217 349 c 0
 222 300 331 128 695 125 c 1
 905 125 1114 200 1288 360 c 1
 251 360 l 2
 236 360 221 358 217 354 c 0
 217 353 l 0
1090 771 m 0
 1174 771 1225 858 1237 916 c 0
 1265 1047 1218 1105 1195 1120 c 1
 1086 1117 1020 1024 1001 934 c 0
 970 790 1059 771 1090 771 c 0
1751 732 m 0
 1736 661 1708 587 1669 510 c 1
 1823 510 l 1
 1993 1313 l 1
 2240 1313 l 1
 1906 -240 l 1
 1660 -240 l 1
 1788 363 l 1
 1569 363 l 1
 1364 106 1025 -24 713 -24 c 1
 123 -20 68 348 71 402 c 0
 71 404 70 407 71 409 c 0
 81 456 115 511 202 511 c 2
 1417 511 l 1
 1482 597 1524 688 1545 786 c 0
 1578 943 1539 1049 1430 1108 c 1
 1451 1054 1452 981 1433 892 c 0
 1391 696 1259 570 1070 570 c 0
 887 570 819 736 863 941 c 0
 909 1158 1086 1311 1316 1311 c 0
 1567 1311 1848 1190 1751 732 c 0
EndSplineSet
EndChar

StartChar: u0B86
Encoding: 104 2950 104
Width: 2688
GlyphClass: 1
Flags: HW
LayerCount: 2
Fore
SplineSet
1086 769 m 0xe7f8
 1170 769 1221 856 1233 914 c 0
 1261 1045 1215 1103 1192 1118 c 1
 1083 1115 1016 1022 997 932 c 0
 966 788 1055 769 1086 769 c 0xe7f8
2480 139 m 0
 2331 -562 1774 -741 1403 -741 c 0
 1072 -741 675 -662 742 -347 c 0
 777 -184 942 -76 1163 -76 c 0
 1319 -76 1443 -136 1508 -217 c 2
 1519 -230 l 1
 1450 -323 l 1
 1432 -306 l 2
 1378 -251 1258 -200 1123 -200 c 0
 1029 -200 901 -228 877 -341 c 0
 834 -541 1139 -591 1354 -591 c 0
 1834 -591 2155 -220 2227 120 c 0
 2280 367 2184 446 2110 446 c 0xebf8
 2088 446 2069 440 2050 426 c 1
 1905 -242 l 1
 1658 -242 l 1
 1786 361 l 1
 1568 361 l 1
 1363 104 1024 -26 712 -26 c 1
 122 -22 66 346 69 400 c 0
 69 402 69 405 70 407 c 0
 80 454 114 509 201 509 c 2
 1416 509 l 1
 1481 595 1522 686 1543 784 c 0
 1576 941 1538 1047 1429 1106 c 1
 1450 1052 1451 979 1432 890 c 0
 1390 694 1258 568 1069 568 c 0xf7f8
 886 568 817 734 861 939 c 0
 907 1156 1085 1309 1315 1309 c 0
 1566 1309 1847 1188 1750 730 c 0
 1735 659 1707 585 1668 508 c 1
 1821 508 l 1
 1992 1311 l 1
 2239 1311 l 1
 2084 584 l 1
 2130 612 2178 625 2226 625 c 0xebf8
 2370 625 2556 498 2480 139 c 0
214 352 m 1
 214 351 l 1
 213 326 294 126 691 123 c 1
 902 123 1112 198 1285 358 c 1
 248 358 l 2xf3f8
 233 358 218 356 214 352 c 1
EndSplineSet
EndChar

StartChar: u0B87
Encoding: 105 2951 105
Width: 2048
GlyphClass: 1
Flags: HW
LayerCount: 2
Fore
SplineSet
739 773 m 0
 822 773 874 859 887 918 c 0
 915 1049 868 1107 845 1122 c 1
 736 1119 669 1026 650 936 c 0
 622 806 690 773 739 773 c 0
982 -134 m 0
 1199 -134 1282 31 1300 114 c 0
 1315 185 1281 243 1220 294 c 1
 1124 141 997 -2 825 -114 c 1
 875 -127 927 -134 982 -134 c 0
120 19 m 0
 100 -73 181 -134 310 -134 c 0
 360 -134 412 -126 465 -108 c 1
 379 -33 308 67 252 189 c 1
 173 132 132 76 120 19 c 0
393 274 m 1
 452 149 519 55 634 -26 c 1
 793 73 926 209 1035 384 c 1
 986 396 933 401 877 401 c 0
 763 401 573 369 393 274 c 1
1836 646 m 0
 1976 1303 1641 1617 1231 1617 c 0
 819 1617 406 1342 318 929 c 0
 282 758 291 584 347 406 c 1
 561 511 777 544 916 544 c 0
 985 544 1050 539 1113 528 c 1
 1143 594 1165 662 1180 730 c 0
 1200 825 1240 1016 1078 1109 c 1
 1110 1026 1088 925 1081 891 c 0
 1062 803 1013 601 719 571 c 1
 547 571 465 727 511 943 c 0
 554 1147 720 1314 965 1314 c 0
 1216 1314 1497 1193 1400 735 c 0
 1381 644 1352 555 1315 468 c 1
 1502 381 1565 253 1535 112 c 0
 1471 -188 1200 -280 952 -280 c 0
 840 -280 736 -257 637 -210 c 1
 522 -257 409 -280 299 -280 c 0
 103 -280 -62 -198 -12 35 c 0
 13 151 100 248 209 328 c 1
 151 530 142 761 182 947 c 0
 309 1545 792 1873 1287 1873 c 0
 1936 1873 2126 1352 1989 708 c 0
 1883 210 1628 -197 1577 -268 c 2
 1563 -288 l 1
 1462 -236 l 1
 1480 -211 l 2
 1529 -146 1740 193 1836 646 c 0
EndSplineSet
EndChar

StartChar: u0B88
Encoding: 106 2952 106
Width: 1381
GlyphClass: 1
Flags: HW
LayerCount: 2
Fore
SplineSet
1162 798 m 0
 1245 798 1287 729 1269 645 c 0
 1250 555 1176 495 1098 495 c 0
 1014 495 972 562 990 645 c 0
 1008 729 1078 798 1162 798 c 0
1031 1164 m 1
 778 -26 l 1
 532 -26 l 1
 785 1164 l 1
 365 1164 l 1
 112 -26 l 1
 -27 -26 l 1
 257 1314 l 1
 1331 1314 l 1
 1298 1164 l 1
 1031 1164 l 1
497 797 m 0
 580 797 622 728 604 644 c 0
 585 554 511 494 433 494 c 0
 349 494 307 561 325 644 c 0
 343 728 413 797 497 797 c 0
EndSplineSet
EndChar

StartChar: u0B89
Encoding: 107 2953 107
Width: 2157
GlyphClass: 1
Flags: HW
LayerCount: 2
Fore
SplineSet
306 116 m 2xfd80
 1984 116 l 2
 1996 116 2005 115 2017 112 c 0
 2050 104 2063 81 2056 48 c 1
 2050 33 2048 20 2023 2 c 0
 2001 -14 1973 -21 1961 -24 c 2
 1958 -25 l 1
 206 -25 l 2
 34 -25 -1 98 17 183 c 0xfd80
 35 268 125 388 294 388 c 2
 633 388 l 2
 796 388 924 586 956 739 c 0
 1023 1054 901 1163 683 1163 c 0
 563 1163 446 1104 377 1030 c 1
 416 1053 466 1071 526 1071 c 0
 711 1071 763 895 731 744 c 0
 688 540 541 424 363 424 c 0
 186 424 95 549 164 873 c 0xfb80
 216 1117 465 1315 752 1315 c 0
 1097 1315 1265 1111 1189 753 c 0
 1114 401 912 229 599 229 c 2
 333 229 l 2
 250 229 233 187 230 172 c 0
 225 150 239 116 306 116 c 2xfd80
380 606 m 0
 467 606 508 708 518 756 c 0
 533 827 499 893 427 893 c 0
 378 893 334 866 290 808 c 1
 268 698 294 606 380 606 c 0
EndSplineSet
EndChar

StartChar: u0B8A
Encoding: 108 2954 108
Width: 3462
GlyphClass: 1
Flags: HW
LayerCount: 2
Fore
SplineSet
2136 1317 m 0xda7e
 2431 1317 2553 1238 2601 1164 c 1
 2633 1318 l 1
 3533 1318 l 1
 3497 1165 l 1
 3232 1165 l 1
 3016 148 l 1
 2770 148 l 1
 2986 1165 l 1
 2726 1165 l 1
 2509 148 l 1
 2264 148 l 1
 2424 901 l 2
 2461 1075 2326 1165 2126 1165 c 0
 1897 1165 1713 1045 1633 946 c 1
 1697 981 1777 1000 1854 1000 c 0
 2069 1000 2173 816 2125 589 c 0
 2049 229 1846 152 1721 152 c 0
 1415 152 1357 448 1419 738 c 0
 1500 1119 1815 1317 2136 1317 c 0xda7e
310 119 m 2
 3162 119 l 2
 3174 119 3183 118 3195 115 c 0
 3228 107 3241 84 3234 51 c 1
 3228 36 3225 23 3200 5 c 0
 3178 -11 3150 -18 3138 -21 c 2
 3135 -22 l 1
 211 -22 l 2
 39 -22 3 101 21 186 c 0xb77e
 39 271 129 391 298 391 c 2
 637 391 l 2
 800 391 928 589 960 742 c 0
 1027 1057 905 1166 687 1166 c 0
 567 1166 450 1107 381 1033 c 1
 420 1056 470 1074 530 1074 c 0
 715 1074 767 898 735 747 c 0
 692 543 545 427 367 427 c 0
 190 427 99 552 168 876 c 0xb6fe
 220 1120 470 1318 757 1318 c 0
 1102 1318 1269 1114 1193 756 c 0
 1118 404 916 232 603 232 c 2
 337 232 l 2
 254 232 238 190 235 175 c 0xb77e
 230 153 243 119 310 119 c 2
1549 693 m 1
 1528 588 1543 384 1676 384 c 0
 1768 384 1843 475 1868 593 c 0
 1896 725 1823 814 1741 814 c 0xda7e
 1631 814 1573 741 1549 693 c 1
386 608 m 0
 473 608 514 710 524 758 c 0
 539 829 505 895 433 895 c 0
 384 895 339 868 295 810 c 1x96fe
 273 700 300 608 386 608 c 0
EndSplineSet
EndChar

StartChar: u0B8E
Encoding: 109 2958 109
Width: 1701
GlyphClass: 1
Flags: HW
LayerCount: 2
Fore
SplineSet
107 596 m 0
 200 1033 486 1318 853 1318 c 2
 1743 1318 l 1
 1711 1165 l 1
 1444 1165 l 1
 1191 -25 l 1
 946 -25 l 1
 1199 1165 l 1
 843 1165 l 2
 531 1165 362 948 301 802 c 1
 368 847 458 875 544 875 c 0
 767 875 876 696 823 445 c 0
 772 207 646 -22 399 -22 c 0
 60 -22 49 323 107 596 c 0
235 545 m 1
 181 286 272 199 365 199 c 0
 471 199 548 310 576 439 c 0
 609 590 521 684 444 684 c 0
 337 684 266 605 235 545 c 1
EndSplineSet
EndChar

StartChar: u0B8F
Encoding: 110 2959 110
Width: 1701
GlyphClass: 1
Flags: HW
LayerCount: 2
Fore
SplineSet
107 596 m 0
 200 1033 486 1318 853 1318 c 2
 1743 1318 l 1
 1711 1165 l 1
 1444 1165 l 1
 1194 -12 l 1
 651 -426 l 1
 426 -426 l 1
 953 11 l 1
 1199 1165 l 1
 843 1165 l 2
 531 1165 362 948 301 802 c 1
 368 847 458 875 544 875 c 0
 767 875 876 696 823 445 c 0
 772 207 646 -22 399 -22 c 0
 60 -22 49 323 107 596 c 0
235 545 m 1
 181 286 272 199 365 199 c 0
 471 199 548 310 576 439 c 0
 609 590 521 684 444 684 c 0
 337 684 266 605 235 545 c 1
EndSplineSet
EndChar

StartChar: u0B90
Encoding: 111 2960 111
Width: 1727
GlyphClass: 1
Flags: HW
LayerCount: 2
Fore
SplineSet
367 422 m 0xf780
 190 422 99 547 168 871 c 0
 224 1136 473 1313 756 1313 c 0
 919 1313 1027 1272 1066 1181 c 1
 1125 1259 1213 1313 1346 1313 c 0
 1616 1313 1733 1142 1669 841 c 0xfb80
 1646 732 1558 464 1367 363 c 0
 937 135 361 427 255 -72 c 0
 231 -184 231 -369 386 -369 c 0
 498 -369 626 -233 643 -151 c 2
 687 56 l 1
 919 56 l 1
 876 -145 l 2
 858 -230 888 -377 1040 -377 c 0
 1177 -377 1237 -255 1260 -148 c 0
 1282 -45 1271 42 1245 90 c 2
 1231 115 l 1
 1410 194 l 1
 1418 178 l 2
 1456 94 1461 -9 1436 -126 c 0xf740
 1401 -290 1275 -527 992 -527 c 0
 852 -527 768 -478 732 -392 c 1
 663 -458 533 -526 384 -526 c 0
 101 -526 -41 -366 21 -73 c 0
 63 124 170 254 337 317 c 1
 679 450 1010 372 1228 478 c 0
 1327 526 1410 714 1441 860 c 0
 1468 988 1463 1163 1290 1163 c 0
 1181 1163 1124 1021 1114 974 c 2
 1032 588 l 1
 800 588 l 1
 878 958 l 2
 890 1016 882 1161 687 1161 c 0
 567 1161 450 1102 381 1028 c 1
 420 1051 470 1069 530 1069 c 0
 715 1069 767 893 735 742 c 0
 692 538 545 422 367 422 c 0xf780
381 598 m 0
 468 598 509 700 519 748 c 0
 534 819 500 885 428 885 c 0
 379 885 335 858 291 800 c 1
 269 690 295 598 381 598 c 0
EndSplineSet
EndChar

StartChar: u0B92
Encoding: 112 2962 112
Width: 1860
GlyphClass: 1
Flags: W
HStem: -738 150<363.663 713.57> -164 164<335.453 471> -70 162<1193.32 1466> 134 201<1181.02 1327.81> 149 204<292.568 469.775> 725 164<333.869 615.25> 1164 152<700.621 1163.28>
LayerCount: 2
Fore
SplineSet
1044 317 m 1x96
 1042 311 1041 306 1040 301 c 0
 1013 176 1054 92 1276 92 c 2
 1501 92 l 1
 1466 -70 l 1
 1295 -70 l 2xb6
 1030 -70 1129 -738 512 -738 c 0
 200 -738 76 -556 121 -345 c 0
 161 -158 284 0 453 0 c 2
 471 0 l 1
 483 -164 l 1
 451 -164 l 2
 390 -164 293 -193 261 -344 c 0
 240 -442 300 -588 566 -588 c 0
 808 -588 813 -365 930 -132 c 0
 954 -84 990 -42 1033 -13 c 1
 917 46 902 183 929 312 c 0
 972 517 1115 727 1230 766 c 2
 1241 770 l 1
 1312 713 l 1
 1283 691 l 2
 1224 646 1195 574 1180 503 c 0
 1160 409 1177 335 1227 335 c 0xd6
 1312 335 1383 404 1425 602 c 0
 1494 924 1248 1164 970 1164 c 0
 588 1164 413 979 332 846 c 1
 383 875 443 889 510 889 c 0
 717 889 819 739 775 534 c 0
 731 328 605 149 394 149 c 0x8e
 164 149 54 352 112 624 c 0
 171 901 376 1316 1029 1316 c 0
 1617 1316 1743 934 1674 610 c 0
 1598 253 1388 134 1236 134 c 0
 1099 134 1048 207 1044 317 c 1x96
253 618 m 1
 225 478 278 353 378 353 c 0x8e
 423 353 496 381 526 521 c 0
 558 673 492 725 432 725 c 0
 340 725 282 671 253 618 c 1
EndSplineSet
EndChar

StartChar: u0B93
Encoding: 113 2963 113
Width: 1859
GlyphClass: 1
Flags: HW
LayerCount: 2
Fore
SplineSet
1031 1317 m 0x8fd8
 1626 1317 1741 929 1675 617 c 0
 1593 231 1372 134 1236 134 c 0
 1100 134 1049 206 1044 314 c 1
 1043 308 1041 303 1040 298 c 0
 1014 174 1055 92 1276 92 c 2
 1501 92 l 1
 1467 -70 l 1
 1296 -70 l 2xb7d8
 1036 -70 1126 -738 513 -738 c 0
 228 -738 71 -581 121 -345 c 0
 161 -156 290 -6 483 -6 c 0
 712 -6 752 -155 730 -257 c 0
 710 -350 660 -423 586 -476 c 2
 572 -485 l 1
 451 -412 l 1
 479 -387 l 2
 517 -354 547 -314 557 -265 c 0
 566 -225 555 -165 453 -165 c 0
 392 -165 295 -194 263 -345 c 0
 242 -443 302 -589 568 -589 c 0
 881 -589 833 -149 1034 -12 c 1
 918 47 904 184 931 313 c 0
 974 518 1117 728 1232 767 c 2
 1243 771 l 1
 1314 714 l 1
 1285 692 l 2
 1226 647 1197 575 1182 504 c 0
 1162 410 1179 336 1229 336 c 0xd7b8
 1314 336 1385 405 1427 603 c 0
 1496 925 1251 1165 973 1165 c 0
 591 1165 415 980 334 847 c 1
 385 876 445 890 512 890 c 0
 719 890 821 740 777 535 c 0
 733 329 607 150 396 150 c 0
 166 150 56 353 114 625 c 0
 173 902 378 1317 1031 1317 c 0x8fd8
255 619 m 1
 227 479 280 354 380 354 c 0x8fd8
 425 354 498 382 528 522 c 0
 560 674 494 726 434 726 c 0
 342 726 284 672 255 619 c 1
EndSplineSet
EndChar

StartChar: u0B95
Encoding: 115 2965 115
Width: 1648
GlyphClass: 1
Flags: HW
LayerCount: 2
Fore
SplineSet
66 405 m 0
 116 641 298 747 385 765 c 1
 502 1315 l 1
 1415 1315 l 1
 1383 1165 l 1
 1116 1165 l 1
 1032 772 l 1
 1371 769 1559 698 1484 347 c 0
 1422 55 1209 -24 1055 -24 c 0
 953 -24 820 -5 790 108 c 1
 727 58 591 -24 412 -24 c 0
 154 -24 5 116 66 405 c 0
786 772 m 1
 869 1165 l 1
 609 1165 l 1
 525 772 l 1
 786 772 l 1
933 304 m 2
 910 195 924 127 1041 127 c 0
 1093 127 1210 156 1252 343 c 1
 1304 587 1204 618 1000 620 c 1
 933 304 l 2
427 620 m 2
 374 620 240 570 200 380 c 0
 168 228 213 127 413 127 c 0
 526 127 667 224 684 295 c 1
 753 620 l 1
 427 620 l 2
EndSplineSet
EndChar

StartChar: u0B95_u0BBF
Encoding: 116 -1 116
Width: 1941
GlyphClass: 1
Flags: HW
LayerCount: 2
Fore
SplineSet
1333 2105 m 0
 1764 2105 2114 1940 1974 1279 c 2
 1697 -25 l 1
 1571 -25 l 1
 1852 1296 l 2
 1921 1621 1664 1837 1278 1837 c 0
 627 1837 438 1490 389 1259 c 0
 357 1108 363 961 408 867 c 1
 504 1317 l 1
 1416 1317 l 1
 1384 1167 l 1
 1117 1167 l 1
 1034 774 l 1
 1371 771 1560 697 1487 351 c 0
 1425 59 1211 -20 1057 -20 c 0
 955 -20 822 -1 792 112 c 1
 729 62 594 -20 415 -20 c 0
 157 -20 8 120 69 409 c 0
 107 588 219 691 309 738 c 1
 212 866 204 1046 246 1246 c 0
 330 1639 629 2105 1333 2105 c 0
786 774 m 1
 870 1167 l 1
 609 1167 l 1
 526 774 l 1
 786 774 l 1
933 306 m 2
 910 197 925 129 1042 129 c 0
 1106 129 1217 181 1256 364 c 0
 1305 593 1187 620 1000 622 c 1
 933 306 l 2
427 622 m 2
 374 622 241 572 201 382 c 0
 169 230 214 129 414 129 c 0
 527 129 667 226 684 297 c 1
 753 622 l 1
 427 622 l 2
EndSplineSet
Ligature2: "sub_ligature_pststaml_0-0 subtable" u0B95 u0BBF
LCarets2: 1 0
EndChar

StartChar: u0B95_u0BC0
Encoding: 117 -1 117
Width: 1648
GlyphClass: 1
Flags: HW
LayerCount: 2
Fore
SplineSet
1247 1723 m 0xfec0
 1227 1627 1281 1563 1355 1563 c 0
 1442 1563 1524 1639 1542 1726 c 0
 1560 1811 1525 1901 1418 1902 c 1
 1335 1884 1266 1812 1247 1723 c 0xfec0
785 773 m 1xff
 869 1166 l 1
 608 1166 l 1
 525 773 l 1
 785 773 l 1xff
932 305 m 2
 909 196 923 128 1040 128 c 0
 1106 128 1213 167 1251 344 c 0xfe20
 1305 599 1190 620 999 621 c 1
 932 305 l 2
426 621 m 2
 373 621 240 571 200 381 c 0
 168 229 213 128 413 128 c 0
 526 128 666 225 683 296 c 1
 752 621 l 1
 426 621 l 2
63 408 m 0
 96 562 189 678 304 736 c 1
 207 864 199 1044 241 1244 c 0
 359 1799 807 2173 1316 2173 c 0
 1544 2173 1820 2090 1749 1757 c 0
 1707 1561 1543 1422 1347 1422 c 0
 1134 1422 1080 1587 1109 1725 c 0xfec0
 1126 1806 1173 1893 1237 1952 c 1
 1224 1953 1210 1954 1197 1954 c 0
 772 1954 448 1566 383 1258 c 0
 351 1107 357 960 402 866 c 1
 498 1316 l 1
 1410 1316 l 1
 1378 1166 l 1
 1111 1166 l 1
 1028 773 l 1xff
 1365 770 1554 696 1481 350 c 0
 1419 58 1206 -21 1052 -21 c 0
 950 -21 817 -2 787 111 c 1
 724 61 588 -21 409 -21 c 0
 151 -21 2 119 63 408 c 0
EndSplineSet
Ligature2: "sub_ligature_pststaml_0-0 subtable" u0B95 u0BC0
LCarets2: 1 0
EndChar

StartChar: u0B95_u0BC1
Encoding: 118 -1 118
Width: 2088
GlyphClass: 2
Flags: HW
LayerCount: 2
Fore
SplineSet
209 423 m 0
 104 -71 290 -445 791 -445 c 0
 1365 -445 1573 -143 1666 295 c 0
 1708 491 1661 613 1425 620 c 1
 1358 304 l 2
 1330 171 1115 -23 837 -23 c 0
 579 -23 433 117 494 406 c 0
 543 637 723 747 811 766 c 1
 928 1316 l 1
 1842 1316 l 1
 1810 1166 l 1
 1543 1166 l 1
 1459 773 l 1
 1793 769 1993 670 1915 302 c 0
 1824 -127 1650 -338 1388 -474 c 0
 1277 -532 1093 -594 784 -594 c 0
 187 -594 -66 -224 73 432 c 0
 122 663 262 1083 538 1308 c 2
 557 1324 l 1
 630 1234 l 1
 609 1215 l 2
 371 1007 257 650 209 423 c 0
1210 772 m 1
 1293 1165 l 1
 1035 1165 l 1
 951 772 l 1
 1210 772 l 1
852 622 m 2
 827 622 674 599 628 383 c 0
 596 231 641 130 841 130 c 0
 947 130 1092 218 1109 297 c 2
 1178 622 l 1
 852 622 l 2
EndSplineSet
Ligature2: "sub_ligature_pststaml_6 subtable" u0B95 u0BC1
LCarets2: 1 0
EndChar

StartChar: u0B95_u0BC2.old
Encoding: 119 -1 119
Width: 2695
Flags: HW
LayerCount: 2
Fore
SplineSet
5 407 m 0
 5 652 201 745 266 745 c 1
 266 1292 l 1
 1197 1292 l 1
 1197 1192 l 1
 910 1192 l 1
 910 749 l 1
 1262 749 l 2
 1287 749 1360 733 1376 659 c 1
 1421 732 1545 768 1749 768 c 0
 1921 768 2162 684 2162 437 c 0
 2162 279 2047 167 1949 102 c 1
 2408 102 l 1
 2408 2 l 1
 1654 2 l 1
 1654 102 l 1
 1829 199 1917 305 1917 422 c 0
 1917 557 1806 647 1675 647 c 0
 1522 647 1427 594 1408 520 c 1
 1408 1 l 1
 1193 1 l 1
 1193 646 l 1
 909 646 l 1
 909 305 l 2
 909 146 676 3 450 3 c 0
 188 3 5 131 5 407 c 0
694 749 m 1
 694 1192 l 1
 364 1192 l 1
 364 749 l 1
 694 749 l 1
319 649 m 2
 250 649 105 590 105 384 c 0
 105 199 209 106 417 106 c 0
 547 106 692 209 694 299 c 1
 694 649 l 1
 319 649 l 2
EndSplineSet
Validated: 1
EndChar

StartChar: u0B95_u0BCD
Encoding: 120 -1 120
Width: 1648
GlyphClass: 2
Flags: HW
LayerCount: 2
Fore
SplineSet
1074 1856 m 0xfe80
 1172 1856 1232 1774 1210 1668 c 1
 1188 1564 1090 1480 995 1480 c 0
 900 1480 839 1565 861 1668 c 0
 884 1776 982 1856 1074 1856 c 0xfe80
64 405 m 0
 114 641 297 747 384 765 c 1
 500 1315 l 1
 1413 1315 l 1
 1381 1165 l 1
 1114 1165 l 1
 1030 772 l 1xfd80
 1372 769 1556 695 1483 351 c 1
 1419 55 1208 -24 1053 -24 c 0
 951 -24 818 -5 788 108 c 1
 725 58 589 -24 410 -24 c 0
 152 -24 3 116 64 405 c 0
784 772 m 1
 867 1165 l 1
 607 1165 l 1
 524 772 l 1
 784 772 l 1
931 304 m 2
 908 195 922 127 1039 127 c 0
 1106 127 1212 166 1253 357 c 0
 1302 589 1191 618 998 620 c 1
 931 304 l 2
425 620 m 2
 372 620 238 570 198 380 c 0
 166 228 212 127 412 127 c 0
 525 127 665 224 682 295 c 1
 751 620 l 1
 425 620 l 2
EndSplineSet
Ligature2: "pstspostbasesubstitution subtable" u0B95 u0BCD
LCarets2: 1 0
EndChar

StartChar: u0B99
Encoding: 121 2969 121
Width: 1861
GlyphClass: 1
Flags: HW
LayerCount: 2
Fore
SplineSet
1229 462 m 0
 1194 297 1120 181 1026 111 c 1
 1415 111 l 1
 1671 1315 l 1
 1904 1315 l 1
 1619 -25 l 1
 372 -25 l 1
 401 111 l 1
 729 111 l 1
 912 184 977 379 997 473 c 0
 1034 646 938 688 882 688 c 0
 843 688 784 667 751 596 c 1
 698 345 l 1
 451 345 l 1
 625 1162 l 1
 366 1162 l 1
 114 -28 l 1
 -26 -28 l 1
 259 1312 l 1
 1172 1312 l 1
 1140 1162 l 1
 873 1162 l 1
 801 823 l 1
 850 857 906 874 969 874 c 0
 1118 874 1290 749 1229 462 c 0
EndSplineSet
EndChar

StartChar: u0B99_u0BBF
Encoding: 122 -1 122
Width: 2114
GlyphClass: 2
Flags: HW
LayerCount: 2
Fore
SplineSet
1889 2060 m 0xeee0
 2230 2060 2258 1791 2192 1480 c 2
 1872 -25 l 1
 1745 -25 l 1
 2058 1447 l 2
 2110 1691 2056 1809 1833 1809 c 0
 1698 1809 1538 1724 1494 1517 c 0
 1454 1329 1537 1279 1620 1272 c 1xeee0
 1630 1317 l 1
 1862 1317 l 1
 1578 -23 l 1
 371 -23 l 1
 400 113 l 1
 729 113 l 1
 912 186 977 381 997 475 c 0
 1034 648 938 690 882 690 c 0
 843 690 784 669 751 598 c 1
 697 347 l 1
 451 347 l 1
 625 1164 l 1
 366 1164 l 1
 113 -26 l 1
 -26 -26 l 1
 258 1314 l 1
 1172 1314 l 1
 1140 1164 l 1
 873 1164 l 1
 801 825 l 1
 850 859 906 876 969 876 c 0
 1118 876 1289 751 1228 464 c 0xdf60
 1193 299 1119 183 1025 113 c 1
 1375 113 l 1
 1589 1121 l 1
 1440 1131 1281 1235 1349 1554 c 0
 1416 1869 1610 2060 1889 2060 c 0xeee0
EndSplineSet
Ligature2: "sub_ligature_pststaml_2 subtable" u0B99 u0BBF
LCarets2: 1 0
EndChar

StartChar: u0B99_u0BC0
Encoding: 123 -1 123
Width: 2120
GlyphClass: 2
Flags: HW
LayerCount: 2
Fore
SplineSet
1230 462 m 0xdfa8
 1195 297 1121 181 1027 111 c 1
 1414 111 l 1
 1627 1111 l 1xefa8
 1487 1127 1386 1293 1442 1555 c 0
 1535 1991 1900 2103 2094 2103 c 0
 2227 2103 2341 2073 2433 2012 c 0
 2528 1949 2560 1840 2528 1687 c 0
 2486 1491 2322 1352 2126 1352 c 0
 1913 1352 1860 1517 1889 1655 c 0
 1905 1729 1950 1822 2015 1882 c 1
 2002 1883 1990 1883 1978 1883 c 0
 1786 1883 1622 1684 1587 1521 c 0
 1547 1332 1599 1251 1654 1234 c 1xef58
 1671 1315 l 1
 1917 1315 l 1
 1632 -25 l 1
 373 -25 l 1
 402 111 l 1
 730 111 l 1
 913 184 978 379 998 473 c 0
 1035 646 939 688 883 688 c 0
 844 688 785 667 752 596 c 1
 699 345 l 1
 452 345 l 1
 626 1162 l 1
 367 1162 l 1
 114 -28 l 1
 -25 -28 l 1
 260 1312 l 1
 1173 1312 l 1
 1141 1162 l 1
 874 1162 l 1
 802 823 l 1
 851 857 907 874 970 874 c 0
 1119 874 1291 749 1230 462 c 0xdfa8
2026 1654 m 0xcf18
 2007 1566 2052 1493 2133 1493 c 0
 2212 1493 2299 1557 2319 1653 c 0
 2343 1769 2280 1830 2197 1831 c 1
 2116 1813 2046 1746 2026 1654 c 0xcf18
EndSplineSet
Ligature2: "sub_ligature_pststaml_4 subtable" u0B99 u0BC0
LCarets2: 1 0
EndChar

StartChar: u0B99_u0BC1
Encoding: 124 -1 124
Width: 1861
GlyphClass: 2
Flags: HW
LayerCount: 2
Fore
SplineSet
1229 462 m 0
 1194 297 1120 181 1026 111 c 1
 1415 111 l 1
 1671 1315 l 1
 1904 1315 l 1
 1534 -412 l 1
 1303 -412 l 1
 1385 -25 l 1
 372 -25 l 1
 401 111 l 1
 729 111 l 1
 912 184 977 379 997 473 c 0
 1034 646 938 688 882 688 c 0
 843 688 784 667 751 596 c 1
 698 345 l 1
 451 345 l 1
 625 1162 l 1
 366 1162 l 1
 114 -28 l 1
 -26 -28 l 1
 259 1312 l 1
 1172 1312 l 1
 1140 1162 l 1
 873 1162 l 1
 801 823 l 1
 850 857 906 874 969 874 c 0
 1118 874 1290 749 1229 462 c 0
EndSplineSet
Ligature2: "sub_ligature_pststaml_6 subtable" u0B99 u0BC1
LCarets2: 1 0
EndChar

StartChar: u0B99_u0BC2
Encoding: 125 -1 125
Width: 2461
GlyphClass: 2
Flags: HW
LayerCount: 2
Fore
SplineSet
391 -371 m 0xfeb8
 432 -178 561 -67 753 -67 c 0
 984 -67 1018 -233 989 -368 c 0xfed8
 970 -459 911 -545 838 -596 c 1
 866 -611 903 -616 961 -616 c 0
 1208 -616 1499 -510 1633 -409 c 0
 1766 -308 1882 -146 1916 14 c 0
 1937 115 1863 210 1793 210 c 0
 1752 210 1688 196 1654 134 c 1
 1553 -341 l 1
 1320 -341 l 1
 1387 -25 l 1
 374 -25 l 1
 403 111 l 1
 731 111 l 1
 914 184 979 379 999 473 c 0
 1036 646 940 688 884 688 c 0
 845 688 786 667 753 596 c 1
 700 345 l 1
 453 345 l 1
 627 1162 l 1
 368 1162 l 1
 115 -28 l 1
 -24 -28 l 1
 261 1312 l 1
 1174 1312 l 1
 1142 1162 l 1
 875 1162 l 1
 803 823 l 1xff38
 852 857 908 874 971 874 c 0
 1120 874 1291 749 1230 462 c 0
 1195 297 1122 181 1028 111 c 1
 1417 111 l 1
 1673 1315 l 1
 1906 1315 l 1
 1697 335 l 1
 1753 379 1825 402 1896 402 c 0
 2033 402 2239 268 2182 1 c 0
 2156 -121 2066 -356 1751 -556 c 0
 1608 -647 1334 -756 925 -756 c 0
 400 -756 358 -528 391 -371 c 0xfeb8
815 -363 m 0
 835 -268 789 -203 708 -203 c 0
 623 -203 541 -276 522 -363 c 0
 500 -469 551 -540 644 -541 c 1
 712 -525 792 -470 815 -363 c 0
EndSplineSet
Ligature2: "sub_ligature_pststaml_8 subtable" u0B99 u0BC2
LCarets2: 1 0
EndChar

StartChar: u0B99_u0BCD
Encoding: 126 -1 126
Width: 1809
GlyphClass: 2
Flags: HW
LayerCount: 2
Fore
SplineSet
1229 462 m 0xfd80
 1194 297 1120 181 1026 111 c 1
 1415 111 l 1
 1671 1315 l 1
 1904 1315 l 1
 1619 -25 l 1
 372 -25 l 1
 401 111 l 1
 729 111 l 1
 912 184 977 379 997 473 c 0
 1034 646 938 688 882 688 c 0
 843 688 784 667 751 596 c 1
 698 345 l 1
 451 345 l 1
 625 1162 l 1
 366 1162 l 1
 114 -28 l 1
 -26 -28 l 1
 259 1312 l 1
 1172 1312 l 1
 1140 1162 l 1
 873 1162 l 1
 801 823 l 1
 850 857 906 874 969 874 c 0
 1118 874 1290 749 1229 462 c 0xfd80
1190 1856 m 0
 1287 1856 1348 1774 1326 1668 c 1
 1304 1564 1206 1480 1111 1480 c 0
 1016 1480 955 1565 977 1668 c 0xfa80
 1000 1776 1098 1856 1190 1856 c 0
EndSplineSet
Ligature2: "pstspostbasesubstitution subtable" u0B99 u0BCD
LCarets2: 1 0
EndChar

StartChar: u0B9A
Encoding: 127 2970 127
Width: 1381
GlyphClass: 1
Flags: HW
LayerCount: 2
Fore
SplineSet
64 406 m 0
 114 642 297 748 384 766 c 1
 501 1316 l 1
 1413 1316 l 1
 1381 1166 l 1
 1114 1166 l 1
 1031 773 l 1
 1298 773 l 1
 1265 620 l 1
 997 620 l 1
 930 304 l 2
 893 129 633 -23 410 -23 c 0
 152 -23 3 117 64 406 c 0
785 773 m 1
 869 1166 l 1
 608 1166 l 1
 525 773 l 1
 785 773 l 1
428 623 m 2
 375 623 241 573 201 383 c 0
 169 231 214 130 414 130 c 0
 527 130 667 227 684 298 c 1
 753 623 l 1
 428 623 l 2
EndSplineSet
EndChar

StartChar: u0B9A_u0BBF
Encoding: 128 -1 128
Width: 1688
GlyphClass: 1
Flags: HW
LayerCount: 2
Fore
SplineSet
1172 2105 m 0
 1655 2105 1817 1781 1710 1279 c 2
 1433 -25 l 1
 1305 -25 l 1
 1586 1296 l 2
 1646 1576 1475 1837 1118 1837 c 0
 652 1837 451 1555 388 1258 c 0
 356 1107 362 960 407 866 c 1
 502 1316 l 1
 1415 1316 l 1
 1383 1166 l 1
 1116 1166 l 1
 1032 773 l 1
 1299 773 l 1
 1267 623 l 1
 1001 623 l 1
 933 307 l 2
 896 132 637 -20 414 -20 c 0
 156 -20 7 120 68 409 c 0
 106 588 218 691 308 738 c 1
 211 866 203 1046 245 1246 c 0
 319 1593 579 2105 1172 2105 c 0
786 774 m 1
 870 1167 l 1
 609 1167 l 1
 526 774 l 1
 786 774 l 1
429 624 m 2
 376 624 242 574 202 384 c 0
 170 232 215 131 415 131 c 0
 528 131 668 228 685 299 c 1
 754 624 l 1
 429 624 l 2
EndSplineSet
Ligature2: "sub_ligature_pststaml_0-0 subtable" u0B9A u0BBF
LCarets2: 1 0
EndChar

StartChar: u0B95_u0BB7
Encoding: 129 -1 129
Width: 3981
GlyphClass: 2
Flags: HW
HStem: -24 225<1370.51 1579.28> -24 155<251.393 564.051 2274 3053 3323 3586.57> 488 163<3431 3542.23> 534 157<3076.87 3175> 624 150<528 756 1036 1221 1396 1659.73> 1167 150<611 872 1120 1387 1734.97 2111.41 3019.26 3246.4>
VStem: 1221 138<224.78 621> 1265 131<774 866.758>
AnchorPoint: "R" 3372 1215 exit 0
LayerCount: 2
Fore
SplineSet
3219 1318 m 0x55
 3506 1318 3538 1156 3515 1048 c 2
 3431 651 l 1
 3653 603 3851 507 3807 301 c 1
 3762 92 3623 -24 3430 -24 c 2
 3286 -24 l 1
 3154 -641 l 1
 2922 -641 l 1
 3053 -24 l 1
 1883 -24 l 1
 1930 19 l 2
 2105 174 2228 360 2276 588 c 0
 2348 927 2220 1163 1952 1163 c 0
 1625 1163 1441 919 1396 770 c 1x65
 1648 770 l 2
 1901 770 1974 639 1932 442 c 0
 1880 198 1729 -24 1508 -24 c 0
 1257 -24 1128 155 1221 621 c 1x86
 1003 621 l 1
 936 305 l 2
 899 130 639 -22 416 -22 c 0
 158 -22 9 118 70 407 c 0
 120 643 302 749 389 767 c 1
 506 1317 l 1
 1419 1317 l 1
 1387 1167 l 1
 1120 1167 l 1
 1036 774 l 1
 1265 774 l 1x8d
 1330 945 1520 1318 1989 1318 c 0
 2526 1318 2582 919 2514 600 c 0
 2475 416 2389 261 2274 131 c 1
 3089 131 l 1
 3175 534 l 1
 2935 588 2738 703 2790 947 c 0
 2827 1123 2944 1318 3219 1318 c 0x55
3275 1013 m 2
 3300 1130 3205 1159 3125 1159 c 0
 3017 1159 2946 1074 2919 949 c 0
 2905 881 2926 827 2985 785 c 0
 3043 744 3117 712 3207 691 c 1x14
 3275 1013 l 2
3656 313 m 0
 3671 382 3607 443 3399 488 c 1x24
 3323 128 l 1
 3469 128 l 2
 3557 128 3626 173 3656 313 c 0
1473 201 m 0x86
 1602 201 1670 362 1686 438 c 0
 1709 548 1678 621 1532 621 c 2
 1359 621 l 1
 1339 522 1323 401 1330 351 c 0
 1346 236 1403 201 1473 201 c 0x86
788 774 m 1x0c
 872 1167 l 1
 611 1167 l 1
 528 774 l 1
 788 774 l 1x0c
431 624 m 2
 378 624 244 574 204 384 c 0
 172 232 217 131 417 131 c 0x4c
 530 131 670 228 687 299 c 1
 756 624 l 1
 431 624 l 2
EndSplineSet
Ligature2: "akhnAkhandinTamillookup9 subtable" u0B95 u0BCD u0BB7
LCarets2: 2 0 0
EndChar

StartChar: u0B95_u0BB7_u0BBF
Encoding: 130 -1 130
Width: 4274
GlyphClass: 2
Flags: HW
LayerCount: 2
Fore
SplineSet
1990 1320 m 0xbfff
 2527 1320 2584 921 2516 602 c 0
 2477 418 2390 263 2275 133 c 1
 3090 133 l 1
 3176 536 l 1
 2936 590 2739 705 2791 949 c 0
 2828 1123 2944 1316 3213 1320 c 1
 3201 1383 3200 1481 3222 1586 c 0
 3309 1997 3631 2103 3912 2103 c 0
 4229 2103 4457 1981 4353 1491 c 2
 4030 -27 l 1
 3904 -27 l 1
 4227 1489 l 2
 4275 1715 4179 1860 3858 1860 c 0
 3541 1860 3397 1705 3348 1472 c 0
 3333 1402 3338 1344 3365 1295 c 1
 3507 1251 3532 1136 3513 1045 c 2
 3428 648 l 1
 3649 600 3851 505 3807 300 c 0
 3775 152 3671 -22 3431 -22 c 2
 3287 -22 l 1
 3156 -639 l 1
 2923 -639 l 1
 3054 -22 l 1
 1884 -22 l 1x7fff
 1932 21 l 2
 2107 176 2230 362 2278 590 c 0
 2350 929 2222 1165 1954 1165 c 0
 1627 1165 1442 921 1397 772 c 1
 1650 772 l 2
 1903 772 1975 641 1933 444 c 0
 1881 200 1731 -22 1510 -22 c 0
 1259 -22 1129 157 1222 623 c 1
 1004 623 l 1
 937 307 l 2
 900 132 640 -20 417 -20 c 0
 159 -20 10 120 71 409 c 0
 121 645 304 751 391 769 c 1
 508 1319 l 1
 1420 1319 l 1
 1388 1169 l 1
 1121 1169 l 1
 1038 776 l 1
 1266 776 l 1
 1331 947 1521 1320 1990 1320 c 0xbfff
427 619 m 2
 374 619 240 569 200 379 c 0
 168 227 213 126 413 126 c 0
 526 126 666 223 683 294 c 1
 752 619 l 1
 427 619 l 2
784 769 m 1
 868 1162 l 1
 607 1162 l 1
 524 769 l 1
 784 769 l 1
1355 616 m 1
 1301 349 1315 196 1470 196 c 0xbfff
 1599 196 1666 357 1682 433 c 0
 1705 543 1669 616 1528 616 c 2
 1355 616 l 1
3652 308 m 0
 3667 377 3603 438 3395 483 c 1
 3319 123 l 1
 3466 123 l 2
 3554 123 3622 168 3652 308 c 0
3272 1008 m 2
 3297 1125 3201 1154 3121 1154 c 0
 3013 1154 2942 1069 2915 944 c 0
 2883 795 3055 721 3203 686 c 1
 3272 1008 l 2
EndSplineSet
Ligature2: "sub_ligature_pststaml_2 subtable" u0B95_u0BB7 u0BBF
Ligature2: "akhnligs subtable" u0B95_u0BB7 u0BBF
LCarets2: 1 0
EndChar

StartChar: u0B95_u0BB7_u0BC0
Encoding: 131 -1 131
Width: 3981
GlyphClass: 2
Flags: HW
LayerCount: 2
Fore
SplineSet
3204 1593 m 0x7ff580
 3181 1484 3211 1384 3264 1318 c 1
 3434 1314 3550 1208 3516 1049 c 2
 3432 652 l 1
 3661 603 3850 507 3806 298 c 0
 3774 150 3670 -24 3430 -24 c 2
 3286 -24 l 1
 3154 -641 l 1
 2922 -641 l 1
 3053 -24 l 1
 1883 -24 l 1x7ff640
 1930 19 l 2
 2105 174 2228 360 2276 588 c 0
 2348 927 2220 1163 1952 1163 c 0
 1625 1163 1441 919 1396 770 c 1
 1648 770 l 2
 1901 770 1974 639 1932 442 c 0
 1880 198 1729 -24 1508 -24 c 0xbff640
 1257 -24 1128 155 1221 621 c 1
 1003 621 l 1
 936 305 l 2
 899 130 639 -22 416 -22 c 0
 158 -22 9 118 70 407 c 0
 120 643 302 749 389 767 c 1
 506 1317 l 1
 1419 1317 l 1
 1387 1167 l 1
 1120 1167 l 1
 1036 774 l 1
 1265 774 l 1
 1330 945 1520 1318 1989 1318 c 0
 2526 1318 2582 919 2514 600 c 0
 2475 416 2389 261 2274 131 c 1
 3089 131 l 1
 3175 534 l 1
 2935 588 2738 703 2790 947 c 0x7ffa40
 2833 1151 2964 1287 3124 1312 c 1
 3074 1386 3031 1495 3059 1628 c 0
 3142 2020 3439 2177 3686 2177 c 0
 3791 2177 3916 2159 4025 2086 c 0
 4089 2043 4160 1956 4119 1761 c 0
 4078 1566 3915 1426 3719 1426 c 0
 3506 1426 3452 1589 3482 1729 c 0
 3499 1808 3546 1898 3608 1955 c 1
 3595 1956 3583 1956 3570 1956 c 0
 3368 1956 3235 1738 3204 1593 c 0x7ff580
3617 1729 m 0x3ff180
 3598 1641 3643 1568 3724 1568 c 0
 3803 1568 3890 1632 3910 1728 c 0
 3931 1830 3886 1906 3789 1907 c 1
 3709 1890 3637 1821 3617 1729 c 0x3ff180
3277 1014 m 2
 3302 1131 3207 1160 3127 1160 c 0
 3019 1160 2948 1075 2921 950 c 0x3ff8
 2889 801 3061 727 3209 692 c 1
 3277 1014 l 2
3658 314 m 0x3ff040
 3673 383 3609 444 3401 489 c 1
 3325 129 l 1
 3472 129 l 2
 3560 129 3628 174 3658 314 c 0x3ff040
1361 622 m 1
 1294 288 1356 202 1475 202 c 0xbff0
 1604 202 1672 366 1688 439 c 0
 1711 549 1680 622 1534 622 c 2
 1361 622 l 1
790 775 m 1
 874 1168 l 1
 613 1168 l 1
 530 775 l 1
 790 775 l 1
433 625 m 2
 380 625 246 575 206 385 c 0
 174 233 219 132 419 132 c 0
 532 132 672 229 689 300 c 1
 758 625 l 1
 433 625 l 2
EndSplineSet
Ligature2: "sub_ligature_pststaml_4 subtable" u0B9A u0BB7 u0BC0
Ligature2: "akhnligs subtable" u0B95_u0BB7 u0BC0
LCarets2: 2 0 0
EndChar

StartChar: u0B95_u0BB7_u0BCD
Encoding: 132 -1 132
Width: 3981
GlyphClass: 2
Flags: HW
LayerCount: 2
Fore
SplineSet
3219 1318 m 0x7fee
 3506 1318 3538 1156 3515 1048 c 2
 3431 651 l 1
 3653 603 3851 507 3807 301 c 1
 3762 92 3623 -24 3430 -24 c 2
 3286 -24 l 1
 3154 -641 l 1
 2922 -641 l 1
 3053 -24 l 1
 1883 -24 l 1x7fee
 1930 19 l 2
 2105 174 2228 360 2276 588 c 0
 2348 927 2220 1163 1952 1163 c 0
 1625 1163 1441 919 1396 770 c 1
 1648 770 l 2
 1901 770 1974 639 1932 442 c 0
 1880 198 1729 -24 1508 -24 c 0xbfee
 1257 -24 1128 155 1221 621 c 1
 1003 621 l 1
 936 305 l 2
 899 130 639 -22 416 -22 c 0
 158 -22 9 118 70 407 c 0
 120 643 302 749 389 767 c 1
 506 1317 l 1
 1419 1317 l 1
 1387 1167 l 1
 1120 1167 l 1
 1036 774 l 1
 1265 774 l 1
 1330 945 1520 1318 1989 1318 c 0
 2526 1318 2582 919 2514 600 c 0
 2475 416 2389 261 2274 131 c 1
 3089 131 l 1
 3175 534 l 1
 2935 588 2738 703 2790 947 c 0
 2827 1123 2944 1318 3219 1318 c 0x7fee
3275 1013 m 2
 3300 1130 3205 1159 3125 1159 c 0
 3017 1159 2946 1074 2919 949 c 0
 2891 817 3018 742 3172 701 c 1
 3207 692 l 1
 3275 1013 l 2
3656 313 m 0
 3671 382 3607 443 3399 488 c 1
 3323 128 l 1
 3469 128 l 2
 3557 128 3626 173 3656 313 c 0
1473 201 m 0xbfce
 1602 201 1671 367 1686 438 c 0
 1709 548 1678 621 1532 621 c 2
 1359 621 l 1
 1339 522 1323 401 1330 351 c 0
 1346 236 1403 201 1473 201 c 0xbfce
788 774 m 1
 872 1167 l 1
 611 1167 l 1
 528 774 l 1
 788 774 l 1
431 624 m 2
 378 624 244 574 204 384 c 0
 172 232 217 131 417 131 c 0x7fce
 530 131 670 228 687 299 c 1
 756 624 l 1
 431 624 l 2
2526 1673 m 0x3fde
 2548 1775 2638 1861 2739 1861 c 0
 2840 1861 2894 1773 2873 1673 c 0
 2851 1569 2754 1485 2659 1485 c 0
 2565 1485 2503 1566 2526 1673 c 0x3fde
EndSplineSet
Ligature2: "pstspostbasesubstitution subtable" u0B9A u0BB7 u0BCD
Ligature2: "pstspostbasesubstitution subtable" u0B95_u0BB7 u0BCD
Ligature2: "akhnligs subtable" u0B95_u0BB7 u0BCD
LCarets2: 2 0 0
EndChar

StartChar: u0B9A_u0BC0
Encoding: 133 -1 133
Width: 1374
GlyphClass: 1
Flags: HW
LayerCount: 2
Fore
SplineSet
1247 1723 m 0xfec0
 1227 1627 1281 1563 1355 1563 c 0
 1442 1563 1524 1639 1542 1726 c 0
 1560 1811 1525 1901 1418 1902 c 1
 1335 1884 1266 1812 1247 1723 c 0xfec0
785 773 m 1xff40
 869 1166 l 1
 608 1166 l 1
 525 773 l 1
 785 773 l 1xff40
428 623 m 2
 375 623 241 573 201 383 c 0
 169 231 214 130 414 130 c 0
 527 130 667 227 684 298 c 1
 753 623 l 1
 428 623 l 2
65 411 m 0
 104 593 218 694 305 738 c 1
 208 866 200 1046 242 1246 c 0
 360 1801 808 2175 1317 2175 c 0
 1422 2175 1547 2157 1656 2084 c 0
 1720 2041 1791 1954 1750 1759 c 0
 1708 1563 1545 1424 1349 1424 c 0
 1136 1424 1082 1589 1111 1727 c 0xfec0
 1128 1808 1174 1895 1238 1954 c 1
 1225 1955 1211 1956 1198 1956 c 0
 773 1956 450 1568 385 1260 c 0
 353 1109 359 962 404 868 c 1
 499 1318 l 1
 1409 1318 l 1
 1377 1168 l 1
 1113 1168 l 1
 1029 775 l 1
 1293 775 l 1
 1261 625 l 1
 997 625 l 1
 930 309 l 2
 893 134 634 -18 411 -18 c 0
 153 -18 4 122 65 411 c 0
EndSplineSet
Ligature2: "sub_ligature_pststaml_0-0 subtable" u0B9A u0BC0
LCarets2: 1 0
EndChar

StartChar: u0B9A_u0BC1
Encoding: 134 -1 134
Width: 1808
GlyphClass: 2
Flags: HW
LayerCount: 2
Fore
SplineSet
784 771 m 1
 867 1164 l 1
 607 1164 l 1
 523 771 l 1
 784 771 l 1
426 621 m 2
 373 621 240 571 200 381 c 0
 168 229 213 128 413 128 c 0
 526 128 666 225 683 296 c 1
 752 621 l 1
 426 621 l 2
65 408 m 0
 115 644 297 750 384 768 c 1
 501 1318 l 1
 1413 1318 l 1
 1381 1168 l 1
 1115 1168 l 1
 1031 775 l 1
 1735 775 l 1
 1703 625 l 1
 1464 625 l 1
 1326 -23 l 1
 1078 -23 l 1
 1215 622 l 1
 998 622 l 1
 930 306 l 2
 893 131 634 -21 411 -21 c 0
 153 -21 4 119 65 408 c 0
EndSplineSet
Ligature2: "sub_ligature_pststaml_6 subtable" u0B9A u0BC1
LCarets2: 1 0
EndChar

StartChar: u0B9A_u0BC2
Encoding: 135 -1 135
Width: 2060
GlyphClass: 2
Flags: HW
LayerCount: 2
Fore
SplineSet
784 771 m 1xfef0
 867 1164 l 1
 607 1164 l 1
 523 771 l 1
 784 771 l 1xfef0
426 621 m 2
 373 621 240 571 200 381 c 0
 168 229 213 128 413 128 c 0
 526 128 666 225 683 296 c 1
 752 621 l 1
 426 621 l 2
732 -583 m 0
 1165 -583 1519 -276 1587 43 c 0
 1641 296 1544 370 1469 370 c 0
 1446 370 1426 364 1407 349 c 1
 1324 -23 l 1
 1078 -23 l 1
 1215 622 l 1
 998 622 l 1
 930 306 l 2
 893 131 634 -21 411 -21 c 0
 153 -21 4 119 65 408 c 0
 115 644 297 750 384 768 c 1
 501 1318 l 1xfef0
 1413 1318 l 1
 1381 1168 l 1
 1115 1168 l 1
 1031 775 l 1
 1735 775 l 1
 1703 625 l 1
 1464 625 l 1
 1440 512 l 1
 1483 536 1536 549 1581 549 c 0
 1727 549 1913 423 1834 51 c 0
 1734 -421 1291 -735 779 -735 c 0
 152 -735 85 -499 118 -341 c 0
 153 -178 318 -70 539 -70 c 0
 719 -70 832 -145 883 -209 c 2
 894 -222 l 1
 825 -316 l 1
 807 -298 l 2
 754 -243 634 -192 499 -192 c 0
 406 -192 278 -220 254 -333 c 0xff70
 211 -533 513 -583 732 -583 c 0
EndSplineSet
Ligature2: "sub_ligature_pststaml_8 subtable" u0B9A u0BC2
LCarets2: 1 0
EndChar

StartChar: u0B9A_u0BCD
Encoding: 136 -1 136
Width: 1381
GlyphClass: 2
Flags: HW
LayerCount: 2
Fore
SplineSet
64 406 m 0xfd
 114 642 297 748 384 766 c 1
 501 1316 l 1
 1413 1316 l 1
 1381 1166 l 1
 1114 1166 l 1
 1031 773 l 1
 1298 773 l 1
 1264 620 l 1
 997 620 l 1
 930 304 l 2
 893 129 633 -23 410 -23 c 0
 152 -23 3 117 64 406 c 0xfd
785 773 m 1
 869 1166 l 1
 608 1166 l 1
 525 773 l 1
 785 773 l 1
428 623 m 2
 375 623 241 573 201 383 c 0
 169 231 214 130 414 130 c 0
 527 130 667 227 684 298 c 1
 753 623 l 1
 428 623 l 2
861 1672 m 0xfe
 885 1784 984 1860 1075 1860 c 0
 1176 1860 1231 1772 1210 1672 c 0
 1188 1568 1090 1484 995 1484 c 0
 900 1484 839 1569 861 1672 c 0xfe
EndSplineSet
Ligature2: "pstspostbasesubstitution subtable" u0B9A u0BCD
LCarets2: 1 0
EndChar

StartChar: u0B9C
Encoding: 137 2972 137
Width: 1727
GlyphClass: 1
Flags: HW
HStem: -502 160<246.35 536.839 887.515 1165.83> -14 163<1008.62 1212.8> 419 176<300.854 462.478> 882 184<379.99 619.5> 1158 152<512.885 825.732 1188.7 1404.69>
AnchorPoint: "R" 1461 1215 exit 0
LayerCount: 2
Fore
SplineSet
1101 -14 m 0
 945 -14 722 -502 361 -502 c 0
 87 -502 -106 -389 -40 -80 c 0
 17 187 329 336 718 365 c 0
 1117 395 1234 398 1335 570 c 0
 1378 643 1413 739 1438 857 c 0
 1465 985 1460 1160 1287 1160 c 0
 1178 1160 1121 1018 1111 971 c 2
 1029 585 l 1
 796 585 l 1
 875 955 l 2
 892 1034 862 1158 684 1158 c 0
 564 1158 447 1099 378 1025 c 1
 417 1048 467 1066 527 1066 c 0
 712 1066 763 890 731 739 c 0
 688 535 542 419 364 419 c 0
 187 419 96 544 165 868 c 0
 192 994 260 1100 370 1185 c 0
 495 1282 631 1310 752 1310 c 0
 915 1310 1023 1269 1062 1178 c 1
 1121 1256 1210 1310 1343 1310 c 0
 1622 1310 1730 1127 1668 837 c 0
 1640 707 1550 431 1335 324 c 0
 1332 322 1285 295 1235 280 c 2
 1191 267 l 1
 1111 245 963 227 785 227 c 0
 326 227 222 43 197 -75 c 0
 156 -266 257 -342 364 -342 c 0
 525 -342 623 -252 715 -147 c 2
 786 -67 l 1
 920 88 1047 149 1201 149 c 0
 1395 149 1497 36 1455 -161 c 0
 1423 -313 1305 -500 1043 -500 c 0
 965 -500 902 -486 856 -454 c 2
 841 -444 l 1
 903 -326 l 1
 924 -334 l 2
 946 -343 986 -349 1051 -349 c 0
 1159 -349 1201 -259 1217 -184 c 0
 1245 -50 1211 -14 1101 -14 c 0
378 595 m 0
 465 595 506 697 516 745 c 0
 531 816 497 882 425 882 c 0
 376 882 331 855 287 797 c 1
 265 687 292 595 378 595 c 0
EndSplineSet
EndChar

StartChar: u0B9C_u0BBF
Encoding: 138 -1 138
Width: 2075
GlyphClass: 2
Flags: HW
LayerCount: 2
Fore
SplineSet
380 597 m 0xfdf8
 465 597 506 699 517 750 c 0
 532 823 498 887 428 887 c 0
 379 887 334 860 290 802 c 1
 269 694 293 597 380 597 c 0xfdf8
365 425 m 0
 188 425 97 550 166 874 c 0xfdf8
 220 1130 459 1314 753 1314 c 0
 926 1314 1027 1268 1064 1182 c 1
 1112 1243 1177 1283 1256 1302 c 1
 1236 1378 1239 1473 1263 1588 c 0
 1311 1815 1473 2105 1846 2105 c 0
 2049 2105 2125 2015 2164 1897 c 0
 2200 1787 2181 1625 2153 1495 c 2
 1831 -23 l 1
 1704 -23 l 1
 2026 1493 l 2
 2044 1580 2047 1675 2007 1759 c 0
 1974 1828 1904 1864 1791 1864 c 0
 1536 1864 1432 1676 1390 1477 c 0
 1378 1422 1375 1361 1398 1307 c 1
 1566 1302 1744 1192 1670 843 c 0
 1546 261 1176 233 787 233 c 0
 333 233 222 46 197 -73 c 0
 157 -263 255 -341 364 -341 c 0
 533 -341 636 -229 700 -159 c 2
 798 -53 l 1
 878 31 997 149 1199 149 c 0
 1392 149 1496 39 1454 -158 c 0
 1422 -306 1306 -500 1041 -500 c 0
 963 -500 900 -486 854 -454 c 2
 840 -444 l 1
 901 -326 l 1
 922 -334 l 2
 944 -343 984 -349 1049 -349 c 0
 1156 -349 1200 -257 1216 -181 c 0
 1244 -52 1214 -14 1100 -14 c 0
 937 -14 730 -497 362 -497 c 0
 -64 -497 -74 -243 -39 -78 c 0xfef8
 39 289 539 351 803 370 c 0
 1196 398 1267 446 1342 585 c 0
 1384 663 1416 755 1439 863 c 0
 1466 990 1460 1162 1287 1162 c 0
 1178 1162 1122 1023 1112 977 c 2
 1030 591 l 1
 798 591 l 1
 876 961 l 2
 893 1040 863 1164 685 1164 c 0
 563 1164 443 1104 375 1027 c 1
 415 1051 465 1068 527 1068 c 0
 699 1068 769 914 733 745 c 0
 690 541 543 425 365 425 c 0
EndSplineSet
Ligature2: "sub_ligature_pststaml_2 subtable" u0B9C u0BBF
LCarets2: 1 0
EndChar

StartChar: u0B9C_u0BC0
Encoding: 139 -1 139
Width: 1828
GlyphClass: 2
Flags: HW
LayerCount: 2
Fore
SplineSet
1252 1302 m 1xfee6
 1201 1378 1163 1494 1190 1619 c 0
 1282 2053 1616 2167 1817 2167 c 0
 2055 2167 2315 2061 2249 1751 c 0
 2207 1555 2044 1416 1848 1416 c 0
 1635 1416 1581 1581 1610 1719 c 0xfeda
 1627 1800 1673 1887 1737 1946 c 1
 1723 1947 1710 1948 1697 1948 c 0
 1534 1948 1375 1784 1333 1585 c 0
 1309 1474 1329 1392 1396 1309 c 1
 1656 1301 1715 1060 1668 837 c 0
 1640 707 1550 431 1335 324 c 0
 1332 322 1285 295 1235 280 c 2
 1191 267 l 1
 1111 245 963 227 785 227 c 0
 326 227 222 43 197 -75 c 0
 156 -266 257 -342 364 -342 c 0
 525 -342 623 -252 715 -147 c 2
 786 -67 l 1
 920 88 1047 149 1201 149 c 0
 1395 149 1497 36 1455 -161 c 0
 1423 -313 1305 -500 1043 -500 c 0
 965 -500 902 -486 856 -454 c 2
 841 -444 l 1
 903 -326 l 1
 924 -334 l 2
 946 -343 986 -349 1051 -349 c 0
 1159 -349 1201 -259 1217 -184 c 0
 1245 -50 1211 -14 1101 -14 c 0
 945 -14 722 -502 361 -502 c 0
 87 -502 -106 -389 -40 -80 c 0xff56
 17 187 329 336 718 365 c 0
 1117 395 1234 398 1335 570 c 0
 1378 643 1413 739 1438 857 c 0
 1465 985 1460 1160 1287 1160 c 0
 1178 1160 1121 1018 1111 971 c 2
 1029 585 l 1
 796 585 l 1
 875 955 l 2
 892 1034 862 1158 684 1158 c 0
 564 1158 447 1099 378 1025 c 1
 417 1048 467 1066 527 1066 c 0
 712 1066 763 890 731 739 c 0
 688 535 542 419 364 419 c 0
 187 419 96 544 165 868 c 0
 192 994 260 1100 370 1185 c 0
 495 1282 631 1310 752 1310 c 0
 915 1310 1023 1269 1062 1179 c 1
 1109 1242 1175 1285 1252 1302 c 1xfee6
378 595 m 0
 465 595 506 697 516 745 c 0
 531 816 497 882 425 882 c 0
 376 882 331 855 287 797 c 1
 265 687 292 595 378 595 c 0
1742 1718 m 0
 1722 1622 1775 1558 1849 1558 c 0
 1936 1558 2019 1634 2037 1721 c 0
 2055 1806 2020 1896 1913 1897 c 1
 1830 1879 1761 1807 1742 1718 c 0
EndSplineSet
Ligature2: "sub_ligature_pststaml_4 subtable" u0B9C u0BC0
LCarets2: 1 0
EndChar

StartChar: u0B9C_u0BCD
Encoding: 140 -1 140
Width: 1727
GlyphClass: 2
Flags: HW
LayerCount: 2
Fore
SplineSet
380 597 m 0xfd90
 465 597 506 699 517 750 c 0
 532 823 498 887 428 887 c 0
 379 887 334 860 290 802 c 1
 269 694 293 597 380 597 c 0xfd90
753 1314 m 0
 927 1314 1028 1268 1064 1182 c 1
 1162 1303 1306 1317 1366 1317 c 0
 1573 1317 1735 1153 1668 837 c 0
 1546 265 1181 233 787 233 c 0
 333 233 222 46 197 -73 c 0
 157 -263 255 -341 364 -341 c 0
 533 -341 636 -229 700 -159 c 2
 798 -53 l 1
 878 31 997 149 1199 149 c 0
 1392 149 1496 39 1454 -158 c 0
 1422 -306 1306 -500 1041 -500 c 0
 963 -500 900 -486 854 -454 c 2
 840 -444 l 1
 901 -326 l 1
 922 -334 l 2
 944 -343 984 -349 1049 -349 c 0
 1156 -349 1200 -257 1216 -181 c 0
 1244 -52 1214 -14 1100 -14 c 0
 937 -14 730 -497 362 -497 c 0
 -64 -497 -74 -243 -39 -78 c 0
 39 289 539 351 803 370 c 0
 1196 398 1267 446 1342 585 c 0
 1384 663 1416 755 1439 863 c 0
 1466 990 1460 1162 1287 1162 c 0
 1178 1162 1122 1023 1112 977 c 2
 1030 591 l 1
 798 591 l 1
 876 961 l 2xfeb0
 893 1040 863 1164 685 1164 c 0
 563 1164 443 1104 375 1027 c 1
 415 1051 465 1068 527 1068 c 0
 699 1068 769 914 733 745 c 0
 690 541 543 425 365 425 c 0
 188 425 97 550 166 874 c 0
 220 1130 459 1314 753 1314 c 0
974 1664 m 0xfcd0
 996 1768 1093 1852 1188 1852 c 0
 1285 1852 1345 1766 1323 1664 c 0
 1302 1566 1205 1476 1108 1476 c 0
 1017 1476 952 1559 974 1664 c 0xfcd0
EndSplineSet
Ligature2: "pstspostbasesubstitution subtable" u0B9C u0BCD
LCarets2: 1 0
EndChar

StartChar: u0B9E
Encoding: 141 2974 141
Width: 2355
GlyphClass: 1
Flags: HW
LayerCount: 2
Fore
SplineSet
1868 799 m 0xefc0
 2155 799 2234 553 2175 273 c 0
 2040 -361 1458 -598 915 -598 c 0
 305 -598 -75 -264 72 429 c 0
 121 660 261 1080 537 1305 c 2
 556 1321 l 1
 630 1231 l 1
 608 1212 l 2
 370 1004 257 647 209 420 c 0
 98 -102 386 -448 924 -448 c 0
 1616 -448 1868 -4 1931 292 c 0
 1956 411 1958 610 1784 610 c 0xefc0
 1717 610 1667 587 1632 540 c 1
 1512 -26 l 1
 1266 -26 l 1
 1519 1164 l 1
 1164 1164 l 2
 870 1164 687 968 621 801 c 1
 687 847 775 872 862 872 c 0xdfc0
 1085 872 1197 696 1143 442 c 0
 1092 204 967 -25 720 -25 c 0
 381 -25 369 320 427 593 c 0
 520 1030 809 1315 1173 1315 c 2
 2066 1315 l 1
 2034 1165 l 1
 1767 1165 l 1
 1676 740 l 1
 1731 779 1804 799 1868 799 c 0xefc0
555 545 m 1
 501 286 591 199 684 199 c 0
 789 199 866 308 892 430 c 0
 924 582 846 684 762 684 c 0xdfc0
 652 684 586 606 555 545 c 1
EndSplineSet
EndChar

StartChar: u0B9E_u0BBF
Encoding: 142 -1 142
Width: 2607
GlyphClass: 2
Flags: HW
LayerCount: 2
Fore
SplineSet
1172 1316 m 2xdfd8
 1628 1316 l 1
 1613 1399 1615 1490 1636 1588 c 0
 1701 1892 1903 2103 2299 2103 c 0
 2725 2103 2764 1860 2686 1491 c 2
 2364 -25 l 1
 2238 -25 l 1
 2561 1491 l 2
 2624 1788 2486 1862 2245 1862 c 0
 1948 1862 1811 1707 1762 1474 c 0
 1749 1412 1752 1360 1772 1316 c 1
 2064 1316 l 1
 2032 1166 l 1
 1765 1166 l 1
 1684 784 l 1
 1725 816 1787 848 1878 848 c 0
 2028 848 2219 688 2121 225 c 0
 2051 -104 1749 -595 886 -595 c 0
 302 -595 -61 -184 70 431 c 0
 119 662 259 1082 535 1307 c 2
 554 1323 l 1
 627 1233 l 1
 606 1214 l 2
 368 1006 254 649 206 422 c 0
 95 -99 453 -446 923 -446 c 0
 1583 -446 1834 -30 1893 248 c 0
 1958 552 1851 652 1765 652 c 0xefb8
 1717 652 1678 632 1643 594 c 1
 1511 -25 l 1
 1266 -25 l 1
 1518 1165 l 1
 1163 1165 l 2
 869 1165 686 969 620 802 c 1
 686 848 774 873 861 873 c 0
 1084 873 1197 697 1143 443 c 0
 1092 205 966 -24 719 -24 c 0
 380 -24 368 321 426 594 c 0
 519 1031 808 1316 1172 1316 c 2xdfd8
554 541 m 1
 500 282 591 195 684 195 c 0
 786 195 864 300 891 425 c 0
 892 428 891 431 892 434 c 0
 917 552 863 680 762 680 c 0xdf98
 652 680 585 602 554 541 c 1
EndSplineSet
Ligature2: "sub_ligature_pststaml_2 subtable" u0B9E u0BBF
LCarets2: 1 0
EndChar

StartChar: u0B9E_u0BC0
Encoding: 143 -1 143
Width: 2356
GlyphClass: 2
Flags: HW
LayerCount: 2
Fore
SplineSet
556 543 m 1xdff8
 502 284 592 197 685 197 c 0
 780 197 863 292 892 429 c 0
 925 584 845 682 763 682 c 0
 653 682 587 604 556 543 c 1xdff8
2022 1722 m 0
 2002 1626 2055 1562 2129 1562 c 0
 2216 1562 2298 1638 2316 1725 c 0xcffa
 2334 1810 2299 1900 2192 1901 c 1
 2109 1883 2041 1811 2022 1722 c 0
2013 1953 m 1
 2000 1954 1987 1955 1974 1955 c 0
 1811 1955 1651 1791 1609 1592 c 0
 1581 1459 1629 1360 1663 1318 c 1
 2066 1318 l 1
 2034 1166 l 1
 1767 1166 l 1
 1677 741 l 1
 1732 780 1804 800 1868 800 c 0
 2143 800 2232 547 2180 301 c 0
 2041 -351 1487 -595 915 -595 c 0
 305 -595 -75 -261 72 432 c 0
 121 663 261 1083 537 1308 c 2
 556 1324 l 1
 629 1234 l 1
 608 1215 l 2
 370 1007 256 650 208 423 c 0
 97 -99 386 -445 924 -445 c 0
 1616 -445 1868 -1 1931 295 c 0
 1958 420 1955 613 1783 613 c 0xeffc
 1716 613 1667 590 1632 543 c 1
 1511 -23 l 1
 1266 -23 l 1
 1519 1167 l 1
 1164 1167 l 2
 870 1167 686 971 620 804 c 1
 686 850 775 875 862 875 c 0xdff8
 1085 875 1197 699 1143 445 c 0
 1092 207 966 -22 719 -22 c 0
 380 -22 369 323 427 596 c 0
 520 1033 808 1318 1172 1318 c 2
 1520 1318 l 1
 1476 1387 1438 1496 1466 1627 c 0
 1558 2061 1892 2175 2087 2175 c 0
 2326 2175 2597 2092 2526 1760 c 0
 2484 1564 2322 1424 2124 1424 c 0
 1911 1424 1857 1589 1886 1727 c 0
 1902 1804 1950 1895 2013 1953 c 1
EndSplineSet
Ligature2: "sub_ligature_pststaml_4 subtable" u0B9E u0BC0
LCarets2: 1 0
EndChar

StartChar: u0B9E_u0BC1
Encoding: 144 -1 144
Width: 2861
GlyphClass: 2
Flags: HW
LayerCount: 2
Fore
SplineSet
1870 799 m 0xf7e0
 2145 799 2235 546 2183 300 c 0
 2155 168 2105 38 2033 -89 c 1
 2358 -89 l 1
 2656 1316 l 1
 2903 1316 l 1
 2572 -240 l 1
 1933 -240 l 1
 1773 -446 1443 -740 884 -740 c 0
 158 -740 -75 -351 -58 -194 c 2
 -58 -192 l 1
 -58 -191 l 2
 -44 -127 0 -90 72 -90 c 2
 1772 -90 l 1
 1852 33 1906 160 1934 292 c 0
 1961 417 1958 610 1786 610 c 0xf7e0
 1719 610 1670 587 1635 540 c 1
 1514 -26 l 1
 1269 -26 l 1
 1522 1164 l 1
 1167 1164 l 2
 873 1164 689 968 623 801 c 1
 689 847 778 872 865 872 c 0xefe0
 1088 872 1200 696 1146 442 c 0
 1095 204 969 -25 722 -25 c 0
 383 -25 372 320 430 593 c 0
 523 1030 811 1315 1175 1315 c 2
 2068 1315 l 1
 2036 1165 l 1
 1769 1165 l 1
 1679 740 l 1
 1734 779 1806 799 1870 799 c 0xf7e0
102 -247 m 1
 99 -259 103 -246 103 -250 c 0
 111 -316 312 -588 896 -590 c 0
 1058 -591 1206 -555 1339 -484 c 0
 1470 -414 1573 -329 1655 -241 c 1
 136 -241 l 2
 121 -241 108 -243 102 -247 c 1
556 543 m 1
 502 284 592 197 685 197 c 0
 780 197 863 292 892 429 c 0
 925 584 845 682 763 682 c 0xefe0
 653 682 587 604 556 543 c 1
EndSplineSet
Ligature2: "sub_ligature_pststaml_6 subtable" u0B9E u0BC1
LCarets2: 1 0
EndChar

StartChar: u0B9E_u0BC2
Encoding: 145 -1 145
Width: 3528
GlyphClass: 2
Flags: HW
LayerCount: 2
Fore
SplineSet
2179 303 m 0xf7f0
 2150 165 2101 36 2032 -84 c 1
 2356 -84 l 1
 2655 1321 l 1
 3568 1321 l 1
 3536 1171 l 1
 3269 1171 l 1
 2970 -234 l 1
 2725 -234 l 1
 3024 1171 l 1
 2763 1171 l 1
 2464 -234 l 1
 1930 -234 l 1
 1771 -440 1440 -733 883 -733 c 0
 157 -733 -76 -344 -59 -187 c 2
 -59 -185 l 1
 -58 -184 l 2
 -44 -120 0 -83 72 -83 c 2
 1768 -87 l 1
 1848 36 1902 163 1930 295 c 0
 1957 421 1954 613 1782 613 c 0xf7f0
 1715 613 1666 590 1631 543 c 1
 1511 -23 l 1
 1265 -23 l 1
 1518 1167 l 1
 1163 1167 l 2
 869 1167 685 971 619 804 c 1
 685 850 774 875 861 875 c 0xeff0
 1084 875 1196 699 1142 445 c 0
 1091 207 965 -22 718 -22 c 0
 379 -22 368 323 426 596 c 0
 519 1033 808 1318 1172 1318 c 2
 2064 1318 l 1
 2032 1168 l 1
 1766 1168 l 1
 1675 743 l 1
 1730 782 1802 802 1866 802 c 0
 2141 802 2231 549 2179 303 c 0xf7f0
87 -247 m 1
 84 -259 87 -247 88 -251 c 0
 98 -320 309 -586 893 -588 c 0
 1010 -588 1341 -575 1654 -241 c 1
 121 -241 l 2
 106 -241 93 -243 87 -247 c 1
556 543 m 1
 502 284 592 197 685 197 c 0
 780 197 863 292 892 429 c 0
 925 584 845 682 763 682 c 0xeff0
 653 682 587 604 556 543 c 1
EndSplineSet
Ligature2: "sub_ligature_pststaml_8 subtable" u0B9E u0BC2
LCarets2: 1 0
EndChar

StartChar: u0B9E_u0BCD
Encoding: 146 -1 146
Width: 2315
GlyphClass: 2
Flags: HW
LayerCount: 2
Fore
SplineSet
1868 799 m 0xefb0
 2143 799 2233 548 2180 298 c 0
 2050 -313 1543 -598 915 -598 c 0
 305 -598 -75 -264 72 429 c 0
 121 660 261 1080 537 1305 c 2
 556 1321 l 1
 630 1231 l 1
 608 1212 l 2
 370 1004 257 647 209 420 c 0
 98 -102 386 -448 924 -448 c 0
 1616 -448 1868 -4 1931 292 c 0
 1958 417 1956 610 1784 610 c 0xefb0
 1717 610 1667 587 1632 540 c 1
 1512 -26 l 1
 1266 -26 l 1
 1519 1164 l 1
 1164 1164 l 2
 870 1164 687 968 621 801 c 1
 687 847 775 872 862 872 c 0xdfb0
 1085 872 1197 696 1143 442 c 0
 1092 204 967 -25 720 -25 c 0
 381 -25 369 320 427 593 c 0
 520 1030 809 1315 1173 1315 c 2
 2066 1315 l 1
 2034 1165 l 1
 1767 1165 l 1
 1676 740 l 1
 1731 779 1804 799 1868 799 c 0xefb0
555 545 m 1
 501 286 591 199 684 199 c 0
 779 199 863 294 892 431 c 0
 925 586 844 684 762 684 c 0xdf90
 652 684 586 606 555 545 c 1
1389 1671 m 0xcf50
 1411 1775 1509 1859 1604 1859 c 0
 1701 1859 1761 1773 1739 1671 c 0
 1718 1573 1621 1483 1524 1483 c 0
 1433 1483 1367 1566 1389 1671 c 0xcf50
EndSplineSet
Ligature2: "pstspostbasesubstitution subtable" u0B9E u0BCD
LCarets2: 1 0
EndChar

StartChar: u0B9F
Encoding: 147 2975 147
Width: 1915
GlyphClass: 1
Flags: HW
LayerCount: 2
Fore
SplineSet
1671 -25 m 1
 -28 -25 l 1
 257 1315 l 1
 490 1315 l 1
 237 125 l 1
 1703 125 l 1
 1671 -25 l 1
EndSplineSet
EndChar

StartChar: u0B9F_u0BBF
Encoding: 148 -1 148
Width: 1701
GlyphClass: 2
Flags: HW
LayerCount: 2
Fore
SplineSet
1172 1311 m 0
 1412 1311 1429 1096 1402 969 c 2
 1219 108 l 1
 1486 108 l 1
 1458 -25 l 1
 1191 -25 l 1
 1060 -642 l 1
 828 -642 l 1
 959 -25 l 1
 -28 -25 l 1
 257 1315 l 1
 490 1315 l 1
 234 111 l 1
 775 111 l 1
 647 263 574 526 633 802 c 0
 699 1110 915 1311 1172 1311 c 0
1172 983 m 2
 1192 1076 1122 1097 1095 1097 c 0
 953 1097 828 959 781 737 c 0
 722 461 851 222 989 124 c 1
 1172 983 l 2
EndSplineSet
Ligature2: "sub_ligature_pststaml_2 subtable" u0B9F u0BBF
LCarets2: 1 0
EndChar

StartChar: u0B9F_u0BC0
Encoding: 149 -1 149
Width: 1594
GlyphClass: 2
Flags: HW
LayerCount: 2
Fore
SplineSet
564 400 m 0
 529 235 607 137 634 111 c 1
 1380 111 l 1
 1351 -25 l 1
 -28 -25 l 1
 257 1315 l 1
 490 1315 l 1
 234 111 l 1
 487 111 l 1
 439 176 391 289 422 436 c 0
 514 870 855 983 1047 983 c 0
 1152 983 1277 965 1386 892 c 0
 1450 849 1521 762 1480 567 c 0
 1432 339 1238 234 1082 234 c 0
 851 234 818 418 843 535 c 0
 859 609 907 704 970 763 c 1
 953 765 940 765 931 765 c 0
 747 765 599 566 564 400 c 0
977 533 m 0
 958 441 1009 373 1084 373 c 0
 1161 373 1248 434 1272 535 c 1
 1291 622 1255 710 1148 711 c 1
 1068 694 997 625 977 533 c 0
EndSplineSet
Ligature2: "sub_ligature_pststaml_4 subtable" u0B9F u0BC0
LCarets2: 1 0
EndChar

StartChar: u0B9F_u0BC1
Encoding: 150 -1 150
Width: 2007
GlyphClass: 2
Flags: HW
LayerCount: 2
Fore
SplineSet
1264 1914 m 0
 1749 1914 1925 1628 1961 1355 c 1
 1975 1234 1971 1038 1900 704 c 0
 1844 442 1774 206 1689 -5 c 2
 1681 -25 l 1
 1553 -25 l 1
 1567 6 l 2
 1639 165 1698 353 1744 567 c 0
 1879 1201 1817 1634 1200 1634 c 0
 676 1634 366 1152 256 634 c 0
 69 -245 400 -385 639 -385 c 0
 981 -385 1199 -21 1265 291 c 0
 1288 397 1287 609 1105 609 c 0
 1030 609 976 586 940 539 c 1
 820 -27 l 1
 573 -27 l 1
 858 1313 l 1
 1105 1313 l 1
 981 734 l 1
 1039 773 1118 796 1186 796 c 0
 1476 796 1560 521 1512 296 c 0
 1401 -226 1092 -538 627 -538 c 0
 358 -538 186 -427 111 -209 c 0
 37 7 40 298 117 660 c 0
 252 1297 612 1914 1264 1914 c 0
EndSplineSet
Ligature2: "sub_ligature_pststaml_6 subtable" u0B9F u0BC1
LCarets2: 1 0
EndChar

StartChar: u0B9F_u0BC2
Encoding: 151 -1 151
Width: 1991
GlyphClass: 2
Flags: HW
LayerCount: 2
Fore
SplineSet
1301 1915 m 0xdf80
 1700 1915 1919 1511 1839 1134 c 2
 1839 1133 l 1
 1839 1131 l 2
 1782 951 1670 795 1446 775 c 1xbf80
 1162 775 1138 975 1165 1100 c 0
 1195 1243 1316 1425 1539 1425 c 0
 1555 1425 1571 1425 1583 1424 c 1
 1568 1592 1404 1693 1223 1693 c 0
 678 1693 366 1159 255 635 c 0
 68 -244 399 -384 638 -384 c 0
 980 -384 1197 -20 1263 292 c 0
 1286 398 1285 610 1103 610 c 0
 1028 610 974 587 938 540 c 1
 818 -26 l 1
 572 -26 l 1
 856 1314 l 1
 1103 1314 l 1
 980 735 l 1
 1038 774 1117 797 1185 797 c 0
 1475 797 1559 522 1511 297 c 0
 1418 -138 1094 -537 626 -537 c 0
 357 -537 184 -426 109 -208 c 0
 35 8 38 299 115 661 c 0
 258 1332 631 1915 1301 1915 c 0xdf80
1307 1100 m 0
 1293 1034 1301 950 1411 950 c 0
 1501 950 1578 1005 1600 1110 c 0
 1624 1224 1581 1265 1503 1265 c 0
 1400 1265 1327 1192 1307 1100 c 0
EndSplineSet
Ligature2: "sub_ligature_pststaml_8 subtable" u0B9F u0BC2
LCarets2: 1 0
EndChar

StartChar: u0B9F_u0BCD
Encoding: 152 -1 152
Width: 1915
GlyphClass: 2
Flags: HW
LayerCount: 2
Fore
SplineSet
1672 -25 m 1
 -28 -25 l 1
 257 1315 l 1
 490 1315 l 1
 237 125 l 1
 1703 125 l 1
 1672 -25 l 1
1243 1856 m 0
 1344 1856 1399 1768 1378 1668 c 0
 1356 1565 1260 1480 1164 1480 c 0
 1069 1480 1008 1565 1030 1668 c 0
 1053 1776 1151 1856 1243 1856 c 0
EndSplineSet
Ligature2: "pstspostbasesubstitution subtable" u0B9F u0BCD
EndChar

StartChar: u0BA3
Encoding: 153 2979 153
Width: 3462
GlyphClass: 1
Flags: W
HStem: -21 217<262.842 464.04> -21 150<1139.84 1330.6 2019.35 2207.82> 681 194<351.626 655.5> 1165 151<748.123 1260.13 1627.61 2137.58 2509.09 2957 3204 3471>
DStem2: 2704 -24 2951 -24 0.207957 0.978138<51.3654 1216.6>
LayerCount: 2
Fore
SplineSet
233 542 m 1xb0
 179 283 269 196 362 196 c 0
 468 196 545 307 573 436 c 0
 606 587 519 681 442 681 c 0
 335 681 264 602 233 542 c 1xb0
2007 549 m 0
 1974 392 1954 129 2099 129 c 0x70
 2237 129 2311 280 2375 581 c 0
 2409 740 2386 897 2295 1002 c 1
 2145 889 2045 727 2007 549 c 0
1125 548 m 0
 1092 391 1072 128 1217 128 c 0
 1357 128 1428 271 1494 581 c 0
 1528 739 1505 895 1414 1003 c 1
 1273 896 1168 750 1125 548 c 0
1869 551 m 0
 1932 849 2103 1028 2183 1099 c 1
 2105 1143 2005 1165 1881 1165 c 0
 1787 1165 1699 1148 1616 1116 c 1
 1740 990 1786 803 1739 581 c 0
 1639 109 1463 -23 1240 -23 c 0
 1015 -23 899 136 987 549 c 0
 1030 750 1134 951 1305 1099 c 1
 1227 1143 1128 1165 1004 1165 c 0
 684 1165 427 968 323 815 c 1
 387 853 467 875 544 875 c 0
 767 875 877 696 824 445 c 0
 778 228 653 -21 374 -21 c 0xb0
 135 -21 30 230 108 596 c 0
 208 1067 636 1316 1015 1316 c 0
 1207 1316 1363 1284 1484 1219 c 1
 1615 1284 1752 1316 1894 1316 c 0
 2083 1316 2240 1283 2362 1216 c 1
 2489 1283 2626 1316 2773 1316 c 2
 3503 1316 l 1
 3471 1166 l 1
 3204 1166 l 1
 2951 -24 l 1
 2704 -24 l 1
 2957 1166 l 1
 2764 1166 l 2
 2674 1166 2585 1150 2497 1117 c 1
 2626 987 2666 789 2622 583 c 0
 2522 111 2346 -21 2123 -21 c 0
 1973 -21 1763 52 1869 551 c 0
EndSplineSet
EndChar

StartChar: u0BA3_u0BBE.old
Encoding: 155 -1 155
Width: 3742
GlyphClass: 1
Flags: HW
LayerCount: 2
Fore
SplineSet
556 543 m 1xdff8
 502 284 592 197 685 197 c 0
 787 197 865 302 892 427 c 0
 893 430 893 433 894 436 c 0
 919 554 864 682 763 682 c 0
 653 682 587 604 556 543 c 1xdff8
2330 549 m 0
 2297 393 2277 129 2421 129 c 0xbff8
 2527 129 2617 200 2698 581 c 0
 2715 662 2717 740 2703 818 c 1
 2688 890 2660 952 2617 1005 c 1
 2495 905 2373 750 2330 549 c 0
1450 550 m 0
 1417 394 1397 130 1541 130 c 0
 1647 130 1738 201 1819 582 c 0
 1853 742 1829 898 1738 1003 c 1
 1588 890 1488 728 1450 550 c 0
2441 -23 m 0
 2216 -23 2099 136 2187 548 c 0
 2234 770 2341 954 2507 1100 c 1
 2429 1144 2329 1166 2204 1166 c 0
 2110 1166 2022 1150 1940 1118 c 1
 2063 995 2111 804 2064 582 c 0
 1964 111 1787 -22 1563 -22 c 0
 1413 -22 1205 53 1311 550 c 0
 1354 751 1458 952 1629 1100 c 1
 1551 1144 1452 1166 1328 1166 c 0
 1014 1166 751 975 644 816 c 1
 707 853 786 874 864 874 c 0
 1087 874 1200 698 1146 444 c 0
 1100 229 976 -23 696 -23 c 0xdff8
 457 -23 351 228 429 594 c 0
 530 1069 961 1316 1337 1316 c 0
 1529 1316 1684 1284 1805 1219 c 1
 1936 1284 2073 1316 2215 1316 c 0
 2402 1316 2558 1284 2681 1219 c 1
 2823 1294 2955 1316 3067 1316 c 0
 3518 1316 3709 965 3619 543 c 0
 3455 -229 2730 -738 1615 -738 c 0
 1311 -738 1033 -703 781 -630 c 0
 528 -557 331 -431 193 -252 c 0
 45 -60 19 184 78 461 c 0
 155 825 328 1138 539 1309 c 2
 558 1325 l 1
 631 1235 l 1
 610 1216 l 2
 422 1051 290 798 216 452 c 0
 180 284 180 109 259 -45 c 0
 330 -183 436 -289 583 -369 c 0
 851 -515 1202 -589 1636 -589 c 0
 2525 -589 3230 -123 3378 575 c 0
 3450 912 3319 1164 3043 1164 c 0
 2967 1164 2890 1148 2813 1118 c 1
 2946 982 2986 786 2942 581 c 0
 2842 110 2665 -23 2441 -23 c 0
EndSplineSet
EndChar

StartChar: u0BA3_u0BBF
Encoding: 156 -1 156
Width: 3755
GlyphClass: 2
Flags: HW
LayerCount: 2
Fore
SplineSet
233 542 m 1x7fe4
 179 283 269 196 362 196 c 0
 468 196 545 307 573 436 c 0
 606 587 519 681 442 681 c 0
 335 681 264 602 233 542 c 1x7fe4
2007 549 m 0
 1974 392 1954 129 2099 129 c 0
 2237 129 2311 280 2375 581 c 0
 2409 740 2386 897 2295 1002 c 1
 2145 889 2045 727 2007 549 c 0
1125 548 m 0
 1092 391 1072 128 1217 128 c 0xbfe4
 1357 128 1428 271 1494 581 c 0
 1528 739 1505 895 1414 1003 c 1
 1273 896 1168 750 1125 548 c 0
1867 552 m 0
 1931 851 2098 1026 2182 1099 c 1
 2104 1143 2005 1165 1881 1165 c 0
 1787 1165 1699 1148 1616 1116 c 1
 1740 990 1786 803 1739 581 c 0
 1639 109 1463 -23 1240 -23 c 0xbff4
 1015 -23 899 136 987 549 c 0
 1030 750 1134 951 1305 1099 c 1
 1227 1143 1128 1165 1004 1165 c 0
 684 1165 427 968 323 815 c 1
 387 853 467 875 544 875 c 0
 767 875 877 696 824 445 c 0
 778 228 653 -21 374 -21 c 0
 135 -21 30 230 108 596 c 0
 208 1067 636 1316 1015 1316 c 0
 1207 1316 1363 1284 1484 1219 c 1
 1615 1284 1752 1316 1894 1316 c 0
 2083 1316 2240 1283 2362 1216 c 1
 2489 1283 2626 1316 2773 1316 c 2
 3066 1316 l 1
 3050 1393 3049 1470 3065 1545 c 0
 3115 1782 3255 2059 3568 2059 c 0
 3875 2059 3901 1824 3828 1480 c 2
 3508 -24 l 1
 3382 -24 l 1
 3695 1448 l 2
 3754 1727 3691 1810 3511 1810 c 0
 3381 1810 3241 1721 3198 1518 c 0x7fec
 3179 1430 3192 1351 3209 1317 c 1
 3501 1317 l 1
 3469 1167 l 1
 3202 1167 l 1
 2949 -23 l 1
 2703 -23 l 1
 2956 1167 l 1xbff4
 2762 1167 l 2
 2672 1167 2583 1151 2495 1118 c 1
 2624 988 2665 790 2621 584 c 0
 2521 112 2344 -20 2121 -20 c 0
 1971 -20 1761 53 1867 552 c 0
EndSplineSet
Ligature2: "sub_ligature_pststaml_2 subtable" u0BA3 u0BBF
LCarets2: 1 0
EndChar

StartChar: u0BA3_u0BC0
Encoding: 157 -1 157
Width: 3547
GlyphClass: 2
Flags: HW
LayerCount: 2
Fore
SplineSet
233 542 m 1xbff3
 179 283 269 196 362 196 c 0
 468 196 545 307 573 436 c 0
 606 587 519 681 442 681 c 0
 335 681 264 602 233 542 c 1xbff3
3458 1722 m 0
 3439 1634 3484 1561 3565 1561 c 0
 3653 1561 3734 1637 3753 1724 c 0
 3771 1809 3735 1899 3629 1900 c 1
 3549 1883 3478 1814 3458 1722 c 0
2007 550 m 0
 1974 393 1954 130 2099 130 c 0x7ff3
 2237 130 2311 281 2375 582 c 0
 2409 741 2386 898 2295 1003 c 1
 2145 890 2045 728 2007 550 c 0
1125 549 m 0
 1092 392 1072 129 1217 129 c 0
 1357 129 1428 272 1494 582 c 0
 1528 740 1505 896 1414 1004 c 1
 1273 897 1168 751 1125 549 c 0
1868 552 m 0
 1932 852 2101 1028 2183 1100 c 1
 2105 1144 2005 1166 1881 1166 c 0
 1787 1166 1699 1149 1616 1117 c 1
 1740 991 1787 804 1740 582 c 0
 1640 110 1463 -22 1240 -22 c 0
 1015 -22 899 137 987 550 c 0
 1030 751 1134 952 1305 1100 c 1
 1227 1144 1128 1166 1004 1166 c 0
 684 1166 427 969 323 816 c 1
 387 854 468 876 545 876 c 0
 768 876 877 697 824 446 c 0
 778 229 654 -20 375 -20 c 0
 136 -20 30 231 108 597 c 0
 208 1068 636 1317 1015 1317 c 0
 1207 1317 1363 1285 1484 1220 c 1
 1615 1285 1752 1317 1894 1317 c 0
 2083 1317 2240 1284 2362 1217 c 1
 2489 1284 2626 1317 2773 1317 c 2
 2957 1317 l 1
 2913 1387 2876 1494 2904 1625 c 0
 2988 2019 3285 2173 3529 2173 c 0
 3634 2173 3759 2155 3868 2082 c 0
 3932 2039 4003 1952 3962 1757 c 0
 3921 1562 3758 1422 3562 1422 c 0
 3349 1422 3294 1585 3324 1725 c 0
 3340 1800 3388 1894 3451 1953 c 1
 3438 1954 3425 1954 3412 1954 c 0
 3249 1954 3090 1790 3048 1591 c 0xbffb
 3020 1458 3068 1359 3102 1317 c 1
 3502 1317 l 1
 3470 1167 l 1
 3203 1167 l 1
 2950 -23 l 1
 2704 -23 l 1
 2957 1167 l 1xbff7
 2763 1167 l 2
 2673 1167 2584 1151 2496 1118 c 1
 2625 988 2666 790 2622 584 c 0
 2522 112 2345 -20 2122 -20 c 0
 1972 -20 1762 53 1868 552 c 0
EndSplineSet
Ligature2: "sub_ligature_pststaml_4 subtable" u0BA3 u0BC0
LCarets2: 1 0
EndChar

StartChar: u0BA3_u0BC1
Encoding: 158 -1 158
Width: 3928
GlyphClass: 2
Flags: HW
LayerCount: 2
Fore
SplineSet
3293 542 m 0xdffc
 3253 354 3177 126 3021 -89 c 1
 3420 -89 l 1
 3718 1316 l 1
 3964 1316 l 1
 3633 -240 l 1
 2894 -240 l 1
 2491 -645 1909 -740 1413 -740 c 0
 219 -740 -82 -359 -62 -193 c 1
 -48 -129 -3 -91 69 -91 c 2
 2699 -89 l 1
 2895 117 3004 344 3053 574 c 0
 3123 904 2994 1164 2717 1164 c 0
 2641 1164 2565 1148 2488 1118 c 1
 2621 982 2660 786 2616 581 c 0
 2516 109 2340 -23 2117 -23 c 0
 1967 -23 1757 50 1863 549 c 0
 1913 786 2038 972 2181 1099 c 1
 2103 1143 2003 1165 1879 1165 c 0
 1785 1165 1697 1148 1614 1116 c 1
 1738 990 1785 803 1738 581 c 0
 1638 109 1461 -23 1238 -23 c 0xeffc
 1013 -23 897 136 985 549 c 0
 1028 750 1132 951 1303 1099 c 1
 1225 1143 1126 1165 1002 1165 c 0
 695 1165 424 972 317 813 c 1
 381 851 463 874 541 874 c 0
 764 874 873 695 820 444 c 0
 774 227 650 -22 371 -22 c 0
 132 -22 26 229 104 595 c 0
 204 1066 632 1315 1011 1315 c 0
 1203 1315 1359 1283 1480 1218 c 1
 1611 1283 1748 1315 1890 1315 c 0
 2077 1315 2232 1283 2355 1218 c 1
 2479 1283 2609 1315 2743 1315 c 0
 3211 1315 3377 940 3293 542 c 0xdffc
1122 548 m 0
 1089 391 1069 128 1214 128 c 0
 1354 128 1425 271 1491 581 c 0
 1525 739 1502 895 1411 1003 c 1
 1270 896 1165 750 1122 548 c 0
2005 549 m 0
 1972 392 1952 129 2097 129 c 0
 2235 129 2309 280 2373 581 c 0
 2406 738 2383 895 2293 1006 c 1
 2140 882 2044 730 2005 549 c 0
233 542 m 1
 179 283 269 196 362 196 c 0xdffc
 468 196 545 307 573 436 c 0
 606 587 519 681 442 681 c 0
 335 681 264 602 233 542 c 1
112 -247 m 1
 115 -295 401 -589 1424 -590 c 0
 1782 -591 2176 -510 2535 -242 c 1
 145 -242 l 2
 131 -242 118 -243 112 -247 c 1
EndSplineSet
Ligature2: "sub_ligature_pststaml_6 subtable" u0BA3 u0BC1
LCarets2: 1 0
EndChar

StartChar: u0BA3_u0BC2
Encoding: 159 -1 159
Width: 4594
GlyphClass: 2
Flags: HW
LayerCount: 2
Fore
SplineSet
3293 542 m 0xdffe
 3253 354 3177 126 3021 -89 c 1
 3420 -89 l 1
 3718 1316 l 1
 4631 1316 l 1
 4599 1166 l 1
 4332 1166 l 1
 4033 -239 l 1
 3788 -239 l 1
 4086 1166 l 1
 3826 1166 l 1
 3527 -239 l 1
 2895 -239 l 1
 2492 -644 1910 -739 1414 -739 c 0
 220 -739 -81 -358 -61 -192 c 1
 -47 -128 -2 -90 70 -90 c 2
 2699 -89 l 1
 2895 117 3004 344 3053 574 c 0
 3123 904 2994 1164 2717 1164 c 0
 2641 1164 2565 1148 2488 1118 c 1
 2621 982 2660 786 2616 581 c 0
 2516 109 2340 -23 2117 -23 c 0
 1967 -23 1757 50 1863 549 c 0
 1913 786 2038 972 2181 1099 c 1
 2103 1143 2003 1165 1879 1165 c 0
 1785 1165 1697 1148 1614 1116 c 1
 1738 990 1785 803 1738 581 c 0
 1638 109 1461 -23 1238 -23 c 0xeffe
 1013 -23 897 136 985 549 c 0
 1028 750 1132 951 1303 1099 c 1
 1225 1143 1126 1165 1002 1165 c 0
 695 1165 424 972 317 813 c 1
 381 851 463 874 541 874 c 0
 764 874 873 695 820 444 c 0
 774 227 650 -22 371 -22 c 0
 132 -22 26 229 104 595 c 0
 204 1066 632 1315 1011 1315 c 0
 1203 1315 1359 1283 1480 1218 c 1
 1611 1283 1748 1315 1890 1315 c 0
 2077 1315 2232 1283 2355 1218 c 1
 2479 1283 2609 1315 2743 1315 c 0
 3211 1315 3377 940 3293 542 c 0xdffe
1122 548 m 0
 1089 391 1069 128 1214 128 c 0
 1354 128 1425 271 1491 581 c 0
 1525 739 1502 895 1411 1003 c 1
 1270 896 1165 750 1122 548 c 0
2005 549 m 0
 1972 392 1952 129 2097 129 c 0
 2235 129 2309 280 2373 581 c 0
 2406 738 2383 895 2293 1006 c 1
 2140 882 2044 730 2005 549 c 0
233 542 m 1
 179 283 269 196 362 196 c 0xdffe
 468 196 545 307 573 436 c 0
 606 587 519 681 442 681 c 0
 335 681 264 602 233 542 c 1
112 -247 m 1
 115 -295 401 -589 1424 -590 c 0
 1782 -591 2176 -510 2535 -242 c 1
 145 -242 l 2
 131 -242 118 -243 112 -247 c 1
EndSplineSet
Ligature2: "sub_ligature_pststaml_8 subtable" u0BA3 u0BC2
LCarets2: 1 0
EndChar

StartChar: u0BA3_u0BCD
Encoding: 162 -1 162
Width: 3462
GlyphClass: 2
Flags: HW
LayerCount: 2
Fore
SplineSet
233 542 m 1xbf18
 179 283 269 196 362 196 c 0
 468 196 545 307 573 436 c 0
 606 587 519 681 442 681 c 0
 335 681 264 602 233 542 c 1xbf18
2007 549 m 0x7f38
 1974 392 1954 129 2099 129 c 0
 2237 129 2311 280 2375 581 c 0
 2409 740 2386 897 2295 1002 c 1
 2145 889 2045 727 2007 549 c 0x7f38
1125 548 m 0
 1092 391 1072 128 1217 128 c 0
 1357 128 1428 271 1494 581 c 0x3f98
 1528 739 1505 895 1414 1003 c 1
 1273 896 1168 750 1125 548 c 0
1869 551 m 0x7fb8
 1932 849 2103 1028 2183 1099 c 1
 2105 1143 2005 1165 1881 1165 c 0
 1787 1165 1699 1148 1616 1116 c 1
 1740 990 1786 803 1739 581 c 0
 1639 109 1463 -23 1240 -23 c 0
 1015 -23 899 136 987 549 c 0
 1030 750 1134 951 1305 1099 c 1
 1227 1143 1128 1165 1004 1165 c 0
 684 1165 427 968 323 815 c 1
 387 853 467 875 544 875 c 0
 767 875 877 696 824 445 c 0
 778 228 653 -21 374 -21 c 0xbfb8
 135 -21 30 230 108 596 c 0
 208 1067 636 1316 1015 1316 c 0
 1207 1316 1363 1284 1484 1219 c 1
 1615 1284 1752 1316 1894 1316 c 0
 2083 1316 2240 1283 2362 1216 c 1
 2489 1283 2626 1316 2773 1316 c 2
 3503 1316 l 1
 3471 1166 l 1
 3204 1166 l 1
 2951 -24 l 1
 2704 -24 l 1
 2957 1166 l 1
 2764 1166 l 2
 2674 1166 2585 1150 2497 1117 c 1
 2626 987 2666 789 2622 583 c 0
 2522 111 2346 -21 2123 -21 c 0
 1973 -21 1763 52 1869 551 c 0x7fb8
2057 1859 m 0
 2154 1859 2214 1777 2192 1671 c 1
 2170 1567 2073 1483 1978 1483 c 0
 1883 1483 1822 1568 1844 1671 c 0x3f58
 1867 1779 1965 1859 2057 1859 c 0
EndSplineSet
Ligature2: "pstspostbasesubstitution subtable" u0BA3 u0BCD
LCarets2: 1 0
EndChar

StartChar: u0BA4
Encoding: 163 2980 163
Width: 1727
GlyphClass: 1
Flags: HW
LayerCount: 2
Fore
SplineSet
132 -539 m 0xfb80
 103 -633 114 -733 -39 -733 c 0
 -105 -733 -150 -638 -123 -509 c 0xfb80
 -57 -198 242 -165 615 -165 c 0
 999 -165 1111 -68 1185 5 c 0
 1235 54 1289 135 1307 221 c 0
 1366 497 1342 613 1082 619 c 1
 1015 303 l 2
 984 159 751 -23 495 -23 c 0
 237 -23 89 116 151 406 c 0xf780
 200 636 379 747 467 766 c 1
 584 1316 l 1
 1497 1316 l 1
 1466 1166 l 1
 1199 1166 l 1
 1115 772 l 1
 1431 760 1630 658 1542 245 c 0
 1479 -52 1191 -315 750 -331 c 0
 443 -342 193 -338 132 -539 c 0xfb80
869 774 m 1
 952 1167 l 1
 693 1167 l 1
 609 774 l 1
 869 774 l 1
511 624 m 2
 486 624 331 601 285 384 c 0xf780
 253 232 299 131 499 131 c 0
 597 131 750 212 768 299 c 2
 837 624 l 1
 511 624 l 2
EndSplineSet
EndChar

StartChar: u0BA4_u0BBF
Encoding: 164 -1 164
Width: 2021
GlyphClass: 1
Flags: HW
LayerCount: 2
Fore
SplineSet
1419 2112 m 0xfbe0
 2073 2112 2152 1714 2061 1284 c 1
 1778 -25 l 1
 1651 -25 l 1
 1932 1296 l 2
 2001 1622 1744 1840 1359 1840 c 0
 723 1840 515 1490 466 1259 c 0
 435 1115 442 966 486 870 c 1
 582 1318 l 1
 1495 1318 l 1
 1463 1168 l 1
 1196 1168 l 1
 1113 775 l 1
 1411 770 1633 661 1547 258 c 0
 1488 -19 1244 -273 851 -316 c 0
 770 -325 689 -330 607 -330 c 0
 221 -330 152 -445 120 -593 c 0
 102 -679 64 -730 -41 -730 c 0
 -119 -730 -143 -616 -120 -506 c 0xfde0
 -93 -378 -28 -321 9 -293 c 0
 142 -194 232 -158 619 -158 c 0
 1003 -158 1114 -61 1188 12 c 0
 1238 61 1293 142 1311 228 c 0
 1342 376 1344 462 1328 507 c 1
 1305 578 1229 622 1086 626 c 1
 1018 310 l 2
 987 166 754 -16 498 -16 c 0
 240 -16 92 123 154 413 c 0
 188 574 288 685 394 741 c 1
 305 859 285 1030 332 1251 c 0
 415 1641 706 2112 1419 2112 c 0xfbe0
870 779 m 1
 953 1172 l 1
 694 1172 l 1
 610 779 l 1
 870 779 l 1
512 629 m 2
 487 629 332 606 286 389 c 0xfbe0
 254 237 300 136 500 136 c 0
 595 136 747 214 769 304 c 1
 838 629 l 1
 512 629 l 2
EndSplineSet
Ligature2: "sub_ligature_pststaml_0-0 subtable" u0BA4 u0BBF
EndChar

StartChar: u0BA4_u0BC0
Encoding: 165 -1 165
Width: 1727
GlyphClass: 1
Flags: HW
LayerCount: 2
Fore
SplineSet
1327 1724 m 0xfcb0
 1310 1643 1350 1565 1435 1565 c 0
 1516 1565 1601 1632 1620 1724 c 0
 1621 1726 l 0
 1641 1820 1600 1901 1499 1902 c 1
 1419 1885 1347 1816 1327 1724 c 0xfcb0
865 774 m 1xfcc0
 949 1167 l 1
 689 1167 l 1
 606 774 l 1
 865 774 l 1xfcc0
508 624 m 2
 483 624 327 601 281 384 c 0xfdc0
 249 232 295 131 495 131 c 0
 590 131 742 209 764 299 c 1
 833 624 l 1
 508 624 l 2
497 -18 m 0
 239 -18 91 121 153 411 c 0
 172 500 209 576 263 635 c 0
 303 679 344 712 385 735 c 1
 296 853 277 1024 324 1245 c 0
 442 1800 893 2174 1397 2174 c 0
 1502 2174 1627 2156 1736 2083 c 0
 1800 2040 1870 1953 1829 1758 c 0
 1788 1563 1626 1423 1430 1423 c 0
 1217 1423 1162 1586 1192 1726 c 0xfdb0
 1209 1805 1256 1894 1318 1951 c 1
 1305 1952 1292 1953 1279 1953 c 0
 860 1953 532 1571 465 1257 c 0
 434 1113 441 964 485 868 c 1
 580 1316 l 1
 1494 1316 l 1
 1462 1166 l 1
 1195 1166 l 1
 1111 773 l 1
 1409 768 1632 659 1546 256 c 0
 1487 -21 1242 -275 849 -318 c 0
 768 -327 688 -332 606 -332 c 0
 220 -332 150 -447 118 -595 c 0
 100 -681 62 -732 -43 -732 c 0
 -121 -732 -145 -618 -122 -508 c 0
 -95 -380 -29 -323 8 -295 c 0
 141 -196 230 -160 617 -160 c 0
 1001 -160 1113 -63 1187 10 c 0
 1237 59 1291 140 1309 226 c 0xfec8
 1340 374 1342 460 1326 505 c 1
 1303 576 1227 620 1084 624 c 1
 1017 308 l 2
 986 164 753 -18 497 -18 c 0
EndSplineSet
Ligature2: "sub_ligature_pststaml_0-0 subtable" u0BA4 u0BC0
EndChar

StartChar: u0BA4_u0BC1
Encoding: 166 -1 166
Width: 2274
GlyphClass: 2
Flags: HW
LayerCount: 2
Fore
SplineSet
494 771 m 1
 610 1321 l 1
 1523 1321 l 1
 1491 1171 l 1
 1224 1171 l 1
 1140 778 l 1
 1476 774 1674 675 1596 307 c 0
 1568 173 1519 44 1447 -80 c 1
 1775 -80 l 1
 2073 1325 l 1
 2319 1325 l 1
 1988 -231 l 1
 1339 -235 l 1
 1226 -377 982 -620 587 -620 c 0
 81 -620 -80 -286 -58 -181 c 0
 -50 -143 -21 -85 71 -85 c 2
 1183 -85 l 1
 1266 45 1321 173 1347 297 c 0
 1389 496 1344 617 1106 624 c 1
 1039 308 l 2
 1008 162 774 -18 520 -18 c 0
 262 -18 113 122 174 411 c 0
 225 649 411 752 494 771 c 1
532 621 m 2
 507 621 354 598 308 382 c 0
 276 230 321 129 521 129 c 0
 639 129 776 229 790 296 c 2
 859 621 l 1
 532 621 l 2
891 771 m 1
 974 1164 l 1
 714 1164 l 1
 630 771 l 1
 891 771 l 1
100 -244 m 1
 99 -268 194 -469 597 -472 c 1
 767 -472 922 -394 1066 -238 c 1
 134 -238 l 2
 120 -238 106 -240 100 -244 c 1
EndSplineSet
Ligature2: "sub_ligature_pststaml_6 subtable" u0BA4 u0BC1
EndChar

StartChar: u0BA4_u0BC2
Encoding: 167 -1 167
Width: 2941
GlyphClass: 2
Flags: HW
LayerCount: 2
Fore
SplineSet
590 -614 m 0
 84 -614 -77 -280 -55 -175 c 0
 -47 -137 -18 -79 74 -79 c 2
 1179 -85 l 1
 1262 45 1317 173 1343 297 c 0
 1385 496 1340 617 1102 624 c 1
 1035 308 l 2
 1004 162 770 -18 516 -18 c 0
 258 -18 110 122 171 411 c 0
 222 649 407 752 490 771 c 1
 607 1321 l 1
 1519 1321 l 1
 1487 1171 l 1
 1220 1171 l 1
 1137 778 l 1
 1473 774 1671 675 1593 307 c 0
 1569 195 1526 61 1444 -79 c 1
 1771 -79 l 1
 2070 1326 l 1
 2982 1326 l 1
 2950 1176 l 1
 2685 1176 l 1
 2386 -229 l 1
 2140 -229 l 1
 2439 1176 l 1
 2179 1176 l 1
 1881 -229 l 1
 1342 -229 l 1
 1061 -586 740 -614 590 -614 c 0
532 621 m 2
 507 621 354 598 308 382 c 0
 276 230 321 129 521 129 c 0
 639 129 776 229 790 296 c 2
 859 621 l 1
 532 621 l 2
891 771 m 1
 974 1164 l 1
 714 1164 l 1
 630 771 l 1
 891 771 l 1
100 -244 m 1
 99 -268 194 -469 597 -472 c 1
 763 -472 918 -394 1065 -238 c 1
 134 -238 l 2
 120 -238 106 -240 100 -244 c 1
EndSplineSet
Ligature2: "sub_ligature_pststaml_8 subtable" u0BA4 u0BC2
EndChar

StartChar: u0BA4_u0BCD
Encoding: 168 -1 168
Width: 1779
GlyphClass: 2
Flags: HW
LayerCount: 2
Fore
SplineSet
467 766 m 1xfb60
 584 1316 l 1
 1497 1316 l 1
 1466 1166 l 1
 1199 1166 l 1
 1115 773 l 1
 1406 768 1632 662 1549 273 c 0
 1547 265 1545 259 1543 251 c 0
 1484 -26 1240 -280 847 -323 c 0
 766 -332 686 -337 604 -337 c 0
 218 -337 148 -452 116 -600 c 0
 98 -686 60 -737 -45 -737 c 0
 -123 -737 -147 -623 -124 -513 c 0xfd60
 -97 -385 -31 -328 6 -300 c 0
 139 -201 228 -165 615 -165 c 0
 999 -165 1111 -68 1185 5 c 0
 1235 54 1289 135 1307 221 c 0
 1338 369 1340 455 1324 500 c 1
 1301 571 1225 615 1082 619 c 1
 1015 303 l 2
 984 159 751 -23 495 -23 c 0
 237 -23 89 116 151 406 c 0
 200 636 379 747 467 766 c 1xfb60
869 774 m 1
 952 1167 l 1
 693 1167 l 1
 609 774 l 1
 869 774 l 1
511 624 m 2
 486 624 331 601 285 384 c 0xfb60
 253 232 299 131 499 131 c 0
 594 131 746 209 768 299 c 1
 837 624 l 1
 511 624 l 2
865 1671 m 0xf9a0
 889 1783 988 1859 1079 1859 c 0
 1180 1859 1235 1771 1214 1671 c 0
 1192 1567 1094 1483 999 1483 c 0
 904 1483 843 1568 865 1671 c 0xf9a0
EndSplineSet
Ligature2: "pstspostbasesubstitution subtable" u0BA4 u0BCD
EndChar

StartChar: u0BA8
Encoding: 169 2984 169
Width: 1594
GlyphClass: 1
Flags: HW
LayerCount: 2
Fore
SplineSet
1112 801 m 0xee
 1381 801 1476 564 1424 320 c 0
 1365 42 1251 -163 924 -275 c 0
 794 -319 663 -341 530 -341 c 0
 443 -341 190 -351 132 -539 c 0
 103 -633 114 -733 -39 -733 c 0
 -117 -733 -141 -619 -118 -509 c 0xf6
 -86 -360 -5 -287 120 -229 c 0
 246 -170 395 -166 456 -166 c 0
 885 -166 1100 -74 1178 295 c 0
 1204 415 1202 613 1029 613 c 0
 962 613 912 590 877 543 c 1
 757 -23 l 1
 511 -23 l 1
 764 1167 l 1
 504 1167 l 1
 251 -23 l 1
 113 -23 l 1
 397 1317 l 1
 1309 1317 l 1
 1277 1167 l 1
 1011 1167 l 1
 921 742 l 1
 976 781 1048 801 1112 801 c 0xee
EndSplineSet
EndChar

StartChar: u0BA8_u0BBF
Encoding: 170 -1 170
Width: 1887
GlyphClass: 2
Flags: HW
LayerCount: 2
Fore
SplineSet
-120 -509 m 0xf9c0
 -94 -387 -36 -310 109 -232 c 0
 245 -159 435 -161 467 -161 c 1
 699 -149 l 1
 732 -149 797 -134 889 -104 c 0
 946 -85 1002 -47 1057 18 c 0
 1094 62 1146 142 1178 294 c 0
 1195 374 1193 448 1172 515 c 1
 1159 560 1127 612 1029 612 c 0
 962 612 912 589 877 542 c 1
 757 -24 l 1
 511 -24 l 1
 764 1166 l 1
 504 1166 l 1
 251 -24 l 1
 112 -24 l 1
 397 1316 l 1xf6c0
 887 1316 l 1
 871 1398 874 1489 895 1588 c 0
 934 1773 1069 2104 1569 2104 c 0
 1995 2104 2049 1856 1972 1492 c 2
 1646 -25 l 1
 1519 -25 l 1
 1841 1491 l 2
 1904 1786 1748 1860 1513 1860 c 0
 1308 1860 1084 1783 1018 1473 c 0
 1010 1437 1004 1380 1030 1316 c 1
 1307 1316 l 1
 1275 1166 l 1
 1009 1166 l 1
 919 741 l 1
 974 780 1046 800 1110 800 c 0
 1394 800 1474 539 1423 301 c 0
 1345 -67 1131 -235 780 -312 c 0
 732 -322 685 -328 640 -328 c 0
 564 -328 488 -339 408 -346 c 0
 341 -352 280 -380 232 -410 c 1
 164 -454 141 -497 120 -596 c 0
 102 -682 64 -733 -41 -733 c 0
 -119 -733 -143 -619 -120 -509 c 0xf9c0
EndSplineSet
Ligature2: "sub_ligature_pststaml_2 subtable" u0BA8 u0BBF
EndChar

StartChar: u0BA8_u0BC0
Encoding: 171 -1 171
Width: 1595
GlyphClass: 2
Flags: HW
LayerCount: 2
Fore
SplineSet
1261 1723 m 0xf9d0
 1242 1635 1287 1562 1368 1562 c 0
 1448 1562 1533 1627 1554 1724 c 0
 1555 1726 l 0
 1575 1820 1534 1901 1433 1902 c 1
 1352 1885 1280 1814 1261 1723 c 0xf9d0
853 1591 m 0
 828 1474 860 1378 907 1317 c 1
 1307 1317 l 1
 1272 1165 l 1
 1007 1165 l 1
 917 740 l 1
 972 779 1044 799 1108 799 c 0
 1392 799 1472 538 1421 300 c 0
 1343 -68 1129 -236 778 -313 c 0
 730 -323 683 -329 638 -329 c 0
 562 -329 486 -340 406 -347 c 0
 339 -353 278 -381 230 -411 c 1
 162 -455 139 -498 118 -597 c 0
 100 -683 62 -734 -43 -734 c 0
 -121 -734 -145 -620 -122 -510 c 0
 -96 -388 -38 -311 107 -233 c 0
 243 -160 433 -162 465 -162 c 1
 697 -150 l 1
 730 -150 795 -135 887 -105 c 0
 944 -86 1000 -48 1055 17 c 0
 1092 61 1144 141 1176 293 c 0xfde0
 1193 373 1191 447 1170 514 c 1
 1157 559 1125 611 1027 611 c 0
 960 611 910 588 875 541 c 1
 755 -25 l 1
 509 -25 l 1
 762 1165 l 1
 502 1165 l 1
 249 -25 l 1
 110 -25 l 1
 395 1315 l 1xfbc0
 764 1315 l 1
 721 1383 681 1493 709 1624 c 0
 792 2016 1089 2173 1336 2173 c 0
 1441 2173 1566 2155 1675 2082 c 0
 1739 2039 1810 1952 1769 1757 c 0
 1727 1561 1563 1422 1367 1422 c 0
 1154 1422 1101 1587 1130 1725 c 0
 1146 1799 1193 1894 1256 1953 c 1
 1243 1954 1230 1954 1218 1954 c 0
 1016 1954 884 1736 853 1591 c 0
EndSplineSet
Ligature2: "sub_ligature_pststaml_4 subtable" u0BA8 u0BC0
EndChar

StartChar: u0BA8_u0BC1
Encoding: 172 -1 172
Width: 2314
GlyphClass: 2
Flags: HW
LayerCount: 2
Fore
SplineSet
1323 802 m 0
 1602 802 1688 547 1636 303 c 0
 1612 188 1566 57 1482 -84 c 1
 1815 -84 l 1
 2113 1321 l 1
 2359 1321 l 1
 2028 -235 l 1
 1372 -237 l 1
 1312 -310 1244 -374 1167 -430 c 1
 1122 -465 915 -620 602 -620 c 0
 118 -620 -83 -309 -56 -181 c 0
 -48 -143 -19 -85 73 -85 c 2
 1216 -85 l 1
 1305 48 1362 175 1388 296 c 0
 1420 449 1394 614 1240 614 c 0
 1173 614 1124 591 1089 544 c 1
 968 -22 l 1
 723 -22 l 1
 976 1168 l 1
 716 1168 l 1
 463 -22 l 1
 323 -22 l 1
 608 1318 l 1
 1521 1318 l 1
 1489 1168 l 1
 1222 1168 l 1
 1132 743 l 1
 1187 782 1259 802 1323 802 c 0
100 -246 m 1
 98 -256 100 -245 101 -250 c 0
 109 -304 251 -471 610 -474 c 1
 782 -474 942 -396 1092 -240 c 1
 134 -240 l 2
 119 -240 106 -242 100 -246 c 1
EndSplineSet
Ligature2: "sub_ligature_pststaml_6 subtable" u0BA8 u0BC1
EndChar

StartChar: u0BA8_u0BC2
Encoding: 173 -1 173
Width: 2981
GlyphClass: 2
Flags: HW
LayerCount: 2
Fore
SplineSet
601 -620 m 0
 117 -620 -85 -309 -58 -181 c 0
 -50 -143 -20 -85 72 -85 c 2
 1211 -87 l 1
 1300 46 1357 173 1383 294 c 0
 1415 447 1389 612 1235 612 c 0
 1168 612 1119 589 1084 542 c 1
 963 -24 l 1
 718 -24 l 1
 971 1166 l 1
 710 1166 l 1
 458 -24 l 1
 318 -24 l 1
 603 1316 l 1
 1516 1316 l 1
 1484 1166 l 1
 1217 1166 l 1
 1127 741 l 1
 1182 780 1254 800 1318 800 c 0
 1597 800 1683 545 1631 301 c 0
 1607 186 1561 55 1477 -86 c 1
 1810 -86 l 1
 2108 1319 l 1
 3021 1319 l 1
 2989 1169 l 1
 2722 1169 l 1
 2423 -236 l 1
 2178 -236 l 1
 2476 1169 l 1
 2216 1169 l 1
 1917 -236 l 1
 1372 -236 l 1
 1260 -372 1007 -620 601 -620 c 0
100 -246 m 1
 98 -256 100 -245 101 -250 c 0
 109 -304 251 -471 610 -474 c 1
 782 -474 942 -396 1092 -240 c 1
 134 -240 l 2
 119 -240 106 -242 100 -246 c 1
EndSplineSet
Ligature2: "sub_ligature_pststaml_8 subtable" u0BA8 u0BC2
EndChar

StartChar: u0BA8_u0BCD
Encoding: 174 -1 174
Width: 1542
GlyphClass: 2
Flags: HW
LayerCount: 2
Fore
SplineSet
1423 314 m 0xf680
 1422 308 1420 304 1419 298 c 0
 1344 -53 1153 -196 924 -275 c 1
 794 -319 663 -341 530 -341 c 0
 350 -341 161 -389 121 -579 c 0
 95 -699 61 -734 -41 -734 c 0
 -119 -734 -143 -620 -120 -510 c 0xf880
 -88 -361 -7 -288 118 -230 c 0
 244 -171 393 -167 454 -167 c 0
 535 -167 613 -162 688 -151 c 2
 690 -151 l 1
 692 -151 l 2
 729 -151 809 -129 887 -104 c 0
 944 -86 1000 -47 1055 18 c 0
 1092 62 1144 142 1176 294 c 0
 1193 374 1191 448 1170 515 c 1
 1157 560 1125 612 1027 612 c 0
 960 612 910 589 875 542 c 1
 755 -24 l 1
 509 -24 l 1
 762 1166 l 1
 502 1166 l 1
 249 -24 l 1
 110 -24 l 1
 395 1316 l 1
 1307 1316 l 1
 1275 1166 l 1
 1009 1166 l 1
 919 741 l 1
 974 780 1046 800 1110 800 c 0
 1387 800 1473 552 1423 314 c 0xf680
1086 1859 m 0
 1187 1859 1242 1771 1221 1671 c 0
 1199 1568 1103 1483 1007 1483 c 0
 912 1483 851 1568 873 1671 c 0xf180
 896 1779 994 1859 1086 1859 c 0
EndSplineSet
Ligature2: "pstspostbasesubstitution subtable" u0BA8 u0BCD
EndChar

StartChar: u0BA9
Encoding: 175 2985 175
Width: 2581
GlyphClass: 1
Flags: W
HStem: -24 150<1139.84 1330.48> -23 219<265.849 468.257> 681 192<347.696 652.5> 1164 150<744.958 1253.19 1630.17 2076 2322 2589>
DStem2: 1823 -26 2069 -26 0.207957 0.978138<51.1574 1216.6>
LayerCount: 2
Fore
SplineSet
233 542 m 1x70
 179 283 269 196 362 196 c 0
 468 196 545 307 573 436 c 0
 606 587 519 681 442 681 c 0
 335 681 264 602 233 542 c 1x70
1125 546 m 0
 1092 389 1072 126 1217 126 c 0xb0
 1357 126 1427 269 1493 579 c 0
 1527 737 1505 893 1414 1001 c 1
 1273 894 1168 748 1125 546 c 0
1240 -24 m 0
 1015 -24 899 135 987 548 c 0
 1051 848 1219 1024 1302 1097 c 1
 1224 1141 1125 1163 1001 1163 c 0
 681 1163 423 966 319 813 c 1
 383 851 464 873 541 873 c 0
 764 873 874 694 821 443 c 0
 775 226 650 -23 371 -23 c 0x70
 132 -23 26 228 104 594 c 0
 204 1065 633 1314 1012 1314 c 0
 1204 1314 1359 1282 1480 1217 c 1
 1611 1282 1749 1314 1891 1314 c 2
 2621 1314 l 1
 2589 1164 l 1
 2322 1164 l 1
 2069 -26 l 1
 1823 -26 l 1
 2076 1164 l 1
 1881 1164 l 2
 1787 1164 1699 1147 1616 1115 c 1
 1740 989 1786 802 1739 580 c 0
 1639 108 1463 -24 1240 -24 c 0
EndSplineSet
EndChar

StartChar: u0BA9_u0BBE.old
Encoding: 177 -1 177
Width: 2861
GlyphClass: 1
Flags: HW
LayerCount: 2
Fore
SplineSet
556 543 m 1xdfe0
 502 284 592 197 685 197 c 0
 787 197 865 302 892 427 c 0
 893 430 893 433 894 436 c 0
 919 554 864 682 763 682 c 0
 653 682 587 604 556 543 c 1xdfe0
1449 548 m 0
 1416 392 1396 128 1540 128 c 0xbfe0
 1646 128 1736 199 1817 580 c 0
 1850 734 1827 892 1738 1005 c 1
 1616 909 1493 757 1449 548 c 0
1305 548 m 0
 1349 753 1454 953 1625 1097 c 1
 1547 1141 1448 1163 1325 1163 c 0
 1005 1163 750 965 644 815 c 1
 707 851 784 871 861 871 c 0
 1084 871 1196 695 1142 441 c 0
 1096 226 972 -26 692 -26 c 0xdfe0
 453 -26 348 225 426 591 c 0
 527 1066 957 1313 1333 1313 c 0
 1522 1313 1679 1281 1802 1216 c 1
 1950 1292 2087 1313 2201 1313 c 0
 2643 1313 2821 947 2735 542 c 0
 2678 272 2589 42 2470 -146 c 0
 2097 -736 1385 -740 1157 -740 c 0
 739 -740 440 -595 255 -386 c 1
 60 -174 -1 107 74 458 c 0
 151 822 324 1135 535 1306 c 2
 554 1322 l 1
 627 1232 l 1
 606 1213 l 2
 418 1048 285 795 211 449 c 0
 155 187 169 -224 600 -453 c 0
 775 -546 967 -592 1178 -592 c 0
 1898 -592 2329 -201 2494 574 c 0
 2564 903 2442 1163 2176 1163 c 0
 2094 1163 2012 1147 1933 1117 c 1
 2058 989 2104 797 2058 580 c 0
 1958 109 1781 -24 1557 -24 c 0
 1407 -24 1199 51 1305 548 c 0
EndSplineSet
EndChar

StartChar: u0BA9_u0BBF
Encoding: 178 -1 178
Width: 2874
GlyphClass: 2
Flags: HW
LayerCount: 2
Fore
SplineSet
233 542 m 1xbf90
 179 283 269 196 362 196 c 0
 468 196 545 307 573 436 c 0
 606 587 519 681 442 681 c 0
 335 681 264 602 233 542 c 1xbf90
1125 546 m 0
 1092 389 1072 126 1217 126 c 0x7f90
 1357 126 1427 269 1493 579 c 0
 1527 737 1505 893 1414 1001 c 1
 1273 894 1168 748 1125 546 c 0
1238 -23 m 0
 1013 -23 897 136 985 549 c 0
 1049 849 1217 1023 1302 1097 c 1
 1224 1141 1125 1163 1001 1163 c 0
 681 1163 423 966 319 813 c 1
 383 851 464 873 541 873 c 0
 764 873 874 694 821 443 c 0
 775 226 650 -23 371 -23 c 0
 132 -23 26 228 104 594 c 0
 204 1065 633 1314 1012 1314 c 0
 1204 1314 1359 1282 1480 1217 c 1
 1611 1282 1749 1314 1891 1314 c 2
 2184 1314 l 1
 2168 1393 2167 1469 2183 1543 c 0
 2233 1780 2373 2057 2686 2057 c 0
 2916 2057 3043 1933 2946 1478 c 2
 2626 -26 l 1
 2500 -26 l 1
 2813 1446 l 2
 2872 1725 2809 1808 2629 1808 c 0
 2499 1808 2359 1719 2316 1516 c 0xbfb0
 2297 1428 2310 1349 2327 1315 c 1
 2619 1315 l 1
 2587 1165 l 1
 2320 1165 l 1
 2067 -25 l 1
 1822 -25 l 1
 2075 1165 l 1xbfd0
 1879 1165 l 2
 1785 1165 1697 1148 1614 1116 c 1
 1738 990 1785 803 1738 581 c 0
 1638 109 1461 -23 1238 -23 c 0
EndSplineSet
Ligature2: "sub_ligature_pststaml_2 subtable" u0BA9 u0BBF
EndChar

StartChar: u0BA9_u0BC0
Encoding: 179 -1 179
Width: 2667
GlyphClass: 2
Flags: HW
LayerCount: 2
Fore
SplineSet
233 542 m 1x7ffc
 179 283 269 196 362 196 c 0
 468 196 545 307 573 436 c 0
 606 587 519 681 442 681 c 0
 335 681 264 602 233 542 c 1x7ffc
2578 1721 m 0
 2558 1625 2611 1561 2685 1561 c 0
 2772 1561 2854 1637 2872 1724 c 0
 2890 1809 2855 1899 2748 1900 c 1
 2665 1882 2597 1810 2578 1721 c 0
1125 547 m 0
 1092 390 1072 127 1217 127 c 0xbffc
 1357 127 1428 270 1494 580 c 0
 1528 738 1505 894 1414 1002 c 1
 1273 895 1168 749 1125 547 c 0
1239 -23 m 0
 1014 -23 898 136 986 549 c 0
 1050 850 1219 1026 1302 1098 c 1
 1224 1142 1125 1164 1001 1164 c 0
 681 1164 424 967 320 814 c 1
 384 852 465 874 542 874 c 0
 765 874 874 695 821 444 c 0
 775 227 651 -22 372 -22 c 0x7ffc
 133 -22 27 229 105 595 c 0
 205 1066 633 1315 1012 1315 c 0
 1204 1315 1360 1283 1481 1218 c 1
 1612 1283 1749 1315 1891 1315 c 2
 2076 1315 l 1
 2032 1384 1994 1493 2022 1624 c 0
 2114 2058 2448 2172 2649 2172 c 0
 2754 2172 2878 2154 2987 2081 c 0
 3051 2038 3122 1951 3081 1756 c 0
 3039 1560 2876 1421 2680 1421 c 0
 2467 1421 2413 1586 2442 1724 c 0
 2459 1805 2505 1892 2569 1951 c 1
 2556 1952 2542 1953 2529 1953 c 0
 2366 1953 2207 1789 2165 1590 c 0
 2142 1481 2167 1385 2220 1315 c 1
 2620 1315 l 1
 2588 1165 l 1
 2321 1165 l 1
 2068 -25 l 1
 1823 -25 l 1
 2076 1165 l 1
 1880 1165 l 2
 1786 1165 1698 1148 1615 1116 c 1
 1739 990 1785 803 1738 581 c 0
 1638 109 1462 -23 1239 -23 c 0
EndSplineSet
Ligature2: "sub_ligature_pststaml_4 subtable" u0BA9 u0BC0
EndChar

StartChar: u0BA9_u0BC1
Encoding: 180 -1 180
Width: 3208
GlyphClass: 2
Flags: HW
LayerCount: 2
Fore
SplineSet
1175 547 m 0xeff0
 1226 787 1350 971 1492 1100 c 1
 1413 1144 1312 1167 1188 1167 c 0
 880 1167 619 976 508 817 c 1
 573 854 653 877 728 877 c 0
 951 877 1061 698 1008 447 c 0
 953 190 813 -20 558 -20 c 0xdff0
 320 -20 214 232 292 597 c 0
 392 1069 817 1317 1199 1317 c 0
 1386 1317 1544 1285 1668 1220 c 1
 1796 1285 1929 1317 2066 1317 c 0
 2601 1317 2648 889 2575 544 c 0
 2522 295 2400 83 2269 -87 c 1
 2702 -87 l 1
 3001 1318 l 1
 3246 1318 l 1
 2916 -238 l 1
 2140 -238 l 1
 1874 -517 1492 -738 1002 -738 c 0
 289 -738 -85 -371 -62 -191 c 1
 -48 -127 -3 -89 69 -89 c 2
 1992 -89 l 1
 2175 127 2297 373 2339 572 c 0
 2438 1037 2230 1162 2046 1162 c 0
 1956 1162 1875 1144 1804 1116 c 1
 1933 983 1972 784 1928 578 c 0
 1827 104 1651 -25 1428 -25 c 0
 1278 -25 1069 49 1175 547 c 0xeff0
106 -248 m 0
 106 -249 107 -251 107 -253 c 0
 121 -334 443 -587 1012 -589 c 1
 1345 -589 1631 -434 1844 -242 c 1
 141 -242 l 2
 126 -242 112 -244 106 -248 c 0
1313 546 m 0
 1280 389 1261 126 1406 126 c 0xeff0
 1511 126 1604 207 1683 578 c 0
 1715 728 1693 891 1603 1003 c 1
 1478 905 1356 748 1313 546 c 0
420 541 m 1
 366 282 457 195 550 195 c 0xdff0
 652 195 733 304 760 433 c 0
 760 434 761 435 761 436 c 0
 785 551 735 681 629 681 c 0
 522 681 454 604 420 541 c 1
EndSplineSet
Ligature2: "sub_ligature_pststaml_6 subtable" u0BA9 u0BC1
EndChar

StartChar: u0BA9_u0BC2
Encoding: 181 -1 181
Width: 3875
GlyphClass: 2
Flags: HW
LayerCount: 2
Fore
SplineSet
1000 -739 m 0xdff8
 287 -739 -87 -372 -64 -192 c 1
 -50 -128 -5 -90 67 -90 c 2
 1988 -87 l 1
 2048 -17 2101 55 2147 130 c 1
 2245 293 2307 440 2335 574 c 0
 2434 1039 2226 1164 2042 1164 c 0
 1952 1164 1871 1146 1800 1118 c 1
 1929 985 1967 786 1923 580 c 0
 1822 106 1647 -23 1424 -23 c 0xeff8
 1274 -23 1065 51 1171 549 c 0
 1222 790 1344 974 1489 1099 c 1
 1410 1143 1310 1165 1186 1165 c 0
 878 1165 618 974 507 815 c 1
 572 852 652 875 727 875 c 0
 950 875 1059 696 1006 445 c 0
 951 188 812 -22 557 -22 c 0
 319 -22 213 230 291 595 c 0
 391 1067 816 1315 1198 1315 c 0
 1385 1315 1542 1283 1666 1218 c 1
 1794 1283 1928 1315 2065 1315 c 0
 2600 1315 2647 887 2574 542 c 0
 2521 293 2398 81 2267 -89 c 1
 2701 -89 l 1
 3000 1316 l 1
 3911 1316 l 1
 3879 1166 l 1
 3612 1166 l 1
 3314 -239 l 1
 3068 -239 l 1
 3367 1166 l 1
 3106 1166 l 1
 2808 -239 l 1
 2138 -239 l 1
 1872 -518 1490 -739 1000 -739 c 0xdff8
107 -248 m 0
 107 -249 107 -251 107 -253 c 0
 121 -334 443 -587 1012 -589 c 1
 1345 -589 1631 -434 1844 -242 c 1
 141 -242 l 2
 126 -242 113 -244 107 -248 c 0
1313 546 m 0
 1280 389 1261 126 1406 126 c 0
 1511 126 1604 207 1683 578 c 0
 1715 728 1693 891 1603 1003 c 1
 1478 905 1356 748 1313 546 c 0
420 541 m 1
 366 282 457 195 550 195 c 0xdff8
 652 195 733 304 760 433 c 0
 760 434 761 435 761 436 c 0
 785 551 735 681 629 681 c 0
 522 681 454 604 420 541 c 1
EndSplineSet
Ligature2: "sub_ligature_pststaml_8 subtable" u0BA9 u0BC2
EndChar

StartChar: u0BA9_u0BCD
Encoding: 184 -1 184
Width: 2581
GlyphClass: 2
Flags: HW
LayerCount: 2
Fore
SplineSet
233 542 m 1x7f20
 179 283 269 196 362 196 c 0
 468 196 545 307 573 436 c 0
 606 587 519 681 442 681 c 0
 335 681 264 602 233 542 c 1x7f20
1125 546 m 0
 1092 389 1072 126 1217 126 c 0
 1357 126 1427 269 1493 579 c 0xbf60
 1527 737 1505 893 1414 1001 c 1
 1273 894 1168 748 1125 546 c 0
1240 -24 m 0
 1015 -24 899 135 987 548 c 0
 1051 848 1219 1024 1302 1097 c 1
 1224 1141 1125 1163 1001 1163 c 0
 681 1163 423 966 319 813 c 1
 383 851 464 873 541 873 c 0
 764 873 874 694 821 443 c 0
 775 226 650 -23 371 -23 c 0x7f60
 132 -23 26 228 104 594 c 0
 204 1065 633 1314 1012 1314 c 0
 1204 1314 1359 1282 1480 1217 c 1
 1611 1282 1749 1314 1891 1314 c 2
 2621 1314 l 1
 2589 1164 l 1
 2322 1164 l 1
 2069 -26 l 1
 1823 -26 l 1
 2076 1164 l 1
 1881 1164 l 2
 1787 1164 1699 1147 1616 1115 c 1
 1740 989 1786 802 1739 580 c 0
 1639 108 1463 -24 1240 -24 c 0
1388 1669 m 0x3fa0
 1410 1773 1507 1857 1602 1857 c 0
 1699 1857 1759 1771 1737 1669 c 0
 1716 1571 1619 1481 1522 1481 c 0
 1431 1481 1366 1564 1388 1669 c 0x3fa0
EndSplineSet
Ligature2: "pstspostbasesubstitution subtable" u0BA9 u0BCD
LCarets2: 1 0
EndChar

StartChar: u0BAA
Encoding: 185 2986 185
Width: 1581
GlyphClass: 1
Flags: HW
LayerCount: 2
Fore
SplineSet
1338 -25 m 1
 -28 -25 l 1
 257 1315 l 1
 503 1315 l 1
 247 111 l 1
 1120 111 l 1
 1376 1315 l 1
 1623 1315 l 1
 1338 -25 l 1
EndSplineSet
EndChar

StartChar: u0BAA_u0BBF
Encoding: 186 -1 186
Width: 1874
GlyphClass: 2
Flags: HW
LayerCount: 2
Fore
SplineSet
1093 1553 m 0
 1160 1868 1355 2059 1634 2059 c 0
 1897 2059 2038 1897 1949 1479 c 2
 1631 -25 l 1
 1506 -25 l 1
 1818 1447 l 2
 1861 1651 1832 1809 1580 1809 c 0
 1443 1809 1283 1722 1240 1517 c 0
 1200 1328 1288 1278 1366 1271 c 1
 1376 1316 l 1
 1622 1316 l 1
 1337 -24 l 1
 -29 -24 l 1
 256 1316 l 1
 503 1316 l 1
 247 112 l 1
 1119 112 l 1
 1333 1120 l 1
 1187 1130 1025 1233 1093 1553 c 0
EndSplineSet
Ligature2: "sub_ligature_pststaml_2 subtable" u0BAA u0BBF
EndChar

StartChar: u0BAA_u0BC0
Encoding: 187 -1 187
Width: 1828
GlyphClass: 2
Flags: HW
LayerCount: 2
Fore
SplineSet
1293 1521 m 0xfd80
 1253 1334 1306 1252 1360 1234 c 1
 1377 1314 l 1
 1624 1314 l 1
 1339 -26 l 1
 -27 -26 l 1
 257 1314 l 1
 504 1314 l 1
 248 110 l 1
 1120 110 l 1
 1333 1109 l 1xfe80
 1261 1117 1210 1164 1172 1230 c 0
 1126 1311 1119 1420 1147 1553 c 0
 1240 1989 1610 2101 1801 2101 c 0
 1933 2101 2047 2071 2139 2010 c 0
 2234 1947 2267 1840 2236 1689 c 1
 2194 1493 2031 1354 1835 1354 c 0
 1622 1354 1568 1519 1597 1657 c 0
 1614 1736 1661 1825 1723 1882 c 1
 1710 1883 1697 1884 1684 1884 c 0
 1476 1884 1322 1656 1293 1521 c 0xfd80
1729 1651 m 0xfd80
 1710 1563 1755 1490 1836 1490 c 0
 1923 1490 2005 1566 2023 1653 c 0
 2041 1739 2005 1827 1899 1828 c 1
 1820 1811 1749 1743 1729 1651 c 0xfd80
EndSplineSet
Ligature2: "sub_ligature_pststaml_4 subtable" u0BAA u0BC0
EndChar

StartChar: u0BAA_u0BC1
Encoding: 188 -1 188
Width: 1581
GlyphClass: 2
Flags: HW
LayerCount: 2
Fore
SplineSet
1256 -412 m 1
 1009 -412 l 1
 1092 -25 l 1
 -28 -25 l 1
 257 1315 l 1
 503 1315 l 1
 247 111 l 1
 1120 111 l 1
 1376 1315 l 1
 1622 1315 l 1
 1256 -412 l 1
EndSplineSet
Ligature2: "sub_ligature_pststaml_6 subtable" u0BAA u0BC1
EndChar

StartChar: u0BAA_u0BC2
Encoding: 189 -1 189
Width: 2153
GlyphClass: 2
Flags: HW
LayerCount: 2
Fore
SplineSet
559 -393 m 0
 579 -298 532 -233 451 -233 c 0
 373 -233 286 -299 266 -394 c 0
 246 -489 288 -569 387 -570 c 1
 454 -554 537 -498 559 -393 c 0
1342 138 m 1
 1240 -341 l 1
 1007 -341 l 1
 1074 -25 l 1
 -28 -25 l 1
 257 1315 l 1
 490 1315 l 1
 234 111 l 1
 1107 111 l 1
 1363 1315 l 1
 1596 1315 l 1
 1386 339 l 1
 1442 383 1513 406 1584 406 c 0
 1721 406 1928 272 1871 5 c 0
 1845 -117 1754 -352 1439 -552 c 0
 1240 -678 905 -769 596 -769 c 0
 158 -769 103 -548 134 -400 c 0
 166 -250 266 -94 498 -94 c 0
 729 -94 763 -265 735 -398 c 0
 716 -488 659 -569 592 -618 c 1
 606 -621 622 -623 639 -622 c 0
 891 -615 1183 -510 1322 -405 c 0
 1455 -305 1571 -142 1605 18 c 0
 1626 119 1552 214 1482 214 c 0
 1441 214 1376 200 1342 138 c 1
EndSplineSet
Ligature2: "sub_ligature_pststaml_8 subtable" u0BAA u0BC2
LCarets2: 1 0
EndChar

StartChar: u0BAA_u0BCD
Encoding: 190 -1 190
Width: 1581
GlyphClass: 2
Flags: HW
LayerCount: 2
Fore
SplineSet
1338 -25 m 1
 -28 -25 l 1
 257 1315 l 1
 503 1315 l 1
 247 111 l 1
 1120 111 l 1
 1376 1315 l 1
 1622 1315 l 1
 1338 -25 l 1
1068 1856 m 0
 1166 1856 1226 1774 1204 1668 c 1
 1182 1564 1084 1480 989 1480 c 0
 894 1480 833 1565 855 1668 c 0
 878 1776 976 1856 1068 1856 c 0
EndSplineSet
Ligature2: "pstspostbasesubstitution subtable" u0BAA u0BCD
EndChar

StartChar: u0BAE
Encoding: 191 2990 191
Width: 1607
GlyphClass: 1
Flags: HW
LayerCount: 2
Fore
SplineSet
1146 1313 m 0
 1500 1313 1575 969 1506 643 c 0
 1421 243 1213 -25 985 -25 c 2
 -28 -25 l 1
 257 1315 l 1
 503 1315 l 1
 250 125 l 1
 509 125 l 1
 660 836 l 2
 715 1094 838 1313 1146 1313 c 0
1136 1140 m 0
 1070 1140 959 1085 906 833 c 2
 755 125 l 1
 996 125 l 2
 1099 125 1282 257 1360 625 c 0
 1420 907 1355 1140 1136 1140 c 0
EndSplineSet
EndChar

StartChar: u0BAE_u0BBF
Encoding: 192 -1 192
Width: 1902
GlyphClass: 2
Flags: HW
LayerCount: 2
Fore
SplineSet
1052 1310 m 1xfb
 1035 1388 1038 1482 1061 1590 c 0
 1125 1889 1330 2106 1656 2106 c 0
 1928 2106 2073 1935 1979 1494 c 2
 1659 -25 l 1
 1532 -25 l 1
 1855 1491 l 2
 1887 1640 1871 1862 1606 1862 c 0
 1340 1862 1232 1668 1191 1475 c 0xf7
 1180 1424 1178 1368 1199 1318 c 1
 1385 1311 1612 1139 1504 630 c 0
 1460 424 1389 263 1288 150 c 0
 1194 44 1093 -20 987 -20 c 2
 -26 -20 l 1
 259 1320 l 1
 505 1320 l 1
 252 130 l 1
 511 130 l 1
 662 841 l 2
 738 1199 916 1287 1052 1310 c 1xfb
1138 1141 m 0
 1072 1141 961 1086 908 834 c 2
 757 126 l 1xfb
 998 126 l 2
 1101 126 1284 258 1362 626 c 0
 1422 908 1357 1141 1138 1141 c 0
EndSplineSet
Ligature2: "sub_ligature_pststaml_2 subtable" u0BAE u0BBF
EndChar

StartChar: u0BAE_u0BC0
Encoding: 193 -1 193
Width: 1811
GlyphClass: 2
Flags: HW
LayerCount: 2
Fore
SplineSet
1139 1140 m 0xfb80
 1073 1140 962 1085 909 833 c 2
 759 125 l 1
 1000 125 l 2
 1103 125 1286 257 1364 625 c 0
 1424 907 1358 1140 1139 1140 c 0xfb80
1554 1948 m 1
 1541 1949 1528 1949 1515 1949 c 0
 1352 1949 1192 1784 1150 1586 c 0xf780
 1122 1452 1171 1353 1205 1311 c 1
 1593 1269 1534 797 1502 624 c 1
 1445 356 1353 218 1287 144 c 0
 1187 32 1085 -26 984 -26 c 2
 -28 -26 l 1
 257 1314 l 1
 503 1314 l 1
 250 124 l 1
 509 124 l 1
 660 835 l 2xfb80
 714 1087 838 1282 1062 1309 c 1
 1018 1377 979 1486 1007 1620 c 0xf780
 1091 2014 1388 2168 1632 2168 c 0
 1737 2168 1862 2150 1971 2077 c 0
 2035 2034 2106 1947 2065 1752 c 0
 2024 1557 1861 1417 1665 1417 c 0
 1452 1417 1397 1580 1427 1720 c 0
 1443 1795 1491 1889 1554 1948 c 1
1560 1721 m 0
 1541 1633 1587 1560 1668 1560 c 0
 1755 1560 1837 1634 1856 1723 c 0
 1874 1808 1838 1898 1732 1899 c 1
 1652 1882 1580 1813 1560 1721 c 0
EndSplineSet
Ligature2: "sub_ligature_pststaml_4 subtable" u0BAE u0BC0
EndChar

StartChar: u0BAE_u0BC1
Encoding: 194 -1 194
Width: 2167
GlyphClass: 2
Flags: HW
LayerCount: 2
Fore
SplineSet
1709 1315 m 0
 2074 1315 2139 979 2064 625 c 0
 2024 438 1940 209 1769 70 c 0
 1715 26 1637 -24 1546 -24 c 2
 1288 -24 l 1
 1255 -179 l 2
 1200 -437 1071 -655 667 -655 c 0
 174 -655 -53 -172 76 433 c 0
 125 664 265 1084 541 1309 c 2
 560 1325 l 1
 633 1235 l 1
 612 1216 l 2
 374 1006 262 655 213 425 c 0
 98 -117 327 -501 675 -501 c 0
 885 -501 952 -435 1007 -178 c 2
 1040 -23 l 1
 534 -23 l 1
 819 1317 l 1
 1065 1317 l 1
 812 127 l 1
 1072 127 l 1
 1223 838 l 2
 1278 1096 1401 1315 1709 1315 c 0
1699 1140 m 0
 1633 1140 1522 1085 1469 833 c 2
 1319 125 l 1
 1560 125 l 2
 1663 125 1845 257 1923 625 c 0
 1983 907 1918 1140 1699 1140 c 0
EndSplineSet
Ligature2: "sub_ligature_pststaml_6 subtable" u0BAE u0BC1
EndChar

StartChar: u0BAE_u0BC2
Encoding: 195 -1 195
Width: 2434
GlyphClass: 2
Flags: HW
LayerCount: 2
Fore
SplineSet
1966 1141 m 0xf7c0
 1900 1141 1790 1086 1737 834 c 2
 1586 126 l 1
 1827 126 l 2
 1943 126 2118 282 2191 625 c 0
 2258 941 2166 1141 1966 1141 c 0xf7c0
565 825 m 0
 649 825 726 885 746 977 c 0
 768 1080 735 1168 636 1168 c 0xefc0
 514 1168 435 1054 415 964 c 1
 415 883 480 825 565 825 c 0
312 795 m 1
 278 707 239 576 213 452 c 0
 211 441 208 430 206 419 c 0
 77 -189 504 -506 830 -506 c 0
 1142 -506 1227 -377 1268 -183 c 2
 1301 -28 l 1
 795 -28 l 1
 1080 1312 l 1
 1327 1312 l 1xefc0
 1074 122 l 1
 1333 122 l 1
 1484 833 l 2
 1539 1091 1663 1310 1971 1310 c 0xf7c0
 2332 1310 2397 968 2323 622 c 0
 2283 435 2199 205 2028 66 c 0
 1974 22 1897 -27 1806 -27 c 2
 1547 -27 l 1
 1514 -182 l 2
 1433 -564 1130 -660 817 -660 c 0
 342 -660 -80 -257 65 427 c 0
 225 1179 501 1312 667 1312 c 0
 847 1312 929 1196 885 989 c 0
 831 735 650 664 532 664 c 0
 436 664 346 712 312 795 c 1
EndSplineSet
Ligature2: "sub_ligature_pststaml_8 subtable" u0BAE u0BC2
EndChar

StartChar: u0BAE_u0BCD
Encoding: 196 -1 196
Width: 1699
GlyphClass: 2
Flags: HW
LayerCount: 2
Fore
SplineSet
1146 1313 m 0xf6
 1511 1313 1570 970 1502 625 c 1
 1445 357 1353 219 1287 145 c 0
 1187 33 1086 -25 985 -25 c 2
 -28 -25 l 1
 257 1315 l 1
 503 1315 l 1
 250 125 l 1
 509 125 l 1
 660 836 l 2
 715 1094 838 1313 1146 1313 c 0xf6
1136 1140 m 0
 1070 1140 959 1085 906 833 c 2
 755 125 l 1
 996 125 l 2
 1099 125 1282 257 1360 625 c 0
 1420 907 1355 1140 1136 1140 c 0
998 1855 m 0
 1096 1855 1156 1773 1134 1667 c 1
 1112 1563 1014 1479 919 1479 c 0
 824 1479 763 1564 785 1667 c 0xfa
 808 1775 906 1855 998 1855 c 0
EndSplineSet
Ligature2: "pstspostbasesubstitution subtable" u0BAE u0BCD
EndChar

StartChar: u0BAF
Encoding: 197 2991 197
Width: 1673
GlyphClass: 1
Flags: HW
LayerCount: 2
Fore
SplineSet
267 -25 m 0
 92 -25 8 133 48 321 c 2
 259 1314 l 1
 506 1314 l 1
 293 315 l 2
 260 161 297 111 367 111 c 0
 452 111 520 165 555 329 c 2
 764 1314 l 1
 904 1314 l 1
 648 110 l 1
 1214 110 l 1
 1470 1314 l 1
 1717 1314 l 1
 1432 -25 l 1
 479 -25 l 1
 490 29 l 1
 438 -2 359 -25 267 -25 c 0
EndSplineSet
EndChar

StartChar: u0BAF_u0BBF
Encoding: 198 -1 198
Width: 1955
GlyphClass: 2
Flags: HW
LayerCount: 2
Fore
SplineSet
1729 2058 m 0
 2070 2058 2097 1789 2031 1478 c 2
 1712 -25 l 1
 1585 -25 l 1
 1898 1447 l 2
 1950 1691 1896 1809 1673 1809 c 0
 1522 1809 1376 1708 1335 1517 c 0
 1295 1328 1383 1278 1461 1271 c 1
 1471 1316 l 1
 1717 1316 l 1
 1432 -24 l 1
 479 -24 l 1
 490 30 l 1
 438 -1 359 -24 267 -24 c 0
 92 -24 8 134 48 322 c 2
 259 1315 l 1
 506 1315 l 1
 294 316 l 2
 261 162 297 112 367 112 c 0
 452 112 520 166 555 330 c 2
 764 1315 l 1
 904 1315 l 1
 648 111 l 1
 1214 111 l 1
 1429 1119 l 1
 1283 1128 1121 1230 1189 1552 c 0
 1256 1867 1450 2058 1729 2058 c 0
EndSplineSet
Ligature2: "sub_ligature_pststaml_2 subtable" u0BAF u0BBF
EndChar

StartChar: u0BAF_u0BC0
Encoding: 199 -1 199
Width: 1921
GlyphClass: 2
Flags: HW
LayerCount: 2
Fore
SplineSet
266 -26 m 0xff40
 91 -26 8 132 48 320 c 2
 259 1313 l 1
 506 1313 l 1
 293 314 l 2
 260 160 297 110 367 110 c 0
 452 110 520 164 555 328 c 2
 764 1313 l 1
 904 1313 l 1
 648 109 l 1
 1214 109 l 1xff40
 1426 1111 l 1
 1289 1127 1185 1290 1241 1555 c 0
 1334 1992 1702 2104 1894 2104 c 0
 1999 2104 2123 2086 2232 2013 c 0
 2296 1970 2367 1883 2326 1688 c 0
 2285 1493 2123 1353 1927 1353 c 0
 1714 1353 1659 1516 1689 1656 c 0xfec0
 1706 1735 1753 1825 1815 1882 c 1
 1802 1883 1790 1883 1777 1883 c 0
 1585 1883 1421 1684 1386 1521 c 0
 1346 1333 1399 1251 1453 1234 c 1
 1470 1314 l 1
 1717 1314 l 1
 1432 -26 l 1
 479 -26 l 1
 490 28 l 1
 438 -3 358 -26 266 -26 c 0xff40
1824 1651 m 0xfec0
 1805 1563 1850 1490 1931 1490 c 0
 2022 1490 2098 1566 2117 1654 c 0
 2136 1745 2101 1827 1995 1828 c 1
 1916 1811 1843 1740 1824 1651 c 0xfec0
EndSplineSet
Ligature2: "sub_ligature_pststaml_4 subtable" u0BAF u0BC0
EndChar

StartChar: u0BAF_u0BC1
Encoding: 200 -1 200
Width: 1673
GlyphClass: 2
Flags: HW
LayerCount: 2
Fore
SplineSet
267 -25 m 0
 92 -25 8 133 48 321 c 2
 259 1314 l 1
 506 1314 l 1
 293 315 l 2
 260 161 297 111 367 111 c 0
 452 111 520 165 555 329 c 2
 764 1314 l 1
 904 1314 l 1
 648 110 l 1
 1214 110 l 1
 1470 1314 l 1
 1717 1314 l 1
 1350 -412 l 1
 1103 -412 l 1
 1186 -25 l 1
 479 -25 l 1
 490 29 l 1
 438 -2 359 -25 267 -25 c 0
EndSplineSet
Ligature2: "sub_ligature_pststaml_6 subtable" u0BAF u0BC1
EndChar

StartChar: u0BAF_u0BC2
Encoding: 201 -1 201
Width: 2273
GlyphClass: 2
Flags: HW
LayerCount: 2
Fore
SplineSet
621 -363 m 0
 641 -268 594 -203 513 -203 c 0
 428 -203 347 -276 328 -363 c 0
 306 -469 356 -540 449 -541 c 1
 517 -525 598 -470 621 -363 c 0
1459 134 m 1
 1363 -339 l 1
 1116 -339 l 1
 1183 -23 l 1
 476 -23 l 1
 488 31 l 1
 436 0 356 -23 264 -23 c 0
 89 -23 6 135 46 323 c 2
 257 1316 l 1
 503 1316 l 1
 291 317 l 2
 258 163 295 113 365 113 c 0
 450 113 518 167 553 331 c 2
 762 1316 l 1
 901 1316 l 1
 646 112 l 1
 1212 112 l 1
 1468 1315 l 1
 1716 1315 l 1
 1503 335 l 1
 1559 379 1630 402 1701 402 c 0
 1838 402 2045 268 1988 1 c 0
 1962 -121 1872 -356 1557 -556 c 0
 1414 -647 1140 -756 731 -756 c 0
 206 -756 164 -528 197 -371 c 0
 238 -178 367 -67 559 -67 c 0
 790 -67 824 -233 795 -368 c 0
 776 -459 717 -545 644 -596 c 1
 672 -611 709 -616 767 -616 c 0
 1014 -616 1305 -510 1439 -409 c 0
 1572 -308 1688 -146 1722 14 c 0
 1743 115 1669 210 1599 210 c 0
 1558 210 1493 196 1459 134 c 1
EndSplineSet
Ligature2: "sub_ligature_pststaml_8 subtable" u0BAF u0BC2
LCarets2: 1 0
EndChar

StartChar: u0BAF_u0BCD
Encoding: 202 -1 202
Width: 1673
GlyphClass: 2
Flags: HW
LayerCount: 2
Fore
SplineSet
267 -25 m 0xec
 92 -25 8 133 48 321 c 2
 259 1314 l 1
 506 1314 l 1
 293 315 l 2
 260 161 297 111 367 111 c 0
 452 111 520 165 555 329 c 2
 764 1314 l 1
 904 1314 l 1
 648 110 l 1
 1214 110 l 1
 1470 1314 l 1
 1717 1314 l 1
 1432 -25 l 1
 479 -25 l 1
 490 29 l 1
 438 -2 359 -25 267 -25 c 0xec
1029 1855 m 0
 1127 1855 1187 1773 1165 1667 c 1
 1143 1563 1045 1479 950 1479 c 0
 855 1479 794 1564 816 1667 c 0xf4
 839 1775 937 1855 1029 1855 c 0
EndSplineSet
Ligature2: "pstspostbasesubstitution subtable" u0BAF u0BCD
EndChar

StartChar: u0BB0
Encoding: 203 2992 203
Width: 1129
GlyphClass: 1
Flags: HW
LayerCount: 2
Fore
SplineSet
872 1165 m 1
 622 -12 l 1
 79 -426 l 1
 -148 -426 l 1
 379 11 l 1
 625 1165 l 1
 366 1165 l 1
 113 -25 l 1
 -26 -25 l 1
 258 1315 l 1
 1172 1315 l 1
 1139 1165 l 1
 872 1165 l 1
EndSplineSet
EndChar

StartChar: u0BB0_u0BBF
Encoding: 204 -1 204
Width: 1421
GlyphClass: 2
Flags: HW
LayerCount: 2
Fore
SplineSet
880 1316 m 1xec
 1172 1316 l 1
 1140 1166 l 1
 873 1166 l 1
 620 -24 l 1
 374 -24 l 1
 627 1166 l 1xf4
 368 1166 l 1
 115 -24 l 1
 -24 -24 l 1
 261 1316 l 1
 737 1316 l 1
 721 1393 720 1470 736 1545 c 0
 786 1782 926 2059 1239 2059 c 0
 1546 2059 1572 1824 1499 1480 c 2
 1178 -25 l 1
 1053 -25 l 1
 1365 1447 l 2
 1425 1730 1359 1809 1182 1809 c 0
 1052 1809 912 1720 869 1517 c 0
 849 1423 865 1346 880 1316 c 1xec
EndSplineSet
Ligature2: "sub_ligature_pststaml_2 subtable" u0BB0 u0BBF
EndChar

StartChar: u0BB0_u0BC0
Encoding: 205 -1 205
Width: 1201
GlyphClass: 2
Flags: HW
LayerCount: 2
Fore
SplineSet
715 1589 m 0xfb
 687 1456 735 1357 769 1315 c 1
 1169 1315 l 1
 1137 1165 l 1
 870 1165 l 1
 617 -25 l 1
 371 -25 l 1
 624 1165 l 1xf7
 365 1165 l 1
 112 -25 l 1
 -27 -25 l 1
 258 1315 l 1
 625 1315 l 1
 582 1383 543 1491 571 1623 c 0
 655 2017 953 2171 1197 2171 c 0
 1302 2171 1426 2153 1535 2080 c 0
 1599 2037 1670 1950 1629 1755 c 0
 1588 1560 1426 1420 1230 1420 c 0
 1017 1420 962 1583 992 1723 c 0
 1008 1797 1055 1892 1118 1951 c 1
 1105 1952 1092 1952 1079 1952 c 0
 916 1952 757 1787 715 1589 c 0xfb
1127 1723 m 0
 1108 1635 1154 1562 1235 1562 c 0
 1323 1562 1404 1638 1423 1725 c 0
 1441 1810 1405 1900 1299 1901 c 1
 1219 1884 1147 1815 1127 1723 c 0
EndSplineSet
Ligature2: "sub_ligature_pststaml_4 subtable" u0BB0 u0BC0
EndChar

StartChar: u0BB0_u0BC1
Encoding: 206 -1 206
Width: 1968
GlyphClass: 2
Flags: HW
LayerCount: 2
Fore
SplineSet
222 482 m 0
 120 4 256 -413 745 -413 c 0
 1184 -413 1445 -176 1545 292 c 0
 1578 445 1552 610 1398 610 c 0
 1331 610 1281 587 1246 540 c 1
 1126 -26 l 1
 880 -26 l 1
 1133 1164 l 1
 873 1164 l 1
 620 -26 l 1
 480 -26 l 1
 765 1314 l 1
 1678 1314 l 1
 1647 1164 l 1
 1380 1164 l 1
 1289 739 l 1
 1344 778 1416 798 1480 798 c 0
 1759 798 1846 543 1794 299 c 0
 1747 78 1650 -150 1458 -330 c 0
 1244 -531 937 -568 709 -568 c 0
 131 -568 -36 -71 83 487 c 0
 154 819 350 1158 538 1309 c 2
 557 1324 l 1
 630 1234 l 1
 609 1215 l 2
 439 1067 289 798 222 482 c 0
EndSplineSet
Ligature2: "sub_ligature_pststaml_6 subtable" u0BB0 u0BC1
EndChar

StartChar: u0BB0_u0BC2
Encoding: 207 -1 207
Width: 2288
GlyphClass: 2
Flags: HW
LayerCount: 2
Fore
SplineSet
564 827 m 0xbf80
 648 827 725 887 745 979 c 0
 767 1082 734 1170 635 1170 c 0
 513 1170 434 1056 414 966 c 1
 414 885 479 827 564 827 c 0xbf80
867 -567 m 0
 270 -567 -53 -145 81 487 c 0
 152 820 247 999 324 1101 c 0
 433 1246 550 1315 670 1315 c 0
 850 1315 931 1199 887 992 c 0
 833 738 653 667 535 667 c 0xbf80
 438 667 346 716 313 800 c 1
 277 714 245 607 218 478 c 0
 103 -62 416 -420 904 -420 c 0
 1544 -420 1801 7 1862 292 c 0
 1879 372 1878 446 1858 515 c 0
 1845 560 1813 611 1714 611 c 0
 1647 611 1597 588 1562 541 c 1
 1442 -25 l 1
 1196 -25 l 1
 1449 1165 l 1
 1189 1165 l 1
 936 -25 l 1
 797 -25 l 1
 1082 1315 l 1
 1995 1315 l 1
 1963 1165 l 1
 1696 1165 l 1
 1606 739 l 1
 1659 776 1729 798 1797 798 c 0xdf80
 2076 798 2162 543 2110 299 c 0
 1972 -352 1450 -567 867 -567 c 0
EndSplineSet
Ligature2: "sub_ligature_pststaml_8 subtable" u0BB0 u0BC2
EndChar

StartChar: u0BB0_u0BCD
Encoding: 208 -1 208
Width: 1128
GlyphClass: 2
Flags: HW
LayerCount: 2
Fore
SplineSet
624 1165 m 1xe8
 365 1165 l 1
 112 -25 l 1
 -27 -25 l 1
 258 1315 l 1
 1171 1315 l 1
 1139 1165 l 1
 872 1165 l 1
 619 -25 l 1
 371 -25 l 1
 624 1165 l 1xe8
869 1856 m 0
 967 1856 1027 1774 1005 1668 c 1
 983 1564 885 1480 790 1480 c 0
 695 1480 634 1565 656 1668 c 0xf0
 679 1776 777 1856 869 1856 c 0
EndSplineSet
Ligature2: "pstspostbasesubstitution subtable" u0BB0 u0BCD
EndChar

StartChar: u0BB1
Encoding: 209 2993 209
Width: 1661
GlyphClass: 1
Flags: W
HStem: -329 168<308.128 868.327> 1165 151<529.718 781.558 1064.76 1289.18>
VStem: -120 237<-695.218 -482.285>
DStem2: 114 -24 253 -24 0.215694 0.976461<29.9815 1236.57> 513 -23 758 -23 0.207391 0.978258<50.8107 1175.51>
LayerCount: 2
Fore
SplineSet
1212 1316 m 0
 1610 1316 1636 999 1544 568 c 0
 1438 69 1200 -329 585 -329 c 0
 174 -329 135 -515 117 -599 c 0
 99 -685 60 -736 -39 -736 c 0
 -145 -736 -137 -575 -120 -494 c 0
 -92 -361 52 -161 510 -161 c 0
 904 -161 1160 -107 1301 558 c 0
 1391 984 1343 1165 1197 1165 c 0
 1091 1165 995 1095 967 962 c 2
 758 -23 l 1
 513 -23 l 1
 725 977 l 2
 757 1130 714 1165 637 1165 c 0
 558 1165 496 1123 468 990 c 2
 253 -24 l 1
 114 -24 l 1
 329 985 l 2
 375 1199 508 1316 726 1316 c 0
 837 1316 923 1273 955 1197 c 1
 1004 1251 1092 1316 1212 1316 c 0
EndSplineSet
EndChar

StartChar: u0BB1_u0BBE.old
Encoding: 211 -1 211
Width: 1994
GlyphClass: 1
Flags: HW
LayerCount: 2
Fore
SplineSet
1603 1313 m 0
 1837 1313 2016 1235 1949 905 c 1
 1904 692 1787 524 1643 433 c 1
 1708 375 1808 244 1760 16 c 0
 1708 -228 1491 -595 817 -595 c 0
 293 -595 -59 -190 73 432 c 0
 122 663 262 1083 538 1308 c 2
 557 1324 l 1
 630 1234 l 1
 609 1215 l 2
 371 1007 257 650 209 423 c 0
 98 -98 399 -444 852 -444 c 0
 1188 -444 1453 -260 1512 16 c 0
 1549 190 1514 324 1403 419 c 2
 1372 445 l 1
 1416 463 l 2
 1551 518 1649 659 1701 905 c 0
 1727 1025 1718 1163 1553 1163 c 0
 1416 1163 1309 1096 1280 959 c 2
 1071 -26 l 1
 825 -26 l 1
 1038 974 l 2
 1070 1127 1027 1162 950 1162 c 0
 871 1162 809 1120 781 987 c 2
 566 -27 l 1
 426 -27 l 1
 641 982 l 2
 687 1196 819 1313 1038 1313 c 0
 1181 1313 1242 1246 1265 1195 c 1
 1345 1282 1481 1313 1603 1313 c 0
EndSplineSet
EndChar

StartChar: u0BB1_u0BBF
Encoding: 212 -1 212
Width: 1955
GlyphClass: 2
Flags: HW
LayerCount: 2
Fore
SplineSet
637 1170 m 0xf780
 558 1170 497 1128 469 995 c 2
 253 -19 l 1
 114 -19 l 1
 329 990 l 2xef80
 375 1204 508 1321 726 1321 c 0
 836 1321 921 1277 954 1203 c 1
 994 1249 1045 1282 1107 1301 c 1
 1089 1380 1091 1477 1115 1588 c 0
 1179 1887 1384 2104 1710 2104 c 0
 1982 2104 2127 1933 2033 1492 c 2
 1711 -26 l 1
 1584 -26 l 1
 1906 1490 l 2
 1938 1639 1923 1861 1658 1861 c 0
 1392 1861 1284 1667 1243 1474 c 0
 1230 1412 1236 1359 1249 1317 c 1
 1344 1315 1433 1287 1497 1211 c 1
 1602 1093 1611 888 1543 567 c 0
 1393 -138 1040 -271 731 -315 c 0
 686 -321 637 -324 585 -324 c 0
 306 -324 195 -417 158 -475 c 0
 144 -496 130 -534 117 -594 c 0
 99 -680 61 -731 -44 -731 c 0
 -122 -731 -146 -617 -123 -507 c 0
 -104 -420 -66 -345 3 -295 c 0
 119 -211 238 -173 336 -166 c 1
 560 -154 l 1
 649 -154 735 -145 816 -127 c 1
 1050 -85 1208 123 1301 563 c 0
 1391 989 1344 1170 1198 1170 c 0
 1092 1170 996 1100 968 967 c 2
 758 -18 l 1
 513 -18 l 1
 725 982 l 2
 757 1135 714 1170 637 1170 c 0xf780
EndSplineSet
Ligature2: "sub_ligature_pststaml_2 subtable" u0BB1 u0BBF
EndChar

StartChar: u0BB1_u0BC0
Encoding: 213 -1 213
Width: 1694
GlyphClass: 2
Flags: HW
LayerCount: 2
Fore
SplineSet
1613 1724 m 0xf0a0
 1594 1636 1639 1563 1720 1563 c 0
 1800 1563 1886 1628 1906 1724 c 0
 1906 1726 l 0
 1925 1814 1891 1901 1784 1902 c 1
 1704 1885 1633 1816 1613 1724 c 0xf0a0
956 1199 m 1
 1000 1247 1060 1288 1123 1305 c 1
 1055 1404 1033 1512 1057 1626 c 0
 1140 2018 1438 2175 1685 2175 c 0
 1790 2175 1914 2157 2023 2084 c 0
 2087 2041 2158 1954 2117 1759 c 0
 2076 1564 1914 1424 1718 1424 c 0
 1505 1424 1450 1587 1480 1727 c 0xf5a0
 1497 1806 1544 1896 1606 1953 c 1
 1593 1954 1581 1954 1568 1954 c 0
 1366 1954 1233 1736 1202 1591 c 0
 1179 1482 1210 1382 1263 1316 c 1
 1477 1309 1582 1150 1587 944 c 0
 1590 838 1575 712 1544 565 c 0
 1394 -140 1041 -273 732 -317 c 0
 687 -323 639 -326 587 -326 c 0
 308 -326 197 -419 160 -477 c 0
 146 -498 131 -536 118 -596 c 0
 100 -682 62 -733 -43 -733 c 0
 -121 -733 -145 -619 -122 -509 c 0xf960
 -103 -422 -65 -347 4 -297 c 0
 120 -213 239 -175 337 -168 c 1
 562 -156 l 1
 651 -156 736 -147 817 -129 c 1
 1051 -87 1210 121 1303 561 c 0
 1393 987 1345 1168 1199 1168 c 0
 1093 1168 997 1098 969 965 c 2
 760 -20 l 1
 514 -20 l 1
 727 980 l 2
 759 1133 715 1168 638 1168 c 0
 559 1168 498 1126 470 993 c 2
 254 -21 l 1
 116 -21 l 1
 330 988 l 2xf660
 376 1202 509 1319 727 1319 c 0
 838 1319 924 1275 956 1199 c 1
EndSplineSet
Ligature2: "sub_ligature_pststaml_4 subtable" u0BB1 u0BC0
EndChar

StartChar: u0BB1_u0BC1
Encoding: 214 -1 214
Width: 2274
GlyphClass: 2
Flags: HW
LayerCount: 2
Fore
SplineSet
1315 1317 m 0
 1712 1317 1747 1012 1633 478 c 0
 1591 281 1515 92 1404 -87 c 1
 1774 -87 l 1
 2073 1318 l 1
 2318 1318 l 1
 1987 -238 l 1
 1295 -237 l 1
 1088 -495 843 -622 562 -622 c 0
 119 -622 -83 -307 -57 -183 c 0
 -49 -145 -20 -87 72 -87 c 2
 1171 -87 l 1
 1269 74 1341 260 1386 473 c 0
 1481 919 1478 1167 1301 1167 c 0
 1194 1167 1099 1094 1071 963 c 2
 862 -22 l 1
 616 -22 l 1
 829 978 l 2
 861 1131 817 1166 740 1166 c 0
 661 1166 600 1124 572 991 c 2
 356 -23 l 1
 218 -23 l 1
 432 986 l 2
 478 1200 611 1317 829 1317 c 0
 940 1317 1026 1274 1058 1198 c 1
 1107 1252 1195 1317 1315 1317 c 0
101 -246 m 1
 98 -277 206 -471 571 -474 c 1
 756 -474 919 -397 1058 -240 c 1
 134 -240 l 2
 120 -240 107 -242 101 -246 c 1
EndSplineSet
Ligature2: "sub_ligature_pststaml_6 subtable" u0BB1 u0BC1
EndChar

StartChar: u0BB1_u0BC2
Encoding: 215 -1 215
Width: 2941
GlyphClass: 2
Flags: HW
LayerCount: 2
Fore
SplineSet
1630 478 m 0
 1583 255 1498 68 1401 -87 c 1
 1771 -87 l 1
 2070 1318 l 1
 2982 1318 l 1
 2950 1168 l 1
 2685 1168 l 1
 2387 -237 l 1
 2140 -237 l 1
 2439 1168 l 1
 2179 1168 l 1
 1881 -237 l 1
 1297 -237 l 1
 1090 -495 845 -622 564 -622 c 0
 121 -622 -81 -307 -55 -183 c 0
 -47 -145 -18 -87 74 -87 c 2
 1168 -87 l 1
 1266 74 1338 260 1383 473 c 0
 1478 919 1475 1167 1298 1167 c 0
 1191 1167 1096 1094 1068 963 c 2
 859 -22 l 1
 613 -22 l 1
 826 978 l 2
 858 1131 814 1166 737 1166 c 0
 658 1166 597 1124 569 991 c 2
 354 -23 l 1
 215 -23 l 1
 429 986 l 2
 475 1200 608 1317 826 1317 c 0
 937 1317 1023 1274 1055 1198 c 1
 1104 1252 1193 1317 1313 1317 c 0
 1710 1317 1744 1012 1630 478 c 0
101 -246 m 1
 98 -277 206 -471 571 -474 c 1
 756 -474 919 -397 1058 -240 c 1
 134 -240 l 2
 120 -240 107 -242 101 -246 c 1
EndSplineSet
Ligature2: "sub_ligature_pststaml_8 subtable" u0BB1 u0BC2
LCarets2: 1 0
EndChar

StartChar: u0BB1_u0BCD
Encoding: 216 -1 216
Width: 1700
GlyphClass: 2
Flags: HW
LayerCount: 2
Fore
SplineSet
1212 1316 m 0xd6
 1606 1316 1636 995 1557 624 c 0
 1444 93 1238 -325 585 -329 c 0
 294 -331 190 -430 158 -480 c 0
 144 -501 130 -539 117 -599 c 0
 99 -685 60 -736 -45 -736 c 0
 -123 -736 -146 -622 -123 -512 c 0xe2
 -103 -419 -60 -354 -0 -302 c 0
 287 -51 765 -259 1023 -34 c 0
 1143 71 1237 259 1301 558 c 0
 1391 984 1343 1165 1197 1165 c 0
 1091 1165 995 1095 967 962 c 2
 758 -23 l 1
 513 -23 l 1
 725 977 l 2
 757 1130 714 1165 637 1165 c 0
 558 1165 496 1123 468 990 c 2
 253 -24 l 1
 114 -24 l 1
 329 985 l 2
 375 1199 508 1316 726 1316 c 0
 837 1316 923 1273 955 1197 c 1
 1004 1251 1092 1316 1212 1316 c 0xd6
1062 1857 m 0
 1160 1857 1220 1775 1198 1669 c 1
 1176 1565 1078 1481 983 1481 c 0
 888 1481 827 1566 849 1669 c 0xca
 872 1777 970 1857 1062 1857 c 0
EndSplineSet
Ligature2: "pstspostbasesubstitution subtable" u0BB1 u0BCD
LCarets2: 1 0
EndChar

StartChar: u0BB2
Encoding: 217 2994 217
Width: 2114
GlyphClass: 1
Flags: W
HStem: -25 219<273.304 468.626> -25 152<1292.54 1586.18> 679 193<353.71 656.5> 1066 271<1548.9 1739.51> 1162 152<624.281 1019.95>
LayerCount: 2
Fore
SplineSet
1708 1337 m 0x70
 2054 1337 2080 953 2016 651 c 0
 1891 61 1565 -25 1361 -25 c 0x70
 1072 -25 938 120 1046 630 c 0
 1132 1035 1096 1162 845 1162 c 0
 533 1162 364 944 303 799 c 1
 370 844 459 872 545 872 c 0
 768 872 877 693 824 442 c 0
 773 204 648 -25 401 -25 c 0
 62 -25 50 320 108 593 c 0
 202 1037 486 1314 881 1314 c 0xa8
 1288 1314 1395 1100 1295 631 c 0
 1219 272 1233 127 1408 127 c 0
 1655 127 1795 333 1848 582 c 0
 1882 741 1859 913 1819 974 c 0
 1766 1055 1595 1032 1509 1066 c 0
 1501 1069 1488 1075 1481 1099 c 0
 1471 1133 1483 1188 1485 1198 c 0
 1509 1309 1629 1337 1708 1337 c 0x70
444 679 m 0
 366 679 259 654 238 553 c 0
 237 550 236 548 236 545 c 0
 210 397 215 194 364 194 c 0xa0
 470 194 547 305 575 434 c 0
 608 585 521 679 444 679 c 0
EndSplineSet
EndChar

StartChar: u0BB2.old
Encoding: 218 -1 218
Width: 947
GlyphClass: 1
Flags: W
HStem: -25 200<286.268 568.568> 1370 164<588.277 786.567> 1846 175<686.905 824.636>
LayerCount: 2
Fore
SplineSet
890 2021 m 0
 1067 2021 1166 1959 1220 1913 c 0
 1307 1839 1333 1717 1298 1555 c 0
 1259 1371 1141 1204 948 1057 c 1
 759 921 l 1
 660 854 l 1
 568 788 l 1
 427 684 295 560 265 418 c 0
 226 235 292 175 409 175 c 0
 515 175 739 218 1017 552 c 0
 1053 595 1069 615 1078 627 c 2
 1172 761 l 1
 1118 494 l 1
 1115 489 l 2
 1027 342 872 183 681 72 c 0
 555 -1 437 -25 335 -25 c 0
 118 -25 9 140 62 389 c 0
 86 502 149 667 497 945 c 1
 695 1104 l 2
 887 1259 1030 1394 1065 1559 c 0
 1097 1708 1045 1796 970 1834 c 1
 987 1784 993 1719 979 1655 c 0
 943 1485 820 1370 646 1370 c 0
 484 1370 403 1498 439 1668 c 0
 489 1903 684 2021 890 2021 c 0
577 1683 m 0
 557 1590 603 1534 667 1534 c 0
 727 1534 816 1568 835 1659 c 0
 859 1770 827 1822 775 1846 c 1
 699 1844 599 1788 577 1683 c 0
EndSplineSet
EndChar

StartChar: u0BB2_u0BBF
Encoding: 219 -1 219
Width: 2408
GlyphClass: 2
Flags: HW
LayerCount: 2
Fore
SplineSet
2193 2106 m 0x7fe0
 2532 2106 2563 1853 2487 1495 c 2
 2164 -25 l 1
 2038 -25 l 1
 2361 1491 l 2
 2419 1763 2318 1856 2138 1856 c 0
 1986 1856 1859 1724 1822 1552 c 0
 1789 1399 1817 1298 1891 1170 c 1
 1956 1055 l 1
 2029 923 2055 836 2014 645 c 0
 1933 264 1731 -21 1362 -21 c 0x7fe0
 1073 -21 939 124 1047 634 c 0
 1133 1039 1097 1166 846 1166 c 0
 534 1166 365 948 304 803 c 1
 371 848 460 876 546 876 c 0
 769 876 878 697 825 446 c 0
 774 208 648 -21 401 -21 c 0xbfe0
 62 -21 51 324 109 597 c 0
 203 1041 487 1318 882 1318 c 0
 1289 1318 1396 1104 1296 635 c 0
 1220 276 1233 131 1408 131 c 0
 1655 131 1796 337 1849 586 c 0
 1894 798 1850 918 1790 1030 c 2
 1729 1146 l 2
 1658 1281 1623 1417 1668 1630 c 0
 1717 1860 1906 2106 2193 2106 c 0x7fe0
233 544 m 1
 179 285 269 198 362 198 c 0xbfe0
 468 198 545 309 573 438 c 0
 606 589 519 683 442 683 c 0
 335 683 264 604 233 544 c 1
EndSplineSet
Ligature2: "sub_ligature_pststaml_2 subtable" u0BB2 u0BBF
LCarets2: 1 0
EndChar

StartChar: u0BB2_u0BC0
Encoding: 220 -1 220
Width: 2172
GlyphClass: 2
Flags: HW
LayerCount: 2
Fore
SplineSet
233 542 m 1xbf38
 179 283 269 196 362 196 c 0
 468 196 545 307 573 436 c 0
 606 587 519 681 442 681 c 0
 335 681 264 602 233 542 c 1xbf38
1620 1586 m 0xbf78
 1597 1477 1636 1397 1757 1277 c 1
 1852 1181 l 1
 1919 1100 1969 1020 2001 940 c 0
 2034 857 2038 757 2013 641 c 0
 1891 66 1561 -25 1358 -27 c 1x7f78
 1069 -27 935 118 1043 628 c 0
 1129 1033 1093 1160 842 1160 c 0
 530 1160 361 942 300 797 c 1
 367 842 456 870 542 870 c 0
 765 870 874 691 821 440 c 0
 770 202 644 -27 397 -27 c 0
 58 -27 47 318 105 591 c 0
 199 1035 483 1312 878 1312 c 0
 1285 1312 1392 1098 1292 629 c 0xbfb8
 1216 270 1229 125 1404 125 c 0
 1651 125 1792 331 1845 580 c 0
 1868 687 1900 884 1720 1099 c 1
 1650 1197 1410 1310 1476 1619 c 0
 1559 2011 1857 2168 2104 2168 c 0
 2209 2168 2333 2150 2442 2077 c 0
 2506 2034 2577 1947 2536 1752 c 0
 2494 1556 2331 1417 2135 1417 c 0
 1922 1417 1868 1582 1897 1720 c 0
 1913 1795 1960 1889 2023 1948 c 1
 2010 1949 1998 1949 1986 1949 c 0
 1795 1949 1651 1732 1620 1586 c 0xbf78
2033 1723 m 0
 2014 1635 2059 1562 2140 1562 c 0
 2221 1562 2307 1630 2327 1726 c 0
 2346 1815 2306 1901 2205 1902 c 1
 2124 1885 2052 1814 2033 1723 c 0
EndSplineSet
Ligature2: "sub_ligature_pststaml_4 subtable" u0BB2 u0BC0
EndChar

StartChar: u0BB2_u0BC1
Encoding: 221 -1 221
Width: 2622
GlyphClass: 2
Flags: HW
LayerCount: 2
Fore
SplineSet
1707 1336 m 0xfbe0
 2057 1336 2079 944 2014 639 c 0
 1978 471 1921 330 1839 214 c 0
 1758 99 1651 27 1525 -5 c 1
 1513 -36 1500 -64 1486 -91 c 1
 2120 -91 l 1
 2419 1314 l 1
 2665 1314 l 1
 2334 -242 l 1
 1383 -240 l 1
 1271 -389 1012 -624 598 -624 c 0
 114 -624 -87 -313 -60 -185 c 0
 -52 -147 -23 -89 69 -89 c 2
 1222 -89 l 1
 1237 -61 1249 -37 1258 -18 c 1
 985 25 968 266 1045 629 c 0
 1131 1034 1095 1161 844 1161 c 0
 532 1161 363 943 302 798 c 1
 369 843 458 871 544 871 c 0
 767 871 876 692 823 441 c 0
 772 203 646 -26 399 -26 c 0
 60 -26 49 319 107 592 c 0
 201 1036 485 1313 880 1313 c 0xf7e0
 1287 1313 1394 1099 1294 630 c 0
 1218 271 1231 126 1406 126 c 0
 1653 126 1794 332 1847 581 c 0
 1881 740 1858 912 1818 973 c 0
 1765 1054 1593 1030 1507 1064 c 0
 1499 1067 1486 1073 1479 1098 c 0
 1470 1132 1482 1187 1484 1197 c 0
 1508 1308 1628 1336 1707 1336 c 0xfbe0
98 -248 m 1
 96 -258 98 -247 99 -252 c 0
 107 -306 249 -473 608 -476 c 1
 786 -476 966 -392 1106 -242 c 1
 132 -242 l 2
 117 -242 104 -244 98 -248 c 1
233 542 m 1
 179 283 269 196 362 196 c 0
 468 196 545 307 573 436 c 0
 606 587 519 681 442 681 c 0
 335 681 264 602 233 542 c 1
EndSplineSet
Ligature2: "sub_ligature_pststaml_6 subtable" u0BB2 u0BC1
EndChar

StartChar: u0BB2_u0BC2
Encoding: 222 -1 222
Width: 3289
GlyphClass: 2
Flags: HW
LayerCount: 2
Fore
SplineSet
603 -628 m 0xf7f0
 119 -628 -83 -317 -56 -189 c 0
 -48 -151 -18 -93 74 -93 c 2
 1221 -90 l 1
 1232 -71 1244 -48 1257 -20 c 1
 984 23 966 265 1043 628 c 0
 1129 1033 1093 1160 842 1160 c 0
 530 1160 361 942 300 797 c 1
 367 842 456 870 542 870 c 0
 765 870 874 691 821 440 c 0
 770 202 644 -27 397 -27 c 0
 58 -27 47 318 105 591 c 0
 199 1035 483 1312 878 1312 c 0xf7f0
 1285 1312 1392 1098 1292 629 c 0
 1216 270 1229 125 1404 125 c 0
 1651 125 1792 331 1845 580 c 0
 1879 739 1856 911 1816 972 c 0
 1763 1053 1591 1030 1505 1064 c 0
 1497 1067 1484 1072 1477 1097 c 0
 1468 1131 1480 1186 1482 1196 c 0
 1506 1307 1626 1335 1705 1335 c 0xfbf0
 2055 1335 2077 943 2012 638 c 0
 1976 470 1919 328 1837 212 c 0
 1757 99 1652 27 1523 -6 c 1
 1514 -29 1501 -60 1484 -93 c 1
 2118 -93 l 1
 2416 1312 l 1
 3330 1312 l 1
 3298 1162 l 1
 3031 1162 l 1
 2732 -243 l 1
 2486 -243 l 1
 2784 1162 l 1
 2525 1162 l 1
 2226 -243 l 1
 1388 -243 l 1
 1102 -610 722 -628 603 -628 c 0xf7f0
98 -248 m 1
 96 -258 98 -247 99 -252 c 0
 107 -306 249 -473 608 -476 c 1
 813 -476 983 -373 1109 -242 c 1
 132 -242 l 2
 117 -242 104 -244 98 -248 c 1
233 542 m 1
 179 283 269 196 362 196 c 0
 468 196 545 307 573 436 c 0
 606 587 519 681 442 681 c 0
 335 681 264 602 233 542 c 1
EndSplineSet
Ligature2: "sub_ligature_pststaml_8 subtable" u0BB2 u0BC2
EndChar

StartChar: u0BB2_u0BCD
Encoding: 225 -1 225
Width: 2114
GlyphClass: 2
Flags: HW
LayerCount: 2
Fore
SplineSet
1709 1338 m 0x7760
 2051 1338 2082 963 2016 654 c 0
 2015 650 2015 646 2014 642 c 0
 1933 261 1730 -24 1361 -24 c 0x7760
 1072 -24 938 121 1046 631 c 0
 1132 1036 1097 1163 846 1163 c 0
 534 1163 364 945 303 800 c 1
 370 845 459 873 545 873 c 0
 768 873 878 694 825 443 c 0
 774 205 648 -24 401 -24 c 0
 62 -24 50 321 108 594 c 0
 202 1038 487 1315 882 1315 c 0xaf60
 1289 1315 1395 1101 1295 632 c 0
 1219 273 1233 128 1408 128 c 0
 1655 128 1796 334 1849 583 c 0
 1883 742 1859 914 1819 975 c 0
 1767 1055 1595 1032 1509 1066 c 0
 1502 1069 1489 1073 1482 1097 c 0
 1471 1131 1484 1188 1486 1199 c 0
 1510 1310 1630 1338 1709 1338 c 0x7760
235 541 m 1
 181 282 272 195 365 195 c 0xa720
 471 195 548 306 576 435 c 0
 609 586 521 680 444 680 c 0
 337 680 266 601 235 541 c 1
1349 1853 m 0
 1446 1853 1507 1771 1485 1665 c 1
 1463 1561 1365 1477 1270 1477 c 0
 1175 1477 1114 1562 1136 1665 c 0x27a0
 1159 1773 1257 1853 1349 1853 c 0
EndSplineSet
Ligature2: "pstspostbasesubstitution subtable" u0BB2 u0BCD
EndChar

StartChar: u0BB3
Encoding: 226 2995 226
Width: 2208
GlyphClass: 1
Flags: HW
LayerCount: 2
Fore
SplineSet
856 1315 m 0
 1085 1315 1247 1256 1315 1134 c 1
 1353 1316 l 1
 2253 1316 l 1
 2217 1165 l 1
 1951 1165 l 1
 1698 -25 l 1
 1452 -25 l 1
 1705 1165 l 1
 1445 1165 l 1
 1192 -25 l 1
 946 -25 l 1
 1137 872 l 2
 1161 985 1111 1163 845 1163 c 0
 540 1163 366 952 304 798 c 1
 371 844 460 872 547 872 c 0
 770 872 880 693 827 442 c 0
 785 247 663 -24 402 -24 c 0
 117 -24 37 256 109 593 c 0
 202 1030 489 1315 856 1315 c 0
242 555 m 0
 222 462 207 197 369 197 c 0
 475 197 552 308 580 437 c 0
 613 588 526 682 449 682 c 0
 371 682 264 657 242 555 c 0
EndSplineSet
EndChar

StartChar: u0BB3_u0BBF
Encoding: 227 -1 227
Width: 2501
GlyphClass: 2
Flags: HW
LayerCount: 2
Fore
SplineSet
2318 2060 m 0xfec0
 2549 2060 2674 1929 2579 1480 c 2
 2260 -25 l 1
 2132 -25 l 1
 2445 1447 l 2
 2507 1740 2434 1809 2261 1809 c 0
 2127 1809 1990 1716 1948 1517 c 0xfec0
 1929 1429 1941 1350 1958 1316 c 1
 2251 1316 l 1
 2219 1166 l 1
 1952 1166 l 1
 1699 -24 l 1
 1453 -24 l 1
 1706 1166 l 1xff40
 1446 1166 l 1
 1193 -24 l 1
 948 -24 l 1
 1138 873 l 2
 1162 986 1112 1164 846 1164 c 0
 541 1164 367 953 305 799 c 1
 372 845 462 873 549 873 c 0
 772 873 881 694 828 443 c 0
 786 248 664 -23 403 -23 c 0
 118 -23 38 257 110 594 c 0
 203 1031 490 1316 857 1316 c 0
 1021 1316 1141 1291 1218 1235 c 0
 1267 1200 1297 1165 1316 1135 c 1
 1354 1317 l 1
 1817 1317 l 1
 1800 1396 1799 1472 1815 1546 c 0
 1865 1783 2005 2060 2318 2060 c 0xfec0
238 543 m 1
 206 385 244 197 367 197 c 0
 473 197 550 308 578 437 c 0
 611 588 524 682 447 682 c 0
 340 682 269 603 238 543 c 1
EndSplineSet
Ligature2: "sub_ligature_pststaml_2 subtable" u0BB3 u0BBF
LCarets2: 1 0
EndChar

StartChar: u0BB3_u0BC0
Encoding: 228 -1 228
Width: 2490
GlyphClass: 2
Flags: HW
LayerCount: 2
Fore
SplineSet
236 542 m 1xff30
 204 384 242 196 365 196 c 0
 471 196 548 307 576 436 c 0
 609 587 522 681 445 681 c 0
 338 681 267 602 236 542 c 1xff30
2206 1721 m 0
 2187 1633 2232 1560 2313 1560 c 0
 2393 1560 2479 1623 2499 1721 c 0
 2522 1829 2469 1899 2377 1900 c 1
 2296 1883 2225 1812 2206 1721 c 0
1798 1590 m 0xffb0
 1773 1472 1803 1376 1851 1316 c 1
 2250 1316 l 1
 2217 1163 l 1
 1950 1163 l 1
 1697 -27 l 1
 1452 -27 l 1
 1705 1163 l 1xff70
 1444 1163 l 1
 1192 -27 l 1
 946 -27 l 1
 1137 870 l 2
 1161 983 1110 1161 844 1161 c 0
 539 1161 366 950 304 796 c 1
 371 842 460 870 547 870 c 0
 770 870 880 691 827 440 c 0
 785 245 662 -26 401 -26 c 0
 116 -26 36 254 108 591 c 0
 201 1028 488 1313 855 1313 c 0
 1084 1313 1246 1254 1314 1132 c 1
 1353 1314 l 1
 1709 1314 l 1
 1665 1385 1627 1495 1654 1623 c 0
 1737 2015 2034 2172 2281 2172 c 0
 2386 2172 2511 2154 2620 2081 c 0
 2684 2038 2755 1951 2714 1756 c 0
 2672 1560 2508 1421 2312 1421 c 0
 2099 1421 2045 1586 2074 1724 c 0
 2090 1799 2138 1893 2201 1952 c 1
 2188 1953 2175 1953 2163 1953 c 0
 1961 1953 1829 1735 1798 1590 c 0xffb0
EndSplineSet
Ligature2: "sub_ligature_pststaml_4 subtable" u0BB3 u0BC0
LCarets2: 1 0
EndChar

StartChar: u0BB3_u0BC1
Encoding: 229 -1 229
Width: 2861
GlyphClass: 2
Flags: HW
LayerCount: 2
Fore
SplineSet
559 543 m 1xdfe0
 527 385 565 197 688 197 c 0
 793 197 869 306 895 428 c 0
 927 580 850 682 766 682 c 0
 656 682 590 604 559 543 c 1xdfe0
74 432 m 0
 131 698 267 1063 533 1308 c 2
 552 1326 l 1
 626 1236 l 1
 607 1218 l 2
 440 1054 283 752 213 423 c 0
 107 -78 467 -594 1213 -594 c 0
 1801 -594 2347 -141 2439 291 c 0
 2471 444 2446 609 2292 609 c 0xefe0
 2225 609 2175 586 2140 539 c 1
 2020 -27 l 1
 1775 -27 l 1
 2028 1163 l 1
 1767 1163 l 1
 1514 -27 l 1
 1269 -27 l 1
 1459 870 l 2
 1483 984 1431 1162 1167 1162 c 0
 863 1162 689 952 627 798 c 1
 694 844 783 870 869 870 c 0xdfe0
 1092 870 1204 694 1150 440 c 0
 1108 242 986 -26 724 -26 c 0
 511 -26 337 152 430 591 c 0
 523 1028 812 1313 1176 1313 c 2
 1206 1313 l 2
 1252 1313 1536 1309 1636 1132 c 1
 1675 1314 l 1
 2573 1314 l 1
 2541 1164 l 1
 2274 1164 l 1
 2184 739 l 1
 2239 778 2311 798 2375 798 c 0xefe0
 2654 798 2740 543 2688 299 c 0
 2621 -15 2451 -268 2178 -454 c 0
 1821 -697 1400 -738 1130 -738 c 0
 424 -738 -75 -270 74 432 c 0
EndSplineSet
Ligature2: "sub_ligature_pststaml_6 subtable" u0BB3 u0BC1
LCarets2: 1 0
EndChar

StartChar: u0BB3_u0BC2
Encoding: 230 -1 230
Width: 3340
GlyphClass: 2
Flags: HW
LayerCount: 2
Fore
SplineSet
564 827 m 0xd7f8
 648 827 725 887 745 979 c 0
 767 1082 734 1170 635 1170 c 0
 513 1170 434 1056 414 966 c 1
 414 885 479 827 564 827 c 0xd7f8
1035 542 m 1
 1009 413 1029 197 1164 197 c 0
 1260 197 1345 296 1374 433 c 0
 1405 581 1330 682 1243 682 c 0xcff8
 1136 682 1069 605 1035 542 c 1
315 795 m 1
 277 697 235 548 208 419 c 0
 57 -289 763 -592 1341 -592 c 0
 2127 -592 2802 -239 2914 290 c 0
 2942 420 2939 609 2766 609 c 0xe7f8
 2699 609 2650 586 2615 539 c 1
 2495 -27 l 1
 2248 -27 l 1
 2501 1163 l 1
 2243 1163 l 1
 1990 -27 l 1
 1743 -27 l 1
 1934 870 l 2
 1969 1032 1861 1161 1641 1161 c 0
 1329 1161 1160 942 1100 796 c 1
 1167 842 1256 869 1342 869 c 0xcff8
 1568 869 1676 690 1623 439 c 0
 1542 57 1328 -27 1198 -27 c 0
 885 -27 841 295 904 590 c 0
 1024 1153 1404 1311 1650 1311 c 0
 1882 1311 2042 1252 2109 1131 c 1
 2148 1312 l 1
 3048 1312 l 1
 3016 1162 l 1
 2749 1162 l 1
 2659 736 l 1
 2712 773 2782 795 2850 795 c 0xe7f8
 3129 795 3215 540 3163 296 c 0
 3045 -259 2563 -563 1987 -680 c 0
 1779 -722 1554 -743 1311 -743 c 0
 441 -743 -80 -275 69 427 c 0
 229 1179 505 1312 671 1312 c 0
 851 1312 933 1196 889 989 c 0
 835 735 654 664 536 664 c 0xd7f8
 440 664 349 712 315 795 c 1
EndSplineSet
Ligature2: "sub_ligature_pststaml_8 subtable" u0BB3 u0BC2
LCarets2: 1 0
EndChar

StartChar: u0BB3_u0BCD
Encoding: 233 -1 233
Width: 2208
GlyphClass: 2
Flags: HW
LayerCount: 2
Fore
SplineSet
856 1315 m 0xfd80
 1085 1315 1247 1256 1315 1134 c 1
 1353 1316 l 1
 2253 1316 l 1
 2217 1165 l 1
 1951 1165 l 1
 1698 -25 l 1
 1452 -25 l 1
 1705 1165 l 1
 1445 1165 l 1
 1192 -25 l 1
 946 -25 l 1
 1137 872 l 2
 1161 985 1111 1163 845 1163 c 0
 540 1163 366 952 304 798 c 1
 371 844 460 872 547 872 c 0
 770 872 880 693 827 442 c 0
 785 247 663 -24 402 -24 c 0
 117 -24 37 256 109 593 c 0
 202 1030 489 1315 856 1315 c 0xfd80
240 543 m 1
 208 385 246 197 369 197 c 0
 475 197 552 308 580 437 c 0
 613 588 526 682 449 682 c 0
 342 682 271 603 240 543 c 1
1417 1855 m 0
 1514 1855 1575 1773 1553 1667 c 1
 1531 1563 1433 1479 1338 1479 c 0
 1243 1479 1182 1564 1204 1667 c 0xfe80
 1227 1775 1325 1855 1417 1855 c 0
EndSplineSet
Ligature2: "pstspostbasesubstitution subtable" u0BB3 u0BCD
LCarets2: 1 0
EndChar

StartChar: u0BB4
Encoding: 234 2996 234
Width: 1609
GlyphClass: 1
Flags: HW
LayerCount: 2
Fore
SplineSet
1148 1315 m 0xdb80
 1550 1315 1557 908 1504 625 c 1
 1447 357 1355 219 1289 145 c 0
 1189 33 1088 -25 987 -25 c 2
 728 -25 l 1
 711 -106 l 1
 995 -106 l 1
 966 -245 l 1
 617 -245 l 2xbb80
 532 -245 479 -301 449 -413 c 0
 408 -567 263 -739 89 -739 c 0
 -179 -739 -227 -548 -191 -377 c 0
 -164 -249 -74 -132 43 -132 c 2
 56 -132 l 1
 98 -247 l 1
 56 -247 l 2
 31 -247 -47 -267 -69 -369 c 0xdd80
 -92 -478 -33 -539 62 -539 c 0
 201 -539 245 -449 278 -339 c 0
 327 -174 402 -117 462 -106 c 1
 479 -23 l 1
 -27 -23 l 1
 258 1317 l 1
 505 1317 l 1
 252 127 l 1
 510 127 l 1
 661 838 l 2
 716 1096 840 1315 1148 1315 c 0xdb80
1137 1142 m 0
 1071 1142 960 1087 907 835 c 2
 757 127 l 1
 998 127 l 2
 1101 127 1283 259 1361 627 c 0
 1421 909 1356 1142 1137 1142 c 0
EndSplineSet
EndChar

StartChar: u0BB4_u0BBF
Encoding: 235 -1 235
Width: 1904
GlyphClass: 2
Flags: HW
LayerCount: 2
Fore
SplineSet
1054 1312 m 1xdd58
 1037 1390 1039 1484 1062 1592 c 0
 1126 1891 1332 2108 1658 2108 c 0
 1930 2108 2074 1937 1980 1496 c 1
 1661 -25 l 1
 1534 -25 l 1
 1857 1491 l 2
 1889 1640 1873 1862 1608 1862 c 0
 1342 1862 1234 1668 1193 1475 c 0
 1182 1424 1180 1368 1201 1318 c 1
 1328 1314 1423 1250 1482 1129 c 0
 1543 1004 1550 838 1506 630 c 0
 1401 137 1141 -20 989 -20 c 2
 730 -20 l 1
 713 -101 l 1
 997 -101 l 1
 968 -240 l 1
 619 -240 l 2xbc38
 510 -240 467 -332 451 -406 c 0
 418 -559 260 -734 91 -734 c 0
 -177 -734 -225 -543 -189 -372 c 0
 -162 -244 -72 -127 45 -127 c 2
 58 -127 l 1
 100 -242 l 1
 58 -242 l 2
 33 -242 -46 -262 -68 -364 c 0
 -91 -472 -28 -534 52 -534 c 0
 201 -534 259 -435 280 -336 c 0xdeb8
 304 -224 381 -120 463 -102 c 1
 481 -18 l 1
 -25 -18 l 1
 260 1322 l 1
 507 1322 l 1
 254 132 l 1
 512 132 l 1
 663 843 l 2
 739 1201 918 1289 1054 1312 c 1xdd58
1139 1143 m 0
 1073 1143 962 1088 909 836 c 2
 759 128 l 1x9c58
 1000 128 l 2
 1103 128 1286 260 1364 628 c 0
 1424 910 1358 1143 1139 1143 c 0
EndSplineSet
Ligature2: "sub_ligature_pststaml_2 subtable" u0BB4 u0BBF
LCarets2: 1 0
EndChar

StartChar: u0BB4_u0BC0
Encoding: 236 -1 236
Width: 1644
GlyphClass: 2
Flags: HW
LayerCount: 2
Fore
SplineSet
1141 1140 m 0x9c5c
 1075 1140 964 1085 911 833 c 2
 761 125 l 1
 1002 125 l 2
 1105 125 1288 257 1366 625 c 0
 1426 907 1360 1140 1141 1140 c 0x9c5c
1568 1722 m 0
 1549 1634 1594 1561 1675 1561 c 0
 1762 1561 1844 1635 1863 1724 c 0
 1881 1809 1845 1899 1739 1900 c 1
 1659 1883 1588 1814 1568 1722 c 0
1554 1950 m 1
 1541 1951 1528 1951 1515 1951 c 0
 1352 1951 1193 1786 1151 1588 c 0
 1123 1454 1171 1355 1205 1313 c 1
 1491 1282 1577 999 1498 626 c 0
 1393 133 1132 -24 980 -24 c 2
 727 -24 l 1
 710 -107 l 1
 994 -107 l 1
 965 -246 l 1
 616 -246 l 2xbc3c
 507 -246 461 -353 448 -412 c 0
 413 -576 248 -740 88 -740 c 0
 -180 -740 -228 -549 -192 -378 c 0
 -165 -250 -75 -133 42 -133 c 2
 55 -133 l 1
 96 -248 l 1
 55 -248 l 2
 30 -248 -49 -268 -71 -370 c 0
 -94 -478 -31 -540 49 -540 c 0
 171 -540 247 -482 277 -342 c 0xdebc
 301 -230 375 -124 460 -107 c 1
 478 -24 l 1
 -28 -24 l 1
 257 1316 l 1
 504 1316 l 1
 251 126 l 1
 509 126 l 1
 660 837 l 2xdd5c
 714 1089 839 1284 1063 1311 c 1
 1019 1379 980 1488 1008 1622 c 0xdc3c
 1092 2016 1389 2170 1633 2170 c 0
 1738 2170 1862 2152 1971 2079 c 0
 2035 2036 2106 1949 2065 1754 c 0
 2024 1559 1862 1419 1666 1419 c 0
 1453 1419 1398 1582 1428 1722 c 0
 1444 1797 1491 1891 1554 1950 c 1
EndSplineSet
Ligature2: "sub_ligature_pststaml_4 subtable" u0BB4 u0BC0
LCarets2: 1 0
EndChar

StartChar: u0BB4_u0BC1
Encoding: 237 -1 237
Width: 2114
GlyphClass: 2
Flags: HW
LayerCount: 2
Fore
SplineSet
1645 1140 m 0
 1579 1140 1468 1085 1415 833 c 2
 1265 125 l 1
 1506 125 l 2
 1609 125 1792 257 1870 625 c 0
 1930 907 1864 1140 1645 1140 c 0
2010 624 m 0
 1970 437 1886 207 1715 68 c 0
 1661 24 1583 -25 1492 -25 c 2
 1234 -25 l 1
 1212 -128 l 1
 1265 -95 1330 -79 1405 -79 c 0
 1527 -79 1682 -130 1640 -326 c 0
 1569 -659 1268 -742 767 -742 c 0
 200 -742 -69 -231 59 371 c 0
 171 899 389 1174 530 1304 c 2
 549 1322 l 1
 622 1232 l 1
 603 1213 l 2
 416 1034 279 752 196 362 c 0
 77 -199 355 -593 795 -593 c 0
 999 -593 1342 -541 1386 -334 c 0
 1401 -263 1347 -248 1311 -248 c 0
 1235 -248 1185 -307 1166 -334 c 2
 1156 -348 l 1
 919 -348 l 1
 987 -26 l 1
 481 -26 l 1
 766 1314 l 1
 1013 1314 l 1
 760 124 l 1
 1018 124 l 1
 1169 835 l 2
 1224 1092 1348 1313 1657 1313 c 0
 2020 1313 2085 975 2010 624 c 0
EndSplineSet
Ligature2: "sub_ligature_pststaml_6 subtable" u0BB4 u0BC1
LCarets2: 1 0
EndChar

StartChar: u0BB4_u0BC2
Encoding: 238 -1 238
Width: 2488
GlyphClass: 2
Flags: HW
LayerCount: 2
Fore
SplineSet
564 827 m 0xf7f0
 648 827 725 887 745 979 c 0
 767 1082 734 1170 635 1170 c 0
 513 1170 434 1056 414 966 c 1
 414 885 479 827 564 827 c 0xf7f0
2018 1142 m 0xfbf0
 1952 1142 1841 1087 1788 835 c 2
 1637 127 l 1
 1878 127 l 2
 1994 127 2169 283 2242 626 c 0
 2309 942 2218 1142 2018 1142 c 0xfbf0
209 422 m 0
 74 -211 550 -593 1032 -593 c 0
 1293 -593 1714 -541 1758 -334 c 0
 1773 -265 1722 -248 1682 -248 c 0
 1606 -248 1557 -306 1538 -334 c 2
 1528 -348 l 1
 1291 -348 l 1
 1359 -26 l 1
 853 -26 l 1
 1138 1314 l 1
 1385 1314 l 1xf7f0
 1132 124 l 1
 1391 124 l 1
 1542 835 l 2
 1597 1093 1721 1312 2029 1312 c 0xfbf0
 2390 1312 2455 970 2381 624 c 0
 2341 437 2257 207 2086 68 c 0
 2032 24 1955 -25 1864 -25 c 2
 1605 -25 l 1
 1583 -127 l 1
 1636 -94 1701 -79 1775 -79 c 0
 1934 -79 2046 -159 2010 -327 c 0
 1938 -666 1514 -740 1006 -740 c 0
 367 -740 -80 -272 69 429 c 0
 229 1181 505 1314 671 1314 c 0xf7f0
 851 1314 933 1198 889 991 c 0
 835 736 646 666 536 666 c 0
 446 666 352 714 317 799 c 1
 279 701 237 552 209 422 c 0
EndSplineSet
Ligature2: "sub_ligature_pststaml_8 subtable" u0BB4 u0BC2
LCarets2: 1 0
EndChar

StartChar: u0BB4_u0BCD
Encoding: 239 -1 239
Width: 1701
GlyphClass: 2
Flags: HW
LayerCount: 2
Fore
SplineSet
1148 1315 m 0xdd30
 1551 1315 1562 896 1504 625 c 0
 1464 437 1391 259 1289 145 c 0
 1189 33 1088 -25 987 -25 c 2
 728 -25 l 1
 711 -106 l 1
 995 -106 l 1
 966 -245 l 1
 617 -245 l 2xbd30
 509 -245 464 -342 449 -411 c 0
 416 -566 259 -739 89 -739 c 0
 -179 -739 -227 -548 -191 -377 c 0
 -164 -249 -74 -132 43 -132 c 2
 56 -132 l 1
 98 -247 l 1
 56 -247 l 2
 31 -247 -47 -267 -69 -369 c 0
 -92 -477 -30 -539 50 -539 c 0
 143 -539 243 -501 278 -341 c 0xde90
 303 -228 378 -123 462 -106 c 1
 479 -23 l 1
 -27 -23 l 1
 258 1317 l 1
 505 1317 l 1
 252 127 l 1
 510 127 l 1
 661 838 l 2
 716 1096 840 1315 1148 1315 c 0xdd30
1137 1142 m 0
 1071 1142 960 1087 907 835 c 2
 757 127 l 1
 998 127 l 2
 1101 127 1283 259 1361 627 c 0
 1421 909 1356 1142 1137 1142 c 0
1000 1857 m 0
 1098 1857 1158 1775 1136 1669 c 1
 1114 1565 1016 1481 921 1481 c 0
 826 1481 765 1566 787 1669 c 0x9c50
 810 1777 908 1857 1000 1857 c 0
EndSplineSet
Ligature2: "pstspostbasesubstitution subtable" u0BB4 u0BCD
LCarets2: 1 0
EndChar

StartChar: u0BB5
Encoding: 240 2997 240
Width: 2075
GlyphClass: 1
Flags: HW
LayerCount: 2
Fore
SplineSet
880 1313 m 0xbf
 1417 1313 1475 918 1406 595 c 0
 1367 411 1280 256 1165 126 c 1
 1619 126 l 1
 1872 1316 l 1
 2119 1316 l 1
 1834 -25 l 1
 775 -25 l 1x7f
 823 18 l 2
 998 173 1121 359 1169 587 c 0
 1241 926 1112 1162 844 1162 c 0
 534 1162 365 940 303 799 c 1
 370 844 459 871 544 871 c 0
 767 871 876 692 823 441 c 0
 772 203 646 -26 399 -26 c 0
 60 -26 49 319 107 592 c 0
 201 1036 485 1313 880 1313 c 0xbf
236 543 m 1
 182 284 272 197 365 197 c 0xbf
 471 197 548 308 576 437 c 0
 609 588 522 682 445 682 c 0
 338 682 267 603 236 543 c 1
EndSplineSet
EndChar

StartChar: u0BB5_u0BBF
Encoding: 241 -1 241
Width: 2355
GlyphClass: 2
Flags: HW
LayerCount: 2
Fore
SplineSet
233 542 m 1xbe60
 179 283 269 196 362 196 c 0
 468 196 545 307 573 436 c 0
 606 587 519 681 442 681 c 0
 335 681 264 602 233 542 c 1xbe60
2074 1807 m 0
 1936 1807 1777 1718 1734 1515 c 0
 1694 1327 1781 1277 1859 1269 c 1
 1865 1313 l 1
 2114 1313 l 1
 1829 -27 l 1
 772 -27 l 1x7ee0
 820 16 l 2
 995 171 1117 357 1165 585 c 0
 1237 924 1109 1160 841 1160 c 0
 531 1160 361 938 299 797 c 1
 366 842 455 869 540 869 c 0
 763 869 873 690 820 439 c 0
 769 201 643 -28 396 -28 c 0
 57 -28 46 317 104 590 c 0
 198 1034 482 1311 877 1311 c 0
 1414 1311 1471 916 1402 593 c 0xbf60
 1363 409 1277 254 1162 124 c 1
 1616 124 l 1
 1827 1118 l 1
 1681 1128 1520 1231 1588 1551 c 0
 1655 1866 1849 2057 2128 2057 c 0
 2468 2057 2496 1785 2430 1477 c 2
 2110 -27 l 1
 1984 -27 l 1x7ee0
 2297 1445 l 2
 2349 1689 2296 1807 2074 1807 c 0
EndSplineSet
Ligature2: "sub_ligature_pststaml_2 subtable" u0BB5 u0BBF
LCarets2: 1 0
EndChar

StartChar: u0BB5_u0BC0
Encoding: 242 -1 242
Width: 2320
GlyphClass: 2
Flags: HW
LayerCount: 2
Fore
SplineSet
233 542 m 1xa7e4
 179 283 269 196 362 196 c 0
 468 196 545 307 573 436 c 0
 606 587 519 681 442 681 c 0
 335 681 264 602 233 542 c 1xa7e4
878 1309 m 0xaff4
 1415 1309 1472 914 1403 591 c 0
 1364 407 1278 252 1163 122 c 1
 1617 122 l 1
 1824 1109 l 1
 1752 1117 1701 1164 1663 1230 c 0
 1617 1311 1610 1420 1638 1553 c 0
 1731 1989 2101 2101 2292 2101 c 0
 2424 2101 2537 2071 2629 2010 c 0
 2724 1947 2756 1838 2724 1685 c 0
 2683 1490 2520 1350 2324 1350 c 0
 2111 1350 2056 1513 2086 1653 c 0x77ec
 2102 1727 2148 1820 2213 1880 c 1
 2200 1881 2187 1881 2175 1881 c 0
 1967 1881 1812 1653 1783 1518 c 0
 1743 1331 1796 1249 1850 1231 c 1
 1868 1311 l 1
 2114 1311 l 1
 1829 -29 l 1
 772 -29 l 1x77f4
 820 14 l 2
 995 169 1118 355 1166 583 c 0
 1238 922 1110 1158 842 1158 c 0
 532 1158 362 936 300 795 c 1
 367 840 456 867 541 867 c 0
 764 867 874 688 821 437 c 0
 770 199 644 -30 397 -30 c 0
 58 -30 46 315 104 588 c 0
 198 1032 483 1309 878 1309 c 0xaff4
2224 1651 m 0
 2207 1572 2245 1491 2331 1491 c 0
 2420 1491 2501 1567 2519 1653 c 0
 2537 1739 2501 1827 2395 1828 c 1
 2316 1811 2244 1743 2224 1651 c 0
EndSplineSet
Ligature2: "sub_ligature_pststaml_4 subtable" u0BB5 u0BC0
LCarets2: 1 0
EndChar

StartChar: u0BB5_u0BC1
Encoding: 243 -1 243
Width: 2075
GlyphClass: 2
Flags: HW
LayerCount: 2
Fore
SplineSet
880 1313 m 0xbf
 1417 1313 1475 918 1406 595 c 0
 1367 411 1280 256 1165 126 c 1
 1619 126 l 1
 1872 1316 l 1
 2117 1316 l 1
 1750 -412 l 1
 1503 -412 l 1
 1585 -25 l 1
 775 -25 l 1x7f
 823 18 l 2
 998 173 1121 359 1169 587 c 0
 1241 926 1112 1162 844 1162 c 0
 534 1162 365 940 303 799 c 1
 370 844 459 871 544 871 c 0
 767 871 876 692 823 441 c 0
 772 203 646 -26 399 -26 c 0
 60 -26 49 319 107 592 c 0
 201 1036 485 1313 880 1313 c 0xbf
236 543 m 1
 182 284 272 197 365 197 c 0xbf
 471 197 548 308 576 437 c 0
 609 588 522 682 445 682 c 0
 338 682 267 603 236 543 c 1
EndSplineSet
Ligature2: "sub_ligature_pststaml_6 subtable" u0BB5 u0BC1
LCarets2: 1 0
EndChar

StartChar: u0BB5_u0BC2
Encoding: 244 -1 244
Width: 2673
GlyphClass: 2
Flags: HW
LayerCount: 2
Fore
SplineSet
1016 -363 m 0xcf5c
 1036 -268 990 -203 909 -203 c 0
 824 -203 742 -276 723 -363 c 0
 701 -469 752 -540 845 -541 c 1
 913 -525 993 -470 1016 -363 c 0xcf5c
1994 210 m 0
 1934 210 1891 187 1863 134 c 1
 1762 -340 l 1
 1516 -340 l 1
 1583 -25 l 1
 774 -25 l 1xdf5c
 822 18 l 2
 997 173 1120 359 1168 587 c 0
 1240 926 1112 1162 844 1162 c 0
 534 1162 364 940 302 799 c 1
 369 844 458 871 543 871 c 0
 766 871 875 692 822 441 c 0
 771 203 646 -26 399 -26 c 0xefac
 60 -26 48 319 106 592 c 0
 200 1036 484 1313 879 1313 c 0
 1416 1313 1474 918 1405 595 c 0
 1366 411 1280 256 1165 126 c 1
 1618 126 l 1xdfac
 1871 1316 l 1
 2118 1316 l 1
 1906 336 l 1
 1966 383 2038 402 2097 402 c 0
 2234 402 2440 268 2383 1 c 0
 2357 -121 2267 -356 1952 -556 c 0
 1809 -647 1535 -756 1126 -756 c 0
 601 -756 559 -528 592 -371 c 0
 633 -178 762 -67 954 -67 c 0
 1185 -67 1219 -233 1190 -368 c 0
 1171 -459 1112 -545 1039 -596 c 1
 1067 -611 1104 -616 1162 -616 c 0
 1409 -616 1700 -510 1834 -409 c 0
 1967 -308 2083 -146 2117 14 c 0
 2138 115 2064 210 1994 210 c 0
234 542 m 1
 180 283 270 196 363 196 c 0
 469 196 546 307 574 436 c 0xef8c
 607 587 520 681 443 681 c 0
 336 681 265 602 234 542 c 1
EndSplineSet
Ligature2: "sub_ligature_pststaml_8 subtable" u0BB5 u0BC2
LCarets2: 1 0
EndChar

StartChar: u0BB5_u0BCD
Encoding: 245 -1 245
Width: 2075
GlyphClass: 2
Flags: HW
LayerCount: 2
Fore
SplineSet
880 1313 m 0xbec0
 1417 1313 1475 918 1406 595 c 0
 1367 411 1280 256 1165 126 c 1
 1619 126 l 1
 1872 1316 l 1
 2117 1316 l 1
 1832 -25 l 1
 775 -25 l 1x7ec0
 823 18 l 2
 998 173 1121 359 1169 587 c 0
 1241 926 1112 1162 844 1162 c 0
 534 1162 365 940 303 799 c 1
 370 844 459 871 544 871 c 0
 767 871 876 692 823 441 c 0
 772 203 646 -26 399 -26 c 0
 60 -26 49 319 107 592 c 0
 201 1036 485 1313 880 1313 c 0xbec0
236 543 m 1
 182 284 272 197 365 197 c 0xbe40
 471 197 548 308 576 437 c 0
 609 588 522 682 445 682 c 0
 338 682 267 603 236 543 c 1
1563 1855 m 0
 1660 1855 1721 1773 1699 1667 c 1
 1677 1563 1579 1479 1484 1479 c 0
 1389 1479 1328 1564 1350 1667 c 0x3f40
 1373 1775 1471 1855 1563 1855 c 0
EndSplineSet
Ligature2: "pstspostbasesubstitution subtable" u0BB5 u0BCD
LCarets2: 1 0
EndChar

StartChar: u0BB7
Encoding: 246 2999 246
Width: 2874
GlyphClass: 1
Flags: HW
HStem: -25 222<272.258 470.139> -25 152<1167 1947 2211 2478.07> 485 160<2321 2422.34> 530 156<1969.87 2068> 682 190<353.497 657.5> 1162 152<624.781 1019.83 1914.73 2138.4>
AnchorPoint: "R" 2280 1161 exit 0
LayerCount: 2
Fore
SplineSet
2165 1008 m 2x14
 2190 1125 2095 1154 2015 1154 c 0
 1907 1154 1835 1069 1808 944 c 0
 1794 878 1814 824 1875 780 c 0
 1932 739 2006 707 2096 686 c 1
 2165 1008 l 2x14
2287 485 m 1x24
 2211 125 l 1
 2358 125 l 2
 2446 125 2513 169 2543 308 c 0
 2564 408 2392 461 2287 485 c 1x24
2113 1314 m 0
 2400 1314 2432 1152 2409 1044 c 2
 2321 645 l 1
 2542 597 2744 502 2700 297 c 0
 2668 149 2564 -25 2324 -25 c 2
 2180 -25 l 1
 2048 -642 l 1
 1816 -642 l 1
 1947 -25 l 1
 776 -25 l 1x64
 824 18 l 2
 999 173 1122 359 1170 587 c 0
 1242 926 1113 1162 845 1162 c 0
 533 1162 364 945 303 799 c 1
 370 844 460 872 546 872 c 0
 769 872 878 693 825 442 c 0
 774 204 648 -25 401 -25 c 0x8c
 62 -25 51 320 109 593 c 0
 203 1037 487 1314 882 1314 c 0
 1419 1314 1477 919 1408 596 c 0
 1369 412 1282 257 1167 127 c 1
 1982 127 l 1
 2068 530 l 1x54
 1828 584 1631 699 1683 943 c 0
 1720 1119 1838 1314 2113 1314 c 0
238 543 m 1
 184 284 274 197 367 197 c 0
 473 197 550 308 578 437 c 0
 611 588 524 682 447 682 c 0x8c
 340 682 269 603 238 543 c 1
EndSplineSet
EndChar

StartChar: u0BB7_u0BBF
Encoding: 247 -1 247
Width: 3167
GlyphClass: 2
Flags: HW
LayerCount: 2
Fore
SplineSet
2165 1008 m 2x3ff8
 2190 1125 2095 1154 2015 1154 c 0
 1907 1154 1835 1069 1808 944 c 0
 1776 794 1950 720 2097 686 c 1
 2165 1008 l 2x3ff8
234 541 m 1
 180 282 271 195 364 195 c 0xbff8
 470 195 547 306 575 435 c 0
 608 586 520 680 443 680 c 0
 336 680 265 601 234 541 c 1
2808 2101 m 0
 3069 2101 3364 2024 3250 1489 c 2
 2927 -29 l 1
 2801 -29 l 1
 3123 1487 l 2
 3171 1713 3076 1858 2755 1858 c 0
 2438 1858 2294 1703 2245 1470 c 0
 2230 1399 2236 1340 2261 1292 c 1
 2403 1248 2427 1133 2408 1042 c 2
 2320 643 l 1
 2541 595 2743 500 2699 295 c 0
 2667 147 2562 -27 2322 -27 c 2
 2178 -27 l 1
 2047 -644 l 1
 1815 -644 l 1
 1946 -27 l 1
 774 -27 l 1x7ff8
 822 16 l 2
 997 171 1120 357 1168 585 c 0
 1240 924 1112 1160 844 1160 c 0
 532 1160 363 943 302 797 c 1
 369 842 458 870 544 870 c 0
 767 870 877 691 824 440 c 0
 773 202 647 -27 400 -27 c 0xbff8
 61 -27 49 318 107 591 c 0
 201 1035 486 1312 881 1312 c 0
 1418 1312 1475 917 1406 594 c 0
 1367 410 1281 255 1166 125 c 1
 1981 125 l 1x7ff8
 2067 528 l 1
 1827 582 1630 697 1682 941 c 0
 1727 1154 1858 1299 2111 1312 c 1
 2098 1375 2096 1475 2119 1584 c 0
 2206 1995 2527 2101 2808 2101 c 0
2546 308 m 0
 2567 408 2395 461 2290 485 c 1
 2213 125 l 1
 2360 125 l 2
 2448 125 2516 169 2546 308 c 0
EndSplineSet
Ligature2: "sub_ligature_pststaml_2 subtable" u0BB7 u0BBF
LCarets2: 1 0
EndChar

